<?xml version="1.0" standalone="no"?>
 <!DOCTYPE svg PUBLIC "-//W3C//DTD SVG 1.1//EN" 
 "http://www.w3.org/Graphics/SVG/1.1/DTD/svg11.dtd"> 
<svg xmlns="http://www.w3.org/2000/svg" version="1.1" 
    width="29.7002cm" height="21.0007cm" viewBox="0 0 116930 82680 ">
<title>SVG Picture created as analog_board-F.SilkS.svg date 2017/11/25 10:45:21 </title>
  <desc>Picture generated by PCBNEW </desc>
<g style="fill:#000000; fill-opacity:1;stroke:#000000; stroke-opacity:1;
stroke-linecap:round; stroke-linejoin:round; "
 transform="translate(0 0) scale(1 1)">
</g>
<g style="fill:#000000; fill-opacity:0.0; 
stroke:#000000; stroke-width:-0.000393701; stroke-opacity:1; 
stroke-linecap:round; stroke-linejoin:round;">
</g>
<g style="fill:#000000; fill-opacity:0.0; 
stroke:#000000; stroke-width:39.3701; stroke-opacity:1; 
stroke-linecap:round; stroke-linejoin:round;">
</g>
<g style="fill:#000000; fill-opacity:0.0; 
stroke:#000000; stroke-width:59.0551; stroke-opacity:1; 
stroke-linecap:round; stroke-linejoin:round;">
<rect x="69685.9" y="65357.2" width="42519.7" height="12598.4" rx="0" />
</g>
<g style="fill:#000000; fill-opacity:0.0; 
stroke:#000000; stroke-width:39.3701; stroke-opacity:1; 
stroke-linecap:round; stroke-linejoin:round;">
</g>
<g style="fill:#000000; fill-opacity:0.0; 
stroke:#000000; stroke-width:59.0551; stroke-opacity:1; 
stroke-linecap:round; stroke-linejoin:round;">
<rect x="3937.01" y="3937.01" width="109056" height="74806" rx="0" />
</g>
<g style="fill:#000000; fill-opacity:0.0; 
stroke:#000000; stroke-width:39.3701; stroke-opacity:1; 
stroke-linecap:round; stroke-linejoin:round;">
</g>
<g style="fill:#000000; fill-opacity:0.0; 
stroke:#000000; stroke-width:59.0551; stroke-opacity:1; 
stroke-linecap:round; stroke-linejoin:round;">
<rect x="4724.41" y="4724.41" width="107481" height="73231.2" rx="0" />
</g>
<g style="fill:#000000; fill-opacity:0.0; 
stroke:#000000; stroke-width:39.3701; stroke-opacity:1; 
stroke-linecap:round; stroke-linejoin:round;">
</g>
<g style="fill:#000000; fill-opacity:0.0; 
stroke:#000000; stroke-width:59.0551; stroke-opacity:1; 
stroke-linecap:round; stroke-linejoin:round;">
<path d="M23622 4724
L23622 3937
" />
</g>
<g style="fill:#000000; fill-opacity:0.0; 
stroke:#000000; stroke-width:39.3701; stroke-opacity:1; 
stroke-linecap:round; stroke-linejoin:round;">
</g>
<g style="fill:#000000; fill-opacity:0.0; 
stroke:#000000; stroke-width:59.0551; stroke-opacity:1; 
stroke-linecap:round; stroke-linejoin:round;">
<path d="M43307 4724
L43307 3937
" />
</g>
<g style="fill:#000000; fill-opacity:0.0; 
stroke:#000000; stroke-width:39.3701; stroke-opacity:1; 
stroke-linecap:round; stroke-linejoin:round;">
</g>
<g style="fill:#000000; fill-opacity:0.0; 
stroke:#000000; stroke-width:59.0551; stroke-opacity:1; 
stroke-linecap:round; stroke-linejoin:round;">
<path d="M62992 4724
L62992 3937
" />
</g>
<g style="fill:#000000; fill-opacity:0.0; 
stroke:#000000; stroke-width:39.3701; stroke-opacity:1; 
stroke-linecap:round; stroke-linejoin:round;">
</g>
<g style="fill:#000000; fill-opacity:0.0; 
stroke:#000000; stroke-width:59.0551; stroke-opacity:1; 
stroke-linecap:round; stroke-linejoin:round;">
<path d="M82677 4724
L82677 3937
" />
</g>
<g style="fill:#000000; fill-opacity:0.0; 
stroke:#000000; stroke-width:39.3701; stroke-opacity:1; 
stroke-linecap:round; stroke-linejoin:round;">
</g>
<g style="fill:#000000; fill-opacity:0.0; 
stroke:#000000; stroke-width:59.0551; stroke-opacity:1; 
stroke-linecap:round; stroke-linejoin:round;">
<path d="M102362 4724
L102362 3937
" />
</g>
<g style="fill:#000000; fill-opacity:0.0; 
stroke:#000000; stroke-width:39.3701; stroke-opacity:1; 
stroke-linecap:round; stroke-linejoin:round;">
</g>
<g style="fill:#000000; fill-opacity:0.0; 
stroke:#000000; stroke-width:59.0551; stroke-opacity:1; 
stroke-linecap:round; stroke-linejoin:round;">
<path d="M14199 4562
L13906 4562
" />
<path d="M14052 4562
L14052 4050
L14004 4123
L13955 4172
L13906 4196
" />
</g>
<g style="fill:#000000; fill-opacity:0.0; 
stroke:#000000; stroke-width:39.3701; stroke-opacity:1; 
stroke-linecap:round; stroke-linejoin:round;">
</g>
<g style="fill:#000000; fill-opacity:0.0; 
stroke:#000000; stroke-width:59.0551; stroke-opacity:1; 
stroke-linecap:round; stroke-linejoin:round;">
<path d="M33591 4099
L33615 4074
L33664 4050
L33786 4050
L33835 4074
L33859 4099
L33884 4147
L33884 4196
L33859 4269
L33567 4562
L33884 4562
" />
</g>
<g style="fill:#000000; fill-opacity:0.0; 
stroke:#000000; stroke-width:39.3701; stroke-opacity:1; 
stroke-linecap:round; stroke-linejoin:round;">
</g>
<g style="fill:#000000; fill-opacity:0.0; 
stroke:#000000; stroke-width:59.0551; stroke-opacity:1; 
stroke-linecap:round; stroke-linejoin:round;">
<path d="M53252 4050
L53569 4050
L53398 4245
L53471 4245
L53520 4269
L53544 4294
L53569 4342
L53569 4464
L53544 4513
L53520 4537
L53471 4562
L53325 4562
L53276 4537
L53252 4513
" />
</g>
<g style="fill:#000000; fill-opacity:0.0; 
stroke:#000000; stroke-width:39.3701; stroke-opacity:1; 
stroke-linecap:round; stroke-linejoin:round;">
</g>
<g style="fill:#000000; fill-opacity:0.0; 
stroke:#000000; stroke-width:59.0551; stroke-opacity:1; 
stroke-linecap:round; stroke-linejoin:round;">
<path d="M73205 4221
L73205 4562
" />
<path d="M73083 4026
L72961 4391
L73278 4391
" />
</g>
<g style="fill:#000000; fill-opacity:0.0; 
stroke:#000000; stroke-width:39.3701; stroke-opacity:1; 
stroke-linecap:round; stroke-linejoin:round;">
</g>
<g style="fill:#000000; fill-opacity:0.0; 
stroke:#000000; stroke-width:59.0551; stroke-opacity:1; 
stroke-linecap:round; stroke-linejoin:round;">
<path d="M92914 4050
L92671 4050
L92646 4294
L92671 4269
L92719 4245
L92841 4245
L92890 4269
L92914 4294
L92939 4342
L92939 4464
L92914 4513
L92890 4537
L92841 4562
L92719 4562
L92671 4537
L92646 4513
" />
</g>
<g style="fill:#000000; fill-opacity:0.0; 
stroke:#000000; stroke-width:39.3701; stroke-opacity:1; 
stroke-linecap:round; stroke-linejoin:round;">
</g>
<g style="fill:#000000; fill-opacity:0.0; 
stroke:#000000; stroke-width:59.0551; stroke-opacity:1; 
stroke-linecap:round; stroke-linejoin:round;">
<path d="M112575 4050
L112477 4050
L112429 4074
L112404 4099
L112356 4172
L112331 4269
L112331 4464
L112356 4513
L112380 4537
L112429 4562
L112526 4562
L112575 4537
L112599 4513
L112624 4464
L112624 4342
L112599 4294
L112575 4269
L112526 4245
L112429 4245
L112380 4269
L112356 4294
L112331 4342
" />
</g>
<g style="fill:#000000; fill-opacity:0.0; 
stroke:#000000; stroke-width:39.3701; stroke-opacity:1; 
stroke-linecap:round; stroke-linejoin:round;">
</g>
<g style="fill:#000000; fill-opacity:0.0; 
stroke:#000000; stroke-width:59.0551; stroke-opacity:1; 
stroke-linecap:round; stroke-linejoin:round;">
<path d="M23622 77955
L23622 78742
" />
</g>
<g style="fill:#000000; fill-opacity:0.0; 
stroke:#000000; stroke-width:39.3701; stroke-opacity:1; 
stroke-linecap:round; stroke-linejoin:round;">
</g>
<g style="fill:#000000; fill-opacity:0.0; 
stroke:#000000; stroke-width:59.0551; stroke-opacity:1; 
stroke-linecap:round; stroke-linejoin:round;">
<path d="M43307 77955
L43307 78742
" />
</g>
<g style="fill:#000000; fill-opacity:0.0; 
stroke:#000000; stroke-width:39.3701; stroke-opacity:1; 
stroke-linecap:round; stroke-linejoin:round;">
</g>
<g style="fill:#000000; fill-opacity:0.0; 
stroke:#000000; stroke-width:59.0551; stroke-opacity:1; 
stroke-linecap:round; stroke-linejoin:round;">
<path d="M62992 77955
L62992 78742
" />
</g>
<g style="fill:#000000; fill-opacity:0.0; 
stroke:#000000; stroke-width:39.3701; stroke-opacity:1; 
stroke-linecap:round; stroke-linejoin:round;">
</g>
<g style="fill:#000000; fill-opacity:0.0; 
stroke:#000000; stroke-width:59.0551; stroke-opacity:1; 
stroke-linecap:round; stroke-linejoin:round;">
<path d="M82677 77955
L82677 78742
" />
</g>
<g style="fill:#000000; fill-opacity:0.0; 
stroke:#000000; stroke-width:39.3701; stroke-opacity:1; 
stroke-linecap:round; stroke-linejoin:round;">
</g>
<g style="fill:#000000; fill-opacity:0.0; 
stroke:#000000; stroke-width:59.0551; stroke-opacity:1; 
stroke-linecap:round; stroke-linejoin:round;">
<path d="M102362 77955
L102362 78742
" />
</g>
<g style="fill:#000000; fill-opacity:0.0; 
stroke:#000000; stroke-width:39.3701; stroke-opacity:1; 
stroke-linecap:round; stroke-linejoin:round;">
</g>
<g style="fill:#000000; fill-opacity:0.0; 
stroke:#000000; stroke-width:59.0551; stroke-opacity:1; 
stroke-linecap:round; stroke-linejoin:round;">
<path d="M14199 78580
L13906 78580
" />
<path d="M14052 78580
L14052 78069
L14004 78142
L13955 78190
L13906 78215
" />
</g>
<g style="fill:#000000; fill-opacity:0.0; 
stroke:#000000; stroke-width:39.3701; stroke-opacity:1; 
stroke-linecap:round; stroke-linejoin:round;">
</g>
<g style="fill:#000000; fill-opacity:0.0; 
stroke:#000000; stroke-width:59.0551; stroke-opacity:1; 
stroke-linecap:round; stroke-linejoin:round;">
<path d="M33591 78117
L33615 78093
L33664 78069
L33786 78069
L33835 78093
L33859 78117
L33884 78166
L33884 78215
L33859 78288
L33567 78580
L33884 78580
" />
</g>
<g style="fill:#000000; fill-opacity:0.0; 
stroke:#000000; stroke-width:39.3701; stroke-opacity:1; 
stroke-linecap:round; stroke-linejoin:round;">
</g>
<g style="fill:#000000; fill-opacity:0.0; 
stroke:#000000; stroke-width:59.0551; stroke-opacity:1; 
stroke-linecap:round; stroke-linejoin:round;">
<path d="M53252 78069
L53569 78069
L53398 78263
L53471 78263
L53520 78288
L53544 78312
L53569 78361
L53569 78483
L53544 78532
L53520 78556
L53471 78580
L53325 78580
L53276 78556
L53252 78532
" />
</g>
<g style="fill:#000000; fill-opacity:0.0; 
stroke:#000000; stroke-width:39.3701; stroke-opacity:1; 
stroke-linecap:round; stroke-linejoin:round;">
</g>
<g style="fill:#000000; fill-opacity:0.0; 
stroke:#000000; stroke-width:59.0551; stroke-opacity:1; 
stroke-linecap:round; stroke-linejoin:round;">
<path d="M73205 78239
L73205 78580
" />
<path d="M73083 78044
L72961 78410
L73278 78410
" />
</g>
<g style="fill:#000000; fill-opacity:0.0; 
stroke:#000000; stroke-width:39.3701; stroke-opacity:1; 
stroke-linecap:round; stroke-linejoin:round;">
</g>
<g style="fill:#000000; fill-opacity:0.0; 
stroke:#000000; stroke-width:59.0551; stroke-opacity:1; 
stroke-linecap:round; stroke-linejoin:round;">
<path d="M92914 78069
L92671 78069
L92646 78312
L92671 78288
L92719 78263
L92841 78263
L92890 78288
L92914 78312
L92939 78361
L92939 78483
L92914 78532
L92890 78556
L92841 78580
L92719 78580
L92671 78556
L92646 78532
" />
</g>
<g style="fill:#000000; fill-opacity:0.0; 
stroke:#000000; stroke-width:39.3701; stroke-opacity:1; 
stroke-linecap:round; stroke-linejoin:round;">
</g>
<g style="fill:#000000; fill-opacity:0.0; 
stroke:#000000; stroke-width:59.0551; stroke-opacity:1; 
stroke-linecap:round; stroke-linejoin:round;">
<path d="M112575 78069
L112477 78069
L112429 78093
L112404 78117
L112356 78190
L112331 78288
L112331 78483
L112356 78532
L112380 78556
L112429 78580
L112526 78580
L112575 78556
L112599 78532
L112624 78483
L112624 78361
L112599 78312
L112575 78288
L112526 78263
L112429 78263
L112380 78288
L112356 78312
L112331 78361
" />
</g>
<g style="fill:#000000; fill-opacity:0.0; 
stroke:#000000; stroke-width:39.3701; stroke-opacity:1; 
stroke-linecap:round; stroke-linejoin:round;">
</g>
<g style="fill:#000000; fill-opacity:0.0; 
stroke:#000000; stroke-width:59.0551; stroke-opacity:1; 
stroke-linecap:round; stroke-linejoin:round;">
<path d="M3937 23622
L4724 23622
" />
</g>
<g style="fill:#000000; fill-opacity:0.0; 
stroke:#000000; stroke-width:39.3701; stroke-opacity:1; 
stroke-linecap:round; stroke-linejoin:round;">
</g>
<g style="fill:#000000; fill-opacity:0.0; 
stroke:#000000; stroke-width:59.0551; stroke-opacity:1; 
stroke-linecap:round; stroke-linejoin:round;">
<path d="M3937 43307
L4724 43307
" />
</g>
<g style="fill:#000000; fill-opacity:0.0; 
stroke:#000000; stroke-width:39.3701; stroke-opacity:1; 
stroke-linecap:round; stroke-linejoin:round;">
</g>
<g style="fill:#000000; fill-opacity:0.0; 
stroke:#000000; stroke-width:59.0551; stroke-opacity:1; 
stroke-linecap:round; stroke-linejoin:round;">
<path d="M3937 62992
L4724 62992
" />
</g>
<g style="fill:#000000; fill-opacity:0.0; 
stroke:#000000; stroke-width:39.3701; stroke-opacity:1; 
stroke-linecap:round; stroke-linejoin:round;">
</g>
<g style="fill:#000000; fill-opacity:0.0; 
stroke:#000000; stroke-width:59.0551; stroke-opacity:1; 
stroke-linecap:round; stroke-linejoin:round;">
<path d="M4208 13864
L4452 13864
" />
<path d="M4160 14011
L4330 13499
L4501 14011
" />
</g>
<g style="fill:#000000; fill-opacity:0.0; 
stroke:#000000; stroke-width:39.3701; stroke-opacity:1; 
stroke-linecap:round; stroke-linejoin:round;">
</g>
<g style="fill:#000000; fill-opacity:0.0; 
stroke:#000000; stroke-width:59.0551; stroke-opacity:1; 
stroke-linecap:round; stroke-linejoin:round;">
<path d="M4367 33428
L4440 33452
L4464 33476
L4489 33525
L4489 33598
L4464 33647
L4440 33671
L4391 33696
L4196 33696
L4196 33184
L4367 33184
L4416 33208
L4440 33233
L4464 33281
L4464 33330
L4440 33379
L4416 33403
L4367 33428
L4196 33428
" />
</g>
<g style="fill:#000000; fill-opacity:0.0; 
stroke:#000000; stroke-width:39.3701; stroke-opacity:1; 
stroke-linecap:round; stroke-linejoin:round;">
</g>
<g style="fill:#000000; fill-opacity:0.0; 
stroke:#000000; stroke-width:59.0551; stroke-opacity:1; 
stroke-linecap:round; stroke-linejoin:round;">
<path d="M4489 53332
L4464 53356
L4391 53381
L4342 53381
L4269 53356
L4221 53308
L4196 53259
L4172 53161
L4172 53088
L4196 52991
L4221 52942
L4269 52893
L4342 52869
L4391 52869
L4464 52893
L4489 52918
" />
</g>
<g style="fill:#000000; fill-opacity:0.0; 
stroke:#000000; stroke-width:39.3701; stroke-opacity:1; 
stroke-linecap:round; stroke-linejoin:round;">
</g>
<g style="fill:#000000; fill-opacity:0.0; 
stroke:#000000; stroke-width:59.0551; stroke-opacity:1; 
stroke-linecap:round; stroke-linejoin:round;">
<path d="M4196 73066
L4196 72554
L4318 72554
L4391 72578
L4440 72627
L4464 72676
L4489 72773
L4489 72846
L4464 72944
L4440 72993
L4391 73041
L4318 73066
L4196 73066
" />
</g>
<g style="fill:#000000; fill-opacity:0.0; 
stroke:#000000; stroke-width:39.3701; stroke-opacity:1; 
stroke-linecap:round; stroke-linejoin:round;">
</g>
<g style="fill:#000000; fill-opacity:0.0; 
stroke:#000000; stroke-width:59.0551; stroke-opacity:1; 
stroke-linecap:round; stroke-linejoin:round;">
<path d="M112992 23622
L112205 23622
" />
</g>
<g style="fill:#000000; fill-opacity:0.0; 
stroke:#000000; stroke-width:39.3701; stroke-opacity:1; 
stroke-linecap:round; stroke-linejoin:round;">
</g>
<g style="fill:#000000; fill-opacity:0.0; 
stroke:#000000; stroke-width:59.0551; stroke-opacity:1; 
stroke-linecap:round; stroke-linejoin:round;">
<path d="M112992 43307
L112205 43307
" />
</g>
<g style="fill:#000000; fill-opacity:0.0; 
stroke:#000000; stroke-width:39.3701; stroke-opacity:1; 
stroke-linecap:round; stroke-linejoin:round;">
</g>
<g style="fill:#000000; fill-opacity:0.0; 
stroke:#000000; stroke-width:59.0551; stroke-opacity:1; 
stroke-linecap:round; stroke-linejoin:round;">
<path d="M112992 62992
L112205 62992
" />
</g>
<g style="fill:#000000; fill-opacity:0.0; 
stroke:#000000; stroke-width:39.3701; stroke-opacity:1; 
stroke-linecap:round; stroke-linejoin:round;">
</g>
<g style="fill:#000000; fill-opacity:0.0; 
stroke:#000000; stroke-width:59.0551; stroke-opacity:1; 
stroke-linecap:round; stroke-linejoin:round;">
<path d="M112477 13864
L112721 13864
" />
<path d="M112428 14011
L112599 13499
L112769 14011
" />
</g>
<g style="fill:#000000; fill-opacity:0.0; 
stroke:#000000; stroke-width:39.3701; stroke-opacity:1; 
stroke-linecap:round; stroke-linejoin:round;">
</g>
<g style="fill:#000000; fill-opacity:0.0; 
stroke:#000000; stroke-width:59.0551; stroke-opacity:1; 
stroke-linecap:round; stroke-linejoin:round;">
<path d="M112635 33428
L112708 33452
L112733 33476
L112757 33525
L112757 33598
L112733 33647
L112708 33671
L112660 33696
L112465 33696
L112465 33184
L112635 33184
L112684 33208
L112708 33233
L112733 33281
L112733 33330
L112708 33379
L112684 33403
L112635 33428
L112465 33428
" />
</g>
<g style="fill:#000000; fill-opacity:0.0; 
stroke:#000000; stroke-width:39.3701; stroke-opacity:1; 
stroke-linecap:round; stroke-linejoin:round;">
</g>
<g style="fill:#000000; fill-opacity:0.0; 
stroke:#000000; stroke-width:59.0551; stroke-opacity:1; 
stroke-linecap:round; stroke-linejoin:round;">
<path d="M112757 53332
L112733 53356
L112660 53381
L112611 53381
L112538 53356
L112489 53308
L112465 53259
L112440 53161
L112440 53088
L112465 52991
L112489 52942
L112538 52893
L112611 52869
L112660 52869
L112733 52893
L112757 52918
" />
</g>
<g style="fill:#000000; fill-opacity:0.0; 
stroke:#000000; stroke-width:39.3701; stroke-opacity:1; 
stroke-linecap:round; stroke-linejoin:round;">
</g>
<g style="fill:#000000; fill-opacity:0.0; 
stroke:#000000; stroke-width:59.0551; stroke-opacity:1; 
stroke-linecap:round; stroke-linejoin:round;">
<path d="M112465 73066
L112465 72554
L112587 72554
L112660 72578
L112708 72627
L112733 72676
L112757 72773
L112757 72846
L112733 72944
L112708 72993
L112660 73041
L112587 73066
L112465 73066
" />
</g>
<g style="fill:#000000; fill-opacity:0.0; 
stroke:#000000; stroke-width:39.3701; stroke-opacity:1; 
stroke-linecap:round; stroke-linejoin:round;">
</g>
<g style="fill:#000000; fill-opacity:0.0; 
stroke:#000000; stroke-width:59.0551; stroke-opacity:1; 
stroke-linecap:round; stroke-linejoin:round;">
<path d="M78911 76293
L78911 75703
L79051 75703
L79136 75731
L79192 75787
L79220 75843
L79248 75956
L79248 76040
L79220 76153
L79192 76209
L79136 76265
L79051 76293
L78911 76293
" />
<path d="M79754 76293
L79754 75984
L79726 75928
L79670 75899
L79557 75899
L79501 75928
" />
<path d="M79754 76265
L79698 76293
L79557 76293
L79501 76265
L79473 76209
L79473 76153
L79501 76096
L79557 76068
L79698 76068
L79754 76040
" />
<path d="M79951 75899
L80176 75899
" />
<path d="M80036 75703
L80036 76209
L80064 76265
L80120 76293
L80176 76293
" />
<path d="M80598 76265
L80542 76293
L80429 76293
L80373 76265
L80345 76209
L80345 75984
L80373 75928
L80429 75899
L80542 75899
L80598 75928
L80626 75984
L80626 76040
L80345 76096
" />
<path d="M80879 76237
L80907 76265
L80879 76293
L80851 76265
L80879 76237
L80879 76293
" />
<path d="M80879 75928
L80907 75956
L80879 75984
L80851 75956
L80879 75928
L80879 75984
" />
</g>
<g style="fill:#000000; fill-opacity:0.0; 
stroke:#000000; stroke-width:39.3701; stroke-opacity:1; 
stroke-linecap:round; stroke-linejoin:round;">
</g>
<g style="fill:#000000; fill-opacity:0.0; 
stroke:#000000; stroke-width:59.0551; stroke-opacity:1; 
stroke-linecap:round; stroke-linejoin:round;">
<path d="M69685 76577
L112205 76577
" />
</g>
<g style="fill:#000000; fill-opacity:0.0; 
stroke:#000000; stroke-width:39.3701; stroke-opacity:1; 
stroke-linecap:round; stroke-linejoin:round;">
</g>
<g style="fill:#000000; fill-opacity:0.0; 
stroke:#000000; stroke-width:59.0551; stroke-opacity:1; 
stroke-linecap:round; stroke-linejoin:round;">
<path d="M70249 77395
L70249 76805
" />
<path d="M70587 77395
L70334 77058
" />
<path d="M70587 76805
L70249 77142
" />
<path d="M70840 77395
L70840 77002
" />
<path d="M70840 76805
L70812 76833
L70840 76861
L70868 76833
L70840 76805
L70840 76861
" />
<path d="M71458 77339
L71430 77367
L71346 77395
L71290 77395
L71205 77367
L71149 77311
L71121 77255
L71093 77142
L71093 77058
L71121 76946
L71149 76889
L71205 76833
L71290 76805
L71346 76805
L71430 76833
L71458 76861
" />
<path d="M71965 77395
L71965 77086
L71937 77030
L71880 77002
L71768 77002
L71712 77030
" />
<path d="M71965 77367
L71908 77395
L71768 77395
L71712 77367
L71683 77311
L71683 77255
L71712 77199
L71768 77171
L71908 77171
L71965 77142
" />
<path d="M72499 77395
L72499 76805
" />
<path d="M72499 77367
L72443 77395
L72330 77395
L72274 77367
L72246 77339
L72218 77283
L72218 77114
L72246 77058
L72274 77030
L72330 77002
L72443 77002
L72499 77030
" />
<path d="M73230 77086
L73427 77086
" />
<path d="M73511 77395
L73230 77395
L73230 76805
L73511 76805
" />
<path d="M73764 77339
L73793 77367
L73764 77395
L73736 77367
L73764 77339
L73764 77395
" />
<path d="M74046 77395
L74046 76805
L74186 76805
L74271 76833
L74327 76889
L74355 76946
L74383 77058
L74383 77142
L74355 77255
L74327 77311
L74271 77367
L74186 77395
L74046 77395
" />
<path d="M74636 77339
L74664 77367
L74636 77395
L74608 77367
L74636 77339
L74636 77395
" />
<path d="M74889 77227
L75171 77227
" />
<path d="M74833 77395
L75030 76805
L75227 77395
" />
<path d="M75424 77339
L75452 77367
L75424 77395
L75395 77367
L75424 77339
L75424 77395
" />
<path d="M76605 77395
L76605 76805
" />
<path d="M76661 77171
L76830 77395
" />
<path d="M76830 77002
L76605 77227
" />
<path d="M77083 77395
L77083 77002
" />
<path d="M77083 76805
L77055 76833
L77083 76861
L77111 76833
L77083 76805
L77083 76861
" />
<path d="M77617 77367
L77561 77395
L77448 77395
L77392 77367
L77364 77339
L77336 77283
L77336 77114
L77364 77058
L77392 77030
L77448 77002
L77561 77002
L77617 77030
" />
<path d="M78123 77395
L78123 77086
L78095 77030
L78039 77002
L77926 77002
L77870 77030
" />
<path d="M78123 77367
L78067 77395
L77926 77395
L77870 77367
L77842 77311
L77842 77255
L77870 77199
L77926 77171
L78067 77171
L78123 77142
" />
<path d="M78658 77395
L78658 76805
" />
<path d="M78658 77367
L78601 77395
L78489 77395
L78433 77367
L78404 77339
L78376 77283
L78376 77114
L78404 77058
L78433 77030
L78489 77002
L78601 77002
L78658 77030
" />
<path d="M79389 77002
L79389 77395
" />
<path d="M79389 77058
L79417 77030
L79473 77002
L79557 77002
L79614 77030
L79642 77086
L79642 77395
" />
<path d="M80007 77395
L79951 77367
L79923 77339
L79895 77283
L79895 77114
L79923 77058
L79951 77030
L80007 77002
L80092 77002
L80148 77030
L80176 77058
L80204 77114
L80204 77283
L80176 77339
L80148 77367
L80092 77395
L80007 77395
" />
<path d="M80457 77171
L80907 77171
" />
<path d="M81132 77002
L81273 77395
L81413 77002
" />
<path d="M81892 77367
L81835 77395
L81723 77395
L81667 77367
L81638 77339
L81610 77283
L81610 77114
L81638 77058
L81667 77030
L81723 77002
L81835 77002
L81892 77030
" />
<path d="M82117 77367
L82173 77395
L82285 77395
L82341 77367
L82370 77311
L82370 77283
L82341 77227
L82285 77199
L82201 77199
L82145 77171
L82117 77114
L82117 77086
L82145 77030
L82201 77002
L82285 77002
L82341 77030
" />
<path d="M82623 77171
L83073 77171
" />
<path d="M83269 77002
L83494 77002
" />
<path d="M83354 77395
L83354 76889
L83382 76833
L83438 76805
L83494 76805
" />
<path d="M83776 77395
L83719 77367
L83691 77339
L83663 77283
L83663 77114
L83691 77058
L83719 77030
L83776 77002
L83860 77002
L83916 77030
L83944 77058
L83973 77114
L83973 77283
L83944 77339
L83916 77367
L83860 77395
L83776 77395
" />
<path d="M84479 77002
L84479 77395
" />
<path d="M84226 77002
L84226 77311
L84254 77367
L84310 77395
L84394 77395
L84451 77367
L84479 77339
" />
<path d="M84760 77002
L84760 77395
" />
<path d="M84760 77058
L84788 77030
L84844 77002
L84929 77002
L84985 77030
L85013 77086
L85013 77395
" />
<path d="M85547 77395
L85547 76805
" />
<path d="M85547 77367
L85491 77395
L85379 77395
L85322 77367
L85294 77339
L85266 77283
L85266 77114
L85294 77058
L85322 77030
L85379 77002
L85491 77002
L85547 77030
" />
<path d="M85829 77171
L86278 77171
" />
<path d="M86503 76805
L86897 76805
L86644 77395
" />
<path d="M87375 76805
L87263 76805
L87206 76833
L87178 76861
L87122 76946
L87094 77058
L87094 77283
L87122 77339
L87150 77367
L87206 77395
L87319 77395
L87375 77367
L87403 77339
L87431 77283
L87431 77142
L87403 77086
L87375 77058
L87319 77030
L87206 77030
L87150 77058
L87122 77086
L87094 77142
" />
<path d="M87656 76861
L87685 76833
L87741 76805
L87881 76805
L87938 76833
L87966 76861
L87994 76917
L87994 76974
L87966 77058
L87628 77395
L87994 77395
" />
<path d="M88528 76805
L88247 76805
L88219 77086
L88247 77058
L88303 77030
L88444 77030
L88500 77058
L88528 77086
L88556 77142
L88556 77283
L88528 77339
L88500 77367
L88444 77395
L88303 77395
L88247 77367
L88219 77339
" />
<path d="M88766 76644
L89231 76644
" />
<path d="M89091 76805
L88809 76805
L88781 77086
L88809 77058
L88866 77030
L89006 77030
L89063 77058
L89091 77086
L89119 77142
L89119 77283
L89091 77339
L89063 77367
L89006 77395
L88866 77395
L88809 77367
L88781 77339
" />
<path d="M89231 76644
L89794 76644
" />
<path d="M89316 76805
L89709 76805
L89456 77395
" />
<path d="M90187 77002
L90187 77395
" />
<path d="M89934 77002
L89934 77311
L89962 77367
L90019 77395
L90103 77395
L90159 77367
L90187 77339
" />
<path d="M90469 77395
L90469 76805
" />
<path d="M90469 77030
L90525 77002
L90637 77002
L90694 77030
L90722 77058
L90750 77114
L90750 77283
L90722 77339
L90694 77367
L90637 77395
L90525 77395
L90469 77367
" />
<path d="M91256 77002
L91256 77395
" />
<path d="M91003 77002
L91003 77311
L91031 77367
L91087 77395
L91172 77395
L91228 77367
L91256 77339
" />
<path d="M91537 77002
L91537 77395
" />
<path d="M91537 77058
L91565 77030
L91622 77002
L91706 77002
L91762 77030
L91790 77086
L91790 77395
" />
<path d="M91987 77002
L92212 77002
" />
<path d="M92072 76805
L92072 77311
L92100 77367
L92156 77395
L92212 77395
" />
<path d="M92662 77002
L92662 77395
" />
<path d="M92409 77002
L92409 77311
L92437 77367
L92493 77395
L92578 77395
L92634 77367
L92662 77339
" />
<path d="M93253 77395
L92915 77395
" />
<path d="M93084 77395
L93084 76805
L93028 76889
L92971 76946
L92915 76974
" />
<path d="M93759 77002
L93759 77395
" />
<path d="M93618 76777
L93478 77199
L93843 77199
" />
<path d="M94068 77339
L94096 77367
L94068 77395
L94040 77367
L94068 77339
L94068 77395
" />
<path d="M94462 76805
L94518 76805
L94574 76833
L94602 76861
L94631 76917
L94659 77030
L94659 77171
L94631 77283
L94602 77339
L94574 77367
L94518 77395
L94462 77395
L94406 77367
L94377 77339
L94349 77283
L94321 77171
L94321 77030
L94349 76917
L94377 76861
L94406 76833
L94462 76805
" />
<path d="M95165 77002
L95165 77395
" />
<path d="M95024 76777
L94884 77199
L95249 77199
" />
<path d="M95474 77339
L95502 77367
L95474 77395
L95446 77367
L95474 77339
L95474 77395
" />
<path d="M96065 77395
L95727 77395
" />
<path d="M95896 77395
L95896 76805
L95840 76889
L95784 76946
L95727 76974
" />
</g>
<g style="fill:#000000; fill-opacity:0.0; 
stroke:#000000; stroke-width:39.3701; stroke-opacity:1; 
stroke-linecap:round; stroke-linejoin:round;">
</g>
<g style="fill:#000000; fill-opacity:0.0; 
stroke:#000000; stroke-width:59.0551; stroke-opacity:1; 
stroke-linecap:round; stroke-linejoin:round;">
<path d="M69685 75396
L112205 75396
" />
</g>
<g style="fill:#000000; fill-opacity:0.0; 
stroke:#000000; stroke-width:39.3701; stroke-opacity:1; 
stroke-linecap:round; stroke-linejoin:round;">
</g>
<g style="fill:#000000; fill-opacity:0.0; 
stroke:#000000; stroke-width:118.11; stroke-opacity:1; 
stroke-linecap:round; stroke-linejoin:round;">
<path d="M104099 76293
L103902 76012
" />
<path d="M103761 76293
L103761 75703
L103986 75703
L104042 75731
L104070 75759
L104099 75815
L104099 75899
L104070 75956
L104042 75984
L103986 76012
L103761 76012
" />
<path d="M104577 76265
L104520 76293
L104408 76293
L104352 76265
L104323 76209
L104323 75984
L104352 75928
L104408 75899
L104520 75899
L104577 75928
L104605 75984
L104605 76040
L104323 76096
" />
<path d="M104802 75899
L104942 76293
L105083 75899
" />
<path d="M105308 76237
L105336 76265
L105308 76293
L105280 76265
L105308 76237
L105308 76293
" />
<path d="M105308 75928
L105336 75956
L105308 75984
L105280 75956
L105308 75928
L105308 75984
" />
</g>
<g style="fill:#000000; fill-opacity:0.0; 
stroke:#000000; stroke-width:39.3701; stroke-opacity:1; 
stroke-linecap:round; stroke-linejoin:round;">
</g>
<g style="fill:#000000; fill-opacity:0.0; 
stroke:#000000; stroke-width:59.0551; stroke-opacity:1; 
stroke-linecap:round; stroke-linejoin:round;">
<path d="M70221 76265
L70305 76293
L70446 76293
L70502 76265
L70530 76237
L70559 76181
L70559 76124
L70530 76068
L70502 76040
L70446 76012
L70334 75984
L70277 75956
L70249 75928
L70221 75871
L70221 75815
L70249 75759
L70277 75731
L70334 75703
L70474 75703
L70559 75731
" />
<path d="M70812 76293
L70812 75899
" />
<path d="M70812 75703
L70784 75731
L70812 75759
L70840 75731
L70812 75703
L70812 75759
" />
<path d="M71037 75899
L71346 75899
L71037 76293
L71346 76293
" />
<path d="M71796 76265
L71740 76293
L71627 76293
L71571 76265
L71543 76209
L71543 75984
L71571 75928
L71627 75899
L71740 75899
L71796 75928
L71824 75984
L71824 76040
L71543 76096
" />
<path d="M72077 76237
L72105 76265
L72077 76293
L72049 76265
L72077 76237
L72077 76293
" />
<path d="M72077 75928
L72105 75956
L72077 75984
L72049 75956
L72077 75928
L72077 75984
" />
<path d="M72780 76124
L73061 76124
" />
<path d="M72724 76293
L72921 75703
L73118 76293
" />
<path d="M73568 75899
L73568 76293
" />
<path d="M73427 75674
L73286 76096
L73652 76096
" />
</g>
<g style="fill:#000000; fill-opacity:0.0; 
stroke:#000000; stroke-width:39.3701; stroke-opacity:1; 
stroke-linecap:round; stroke-linejoin:round;">
</g>
<g style="fill:#000000; fill-opacity:0.0; 
stroke:#000000; stroke-width:59.0551; stroke-opacity:1; 
stroke-linecap:round; stroke-linejoin:round;">
<path d="M103714 77395
L103714 76805
" />
<path d="M104248 77395
L104248 76805
" />
<path d="M104248 77367
L104192 77395
L104079 77395
L104023 77367
L103995 77339
L103967 77283
L103967 77114
L103995 77058
L104023 77030
L104079 77002
L104192 77002
L104248 77030
" />
<path d="M104529 77339
L104557 77367
L104529 77395
L104501 77367
L104529 77339
L104529 77395
" />
<path d="M104529 77030
L104557 77058
L104529 77086
L104501 77058
L104529 77030
L104529 77086
" />
<path d="M105570 77395
L105232 77395
" />
<path d="M105401 77395
L105401 76805
L105345 76889
L105289 76946
L105232 76974
" />
<path d="M106245 76777
L105739 77536
" />
<path d="M106751 77395
L106413 77395
" />
<path d="M106582 77395
L106582 76805
L106526 76889
L106470 76946
L106413 76974
" />
</g>
<g style="fill:#000000; fill-opacity:0.0; 
stroke:#000000; stroke-width:39.3701; stroke-opacity:1; 
stroke-linecap:round; stroke-linejoin:round;">
</g>
<g style="fill:#000000; fill-opacity:0.0; 
stroke:#000000; stroke-width:59.0551; stroke-opacity:1; 
stroke-linecap:round; stroke-linejoin:round;">
<path d="M69685 73821
L112205 73821
" />
</g>
<g style="fill:#000000; fill-opacity:0.0; 
stroke:#000000; stroke-width:39.3701; stroke-opacity:1; 
stroke-linecap:round; stroke-linejoin:round;">
</g>
<g style="fill:#000000; fill-opacity:0.0; 
stroke:#000000; stroke-width:157.48; stroke-opacity:1; 
stroke-linecap:round; stroke-linejoin:round;">
<path d="M70360 74099
L70810 74099
" />
<path d="M70486 74886
L70585 74099
" />
<path d="M70974 74886
L71039 74361
" />
<path d="M71072 74099
L71030 74136
L71063 74174
L71105 74136
L71072 74099
L71063 74174
" />
<path d="M71302 74361
L71602 74361
" />
<path d="M71447 74099
L71363 74774
L71391 74849
L71461 74886
L71536 74886
" />
<path d="M71911 74886
L71841 74849
L71813 74774
L71897 74099
" />
<path d="M72516 74849
L72436 74886
L72286 74886
L72216 74849
L72187 74774
L72225 74474
L72272 74399
L72352 74361
L72501 74361
L72572 74399
L72600 74474
L72591 74549
L72206 74624
" />
<path d="M72895 74811
L72928 74849
L72886 74886
L72853 74849
L72895 74811
L72886 74886
" />
<path d="M72947 74399
L72980 74436
L72937 74474
L72905 74436
L72947 74399
L72937 74474
" />
</g>
<g style="fill:#000000; fill-opacity:0.0; 
stroke:#000000; stroke-width:39.3701; stroke-opacity:1; 
stroke-linecap:round; stroke-linejoin:round;">
</g>
<g style="fill:#000000; fill-opacity:0.0; 
stroke:#000000; stroke-width:59.0551; stroke-opacity:1; 
stroke-linecap:round; stroke-linejoin:round;">
<path d="M70446 73070
L70249 73070
" />
<path d="M70249 73380
L70249 72789
L70530 72789
" />
<path d="M70755 73380
L70755 72986
" />
<path d="M70755 72789
L70727 72817
L70755 72845
L70784 72817
L70755 72789
L70755 72845
" />
<path d="M71121 73380
L71065 73352
L71037 73295
L71037 72789
" />
<path d="M71571 73352
L71515 73380
L71402 73380
L71346 73352
L71318 73295
L71318 73070
L71346 73014
L71402 72986
L71515 72986
L71571 73014
L71599 73070
L71599 73127
L71318 73183
" />
<path d="M71852 73323
L71880 73352
L71852 73380
L71824 73352
L71852 73323
L71852 73380
" />
<path d="M71852 73014
L71880 73042
L71852 73070
L71824 73042
L71852 73014
L71852 73070
" />
<path d="M72836 73380
L72836 73070
L72808 73014
L72752 72986
L72640 72986
L72583 73014
" />
<path d="M72836 73352
L72780 73380
L72640 73380
L72583 73352
L72555 73295
L72555 73239
L72583 73183
L72640 73155
L72780 73155
L72836 73127
" />
<path d="M73118 72986
L73118 73380
" />
<path d="M73118 73042
L73146 73014
L73202 72986
L73286 72986
L73343 73014
L73371 73070
L73371 73380
" />
<path d="M73905 73380
L73905 73070
L73877 73014
L73821 72986
L73708 72986
L73652 73014
" />
<path d="M73905 73352
L73849 73380
L73708 73380
L73652 73352
L73624 73295
L73624 73239
L73652 73183
L73708 73155
L73849 73155
L73905 73127
" />
<path d="M74271 73380
L74214 73352
L74186 73295
L74186 72789
" />
<path d="M74580 73380
L74524 73352
L74496 73323
L74467 73267
L74467 73099
L74496 73042
L74524 73014
L74580 72986
L74664 72986
L74721 73014
L74749 73042
L74777 73099
L74777 73267
L74749 73323
L74721 73352
L74664 73380
L74580 73380
" />
<path d="M75283 72986
L75283 73464
L75255 73520
L75227 73548
L75171 73577
L75086 73577
L75030 73548
" />
<path d="M75283 73352
L75227 73380
L75114 73380
L75058 73352
L75030 73323
L75002 73267
L75002 73099
L75030 73042
L75058 73014
L75114 72986
L75227 72986
L75283 73014
" />
<path d="M75424 73436
L75874 73436
" />
<path d="M76014 73380
L76014 72789
" />
<path d="M76014 73014
L76070 72986
L76183 72986
L76239 73014
L76267 73042
L76295 73099
L76295 73267
L76267 73323
L76239 73352
L76183 73380
L76070 73380
L76014 73352
" />
<path d="M76633 73380
L76577 73352
L76548 73323
L76520 73267
L76520 73099
L76548 73042
L76577 73014
L76633 72986
L76717 72986
L76773 73014
L76802 73042
L76830 73099
L76830 73267
L76802 73323
L76773 73352
L76717 73380
L76633 73380
" />
<path d="M77336 73380
L77336 73070
L77308 73014
L77251 72986
L77139 72986
L77083 73014
" />
<path d="M77336 73352
L77280 73380
L77139 73380
L77083 73352
L77055 73295
L77055 73239
L77083 73183
L77139 73155
L77280 73155
L77336 73127
" />
<path d="M77617 73380
L77617 72986
" />
<path d="M77617 73099
L77645 73042
L77673 73014
L77730 72986
L77786 72986
" />
<path d="M78236 73380
L78236 72789
" />
<path d="M78236 73352
L78180 73380
L78067 73380
L78011 73352
L77983 73323
L77955 73267
L77955 73099
L77983 73042
L78011 73014
L78067 72986
L78180 72986
L78236 73014
" />
<path d="M78517 73323
L78545 73352
L78517 73380
L78489 73352
L78517 73323
L78517 73380
" />
<path d="M78798 73380
L78798 72789
" />
<path d="M78854 73155
L79023 73380
" />
<path d="M79023 72986
L78798 73211
" />
<path d="M79276 73380
L79276 72986
" />
<path d="M79276 72789
L79248 72817
L79276 72845
L79304 72817
L79276 72789
L79276 72845
" />
<path d="M79811 73352
L79754 73380
L79642 73380
L79586 73352
L79557 73323
L79529 73267
L79529 73099
L79557 73042
L79586 73014
L79642 72986
L79754 72986
L79811 73014
" />
<path d="M80317 73380
L80317 73070
L80289 73014
L80232 72986
L80120 72986
L80064 73014
" />
<path d="M80317 73352
L80260 73380
L80120 73380
L80064 73352
L80036 73295
L80036 73239
L80064 73183
L80120 73155
L80260 73155
L80317 73127
" />
<path d="M80851 73380
L80851 72789
" />
<path d="M80851 73352
L80795 73380
L80682 73380
L80626 73352
L80598 73323
L80570 73267
L80570 73099
L80598 73042
L80626 73014
L80682 72986
L80795 72986
L80851 73014
" />
<path d="M80992 73436
L81442 73436
" />
<path d="M81582 72986
L81582 73577
" />
<path d="M81582 73014
L81638 72986
L81751 72986
L81807 73014
L81835 73042
L81863 73099
L81863 73267
L81835 73323
L81807 73352
L81751 73380
L81638 73380
L81582 73352
" />
<path d="M82370 73352
L82313 73380
L82201 73380
L82145 73352
L82117 73323
L82088 73267
L82088 73099
L82117 73042
L82145 73014
L82201 72986
L82313 72986
L82370 73014
" />
<path d="M82623 73380
L82623 72789
" />
<path d="M82623 73014
L82679 72986
L82791 72986
L82848 73014
L82876 73042
L82904 73099
L82904 73267
L82876 73323
L82848 73352
L82791 73380
L82679 73380
L82623 73352
" />
</g>
<g style="fill:#000000; fill-opacity:0.0; 
stroke:#000000; stroke-width:39.3701; stroke-opacity:1; 
stroke-linecap:round; stroke-linejoin:round;">
</g>
<g style="fill:#000000; fill-opacity:0.0; 
stroke:#000000; stroke-width:59.0551; stroke-opacity:1; 
stroke-linecap:round; stroke-linejoin:round;">
<path d="M69685 71459
L112205 71459
" />
</g>
<g style="fill:#000000; fill-opacity:0.0; 
stroke:#000000; stroke-width:39.3701; stroke-opacity:1; 
stroke-linecap:round; stroke-linejoin:round;">
</g>
<g style="fill:#000000; fill-opacity:0.0; 
stroke:#000000; stroke-width:59.0551; stroke-opacity:1; 
stroke-linecap:round; stroke-linejoin:round;">
<path d="M70221 72289
L70305 72317
L70446 72317
L70502 72289
L70530 72260
L70559 72204
L70559 72148
L70530 72092
L70502 72064
L70446 72036
L70334 72007
L70277 71979
L70249 71951
L70221 71895
L70221 71839
L70249 71782
L70277 71754
L70334 71726
L70474 71726
L70559 71754
" />
<path d="M70812 72317
L70812 71726
" />
<path d="M71065 72317
L71065 72007
L71037 71951
L70980 71923
L70896 71923
L70840 71951
L70812 71979
" />
<path d="M71571 72289
L71515 72317
L71402 72317
L71346 72289
L71318 72232
L71318 72007
L71346 71951
L71402 71923
L71515 71923
L71571 71951
L71599 72007
L71599 72064
L71318 72120
" />
<path d="M72077 72289
L72021 72317
L71908 72317
L71852 72289
L71824 72232
L71824 72007
L71852 71951
L71908 71923
L72021 71923
L72077 71951
L72105 72007
L72105 72064
L71824 72120
" />
<path d="M72274 71923
L72499 71923
" />
<path d="M72358 71726
L72358 72232
L72386 72289
L72443 72317
L72499 72317
" />
<path d="M72696 72260
L72724 72289
L72696 72317
L72668 72289
L72696 72260
L72696 72317
" />
<path d="M72696 71951
L72724 71979
L72696 72007
L72668 71979
L72696 71951
L72696 72007
" />
</g>
<g style="fill:#000000; fill-opacity:0.0; 
stroke:#000000; stroke-width:39.3701; stroke-opacity:1; 
stroke-linecap:round; stroke-linejoin:round;">
</g>
<g style="fill:#000000; fill-opacity:0.0; 
stroke:#000000; stroke-width:59.0551; stroke-opacity:1; 
stroke-linecap:round; stroke-linejoin:round;">
<path d="M77559 75396
L77559 76577
" />
</g>
<g style="fill:#000000; fill-opacity:0.0; 
stroke:#000000; stroke-width:39.3701; stroke-opacity:1; 
stroke-linecap:round; stroke-linejoin:round;">
</g>
<g style="fill:#000000; fill-opacity:0.0; 
stroke:#000000; stroke-width:59.0551; stroke-opacity:1; 
stroke-linecap:round; stroke-linejoin:round;">
<path d="M102756 75396
L102756 77955
" />
</g>
<g style="fill:#000000; fill-opacity:0.0; 
stroke:#000000; stroke-width:59.0551; stroke-opacity:1; 
stroke-linecap:round; stroke-linejoin:round;">
<path d="M59530 45700
L59530 28200
" />
<path d="M73930 45700
L59530 45700
" />
<path d="M73930 28200
L73930 45700
" />
<path d="M59530 28200
L73930 28200
" />
<path d="M66439 42865
L66420 42884
L66401 42940
L66401 42978
L66420 43034
L66458 43071
L66495 43090
L66570 43109
L66626 43109
L66701 43090
L66739 43071
L66776 43034
L66795 42978
L66795 42940
L66776 42884
L66758 42865
" />
<path d="M66401 42490
L66401 42715
" />
<path d="M66401 42603
L66795 42603
L66739 42640
L66701 42678
L66683 42715
" />
<path d="M66795 42246
L66795 42209
L66776 42171
L66758 42153
L66720 42134
L66645 42115
L66551 42115
L66476 42134
L66439 42153
L66420 42171
L66401 42209
L66401 42246
L66420 42284
L66439 42303
L66476 42321
L66551 42340
L66645 42340
L66720 42321
L66758 42303
L66776 42284
L66795 42246
" />
<path d="M66401 41740
L66401 41965
" />
<path d="M66401 41853
L66795 41853
L66739 41890
L66701 41928
L66683 41965
" />
<path d="M64214 44415
L64195 44434
L64176 44490
L64176 44528
L64195 44584
L64233 44621
L64270 44640
L64345 44659
L64401 44659
L64476 44640
L64514 44621
L64551 44584
L64570 44528
L64570 44490
L64551 44434
L64533 44415
" />
<path d="M64176 44040
L64176 44265
" />
<path d="M64176 44153
L64570 44153
L64514 44190
L64476 44228
L64458 44265
" />
<path d="M64570 43796
L64570 43759
L64551 43721
L64533 43703
L64495 43684
L64420 43665
L64326 43665
L64251 43684
L64214 43703
L64195 43721
L64176 43759
L64176 43796
L64195 43834
L64214 43853
L64251 43871
L64326 43890
L64420 43890
L64495 43871
L64533 43853
L64551 43834
L64570 43796
" />
<path d="M64533 43515
L64551 43496
L64570 43459
L64570 43365
L64551 43328
L64533 43309
L64495 43290
L64458 43290
L64401 43309
L64176 43534
L64176 43290
" />
<path d="M62364 44341
L62345 44360
L62326 44416
L62326 44454
L62345 44510
L62383 44547
L62420 44566
L62495 44585
L62551 44585
L62626 44566
L62664 44547
L62701 44510
L62720 44454
L62720 44416
L62701 44360
L62683 44341
" />
<path d="M62326 43966
L62326 44191
" />
<path d="M62326 44079
L62720 44079
L62664 44116
L62626 44154
L62608 44191
" />
<path d="M62720 43722
L62720 43685
L62701 43647
L62683 43629
L62645 43610
L62570 43591
L62476 43591
L62401 43610
L62364 43629
L62345 43647
L62326 43685
L62326 43722
L62345 43760
L62364 43779
L62401 43797
L62476 43816
L62570 43816
L62645 43797
L62683 43779
L62701 43760
L62720 43722
" />
<path d="M62720 43460
L62720 43216
L62570 43347
L62570 43291
L62551 43254
L62533 43235
L62495 43216
L62401 43216
L62364 43235
L62345 43254
L62326 43291
L62326 43404
L62345 43441
L62364 43460
" />
<path d="M60789 44265
L60770 44284
L60751 44340
L60751 44378
L60770 44434
L60808 44471
L60845 44490
L60920 44509
L60976 44509
L61051 44490
L61089 44471
L61126 44434
L61145 44378
L61145 44340
L61126 44284
L61108 44265
" />
<path d="M60751 43890
L60751 44115
" />
<path d="M60751 44003
L61145 44003
L61089 44040
L61051 44078
L61033 44115
" />
<path d="M61145 43646
L61145 43609
L61126 43571
L61108 43553
L61070 43534
L60995 43515
L60901 43515
L60826 43534
L60789 43553
L60770 43571
L60751 43609
L60751 43646
L60770 43684
L60789 43703
L60826 43721
L60901 43740
L60995 43740
L61070 43721
L61108 43703
L61126 43684
L61145 43646
" />
<path d="M61014 43178
L60751 43178
" />
<path d="M61164 43271
L60883 43365
L60883 43121
" />
<path d="M61428 44906
L61147 44906
L61090 44924
L61053 44962
L61034 45018
L61034 45056
" />
<path d="M61034 44512
L61034 44737
" />
<path d="M61034 44624
L61428 44624
L61372 44662
L61334 44699
L61315 44737
" />
<path d="M61428 44268
L61428 44231
L61409 44193
L61390 44175
L61353 44156
L61278 44137
L61184 44137
L61109 44156
L61072 44175
L61053 44193
L61034 44231
L61034 44268
L61053 44306
L61072 44325
L61109 44343
L61184 44362
L61278 44362
L61353 44343
L61390 44325
L61409 44306
L61428 44268
" />
<path d="M61034 43762
L61034 43987
" />
<path d="M61034 43875
L61428 43875
L61372 43912
L61334 43950
L61315 43987
" />
<path d="M72495 44856
L72214 44856
L72158 44874
L72120 44912
L72101 44968
L72101 45006
" />
<path d="M72101 44462
L72101 44687
" />
<path d="M72101 44574
L72495 44574
L72439 44612
L72401 44649
L72383 44687
" />
<path d="M72495 44218
L72495 44181
L72476 44143
L72458 44125
L72420 44106
L72345 44087
L72251 44087
L72176 44106
L72139 44125
L72120 44143
L72101 44181
L72101 44218
L72120 44256
L72139 44275
L72176 44293
L72251 44312
L72345 44312
L72420 44293
L72458 44275
L72476 44256
L72495 44218
" />
<path d="M72458 43937
L72476 43918
L72495 43881
L72495 43787
L72476 43750
L72458 43731
L72420 43712
L72383 43712
L72326 43731
L72101 43956
L72101 43712
" />
<path d="M68811 39084
L68811 39365
L68829 39421
L68867 39459
L68923 39478
L68961 39478
" />
<path d="M68417 39478
L68642 39478
" />
<path d="M68529 39478
L68529 39084
L68567 39140
L68604 39178
L68642 39196
" />
<path d="M68173 39084
L68136 39084
L68098 39103
L68080 39121
L68061 39159
L68042 39234
L68042 39328
L68061 39403
L68080 39440
L68098 39459
L68136 39478
L68173 39478
L68211 39459
L68230 39440
L68248 39403
L68267 39328
L68267 39234
L68248 39159
L68230 39121
L68211 39103
L68173 39084
" />
<path d="M67911 39084
L67667 39084
L67798 39234
L67742 39234
L67705 39253
L67686 39271
L67667 39309
L67667 39403
L67686 39440
L67705 39459
L67742 39478
L67855 39478
L67892 39459
L67911 39440
" />
<path d="M70736 28142
L70736 28423
L70754 28479
L70792 28517
L70848 28535
L70886 28535
" />
<path d="M70342 28535
L70567 28535
" />
<path d="M70454 28535
L70454 28142
L70492 28198
L70529 28235
L70567 28254
" />
<path d="M70098 28142
L70061 28142
L70023 28160
L70005 28179
L69986 28217
L69967 28292
L69967 28385
L69986 28460
L70005 28498
L70023 28517
L70061 28535
L70098 28535
L70136 28517
L70155 28498
L70173 28460
L70192 28385
L70192 28292
L70173 28217
L70155 28179
L70136 28160
L70098 28142
" />
<path d="M69630 28273
L69630 28535
" />
<path d="M69723 28123
L69817 28404
L69573 28404
" />
<path d="M72961 39059
L72961 39340
L72979 39396
L73017 39434
L73073 39453
L73111 39453
" />
<path d="M72567 39453
L72792 39453
" />
<path d="M72679 39453
L72679 39059
L72717 39115
L72754 39153
L72792 39171
" />
<path d="M72323 39059
L72286 39059
L72248 39078
L72230 39096
L72211 39134
L72192 39209
L72192 39303
L72211 39378
L72230 39415
L72248 39434
L72286 39453
L72323 39453
L72361 39434
L72380 39415
L72398 39378
L72417 39303
L72417 39209
L72398 39134
L72380 39096
L72361 39078
L72323 39059
" />
<path d="M71836 39059
L72023 39059
L72042 39246
L72023 39228
L71986 39209
L71892 39209
L71855 39228
L71836 39246
L71817 39284
L71817 39378
L71836 39415
L71855 39434
L71892 39453
L71986 39453
L72023 39434
L72042 39415
" />
<path d="M61511 37434
L61511 37715
L61529 37771
L61567 37809
L61623 37828
L61661 37828
" />
<path d="M61117 37828
L61342 37828
" />
<path d="M61229 37828
L61229 37434
L61267 37490
L61304 37528
L61342 37546
" />
<path d="M60873 37434
L60836 37434
L60798 37453
L60780 37471
L60761 37509
L60742 37584
L60742 37678
L60761 37753
L60780 37790
L60798 37809
L60836 37828
L60873 37828
L60911 37809
L60930 37790
L60948 37753
L60967 37678
L60967 37584
L60948 37509
L60930 37471
L60911 37453
L60873 37434
" />
<path d="M60405 37434
L60480 37434
L60517 37453
L60536 37471
L60573 37528
L60592 37603
L60592 37753
L60573 37790
L60555 37809
L60517 37828
L60442 37828
L60405 37809
L60386 37790
L60367 37753
L60367 37659
L60386 37621
L60405 37603
L60442 37584
L60517 37584
L60555 37603
L60573 37621
L60592 37659
" />
<path d="M66661 32134
L66661 32415
L66679 32471
L66717 32509
L66773 32528
L66811 32528
" />
<path d="M66267 32528
L66492 32528
" />
<path d="M66379 32528
L66379 32134
L66417 32190
L66454 32228
L66492 32246
" />
<path d="M66023 32134
L65986 32134
L65948 32153
L65930 32171
L65911 32209
L65892 32284
L65892 32378
L65911 32453
L65930 32490
L65948 32509
L65986 32528
L66023 32528
L66061 32509
L66080 32490
L66098 32453
L66117 32378
L66117 32284
L66098 32209
L66080 32171
L66061 32153
L66023 32134
" />
<path d="M65761 32134
L65498 32134
L65667 32528
" />
<path d="M70736 39084
L70736 39365
L70754 39421
L70792 39459
L70848 39478
L70886 39478
" />
<path d="M70342 39478
L70567 39478
" />
<path d="M70454 39478
L70454 39084
L70492 39140
L70529 39178
L70567 39196
" />
<path d="M70098 39084
L70061 39084
L70023 39103
L70005 39121
L69986 39159
L69967 39234
L69967 39328
L69986 39403
L70005 39440
L70023 39459
L70061 39478
L70098 39478
L70136 39459
L70155 39440
L70173 39403
L70192 39328
L70192 39234
L70173 39159
L70155 39121
L70136 39103
L70098 39084
" />
<path d="M69742 39253
L69780 39234
L69798 39215
L69817 39178
L69817 39159
L69798 39121
L69780 39103
L69742 39084
L69667 39084
L69630 39103
L69611 39121
L69592 39159
L69592 39178
L69611 39215
L69630 39234
L69667 39253
L69742 39253
L69780 39271
L69798 39290
L69817 39328
L69817 39403
L69798 39440
L69780 39459
L69742 39478
L69667 39478
L69630 39459
L69611 39440
L69592 39403
L69592 39328
L69611 39290
L69630 39271
L69667 39253
" />
<path d="M70795 31881
L70514 31881
L70458 31899
L70420 31937
L70401 31993
L70401 32031
" />
<path d="M70401 31487
L70401 31712
" />
<path d="M70401 31599
L70795 31599
L70739 31637
L70701 31674
L70683 31712
" />
<path d="M70795 31243
L70795 31206
L70776 31168
L70758 31150
L70720 31131
L70645 31112
L70551 31112
L70476 31131
L70439 31150
L70420 31168
L70401 31206
L70401 31243
L70420 31281
L70439 31300
L70476 31318
L70551 31337
L70645 31337
L70720 31318
L70758 31300
L70776 31281
L70795 31243
" />
<path d="M70401 30925
L70401 30850
L70420 30812
L70439 30793
L70495 30756
L70570 30737
L70720 30737
L70758 30756
L70776 30775
L70795 30812
L70795 30887
L70776 30925
L70758 30943
L70720 30962
L70626 30962
L70589 30943
L70570 30925
L70551 30887
L70551 30812
L70570 30775
L70589 30756
L70626 30737
" />
<path d="M66211 44859
L66211 45140
L66229 45196
L66267 45234
L66323 45253
L66361 45253
" />
<path d="M65817 45253
L66042 45253
" />
<path d="M65929 45253
L65929 44859
L65967 44915
L66004 44953
L66042 44971
" />
<path d="M65442 45253
L65667 45253
" />
<path d="M65555 45253
L65555 44859
L65592 44915
L65630 44953
L65667 44971
" />
<path d="M65198 44859
L65161 44859
L65123 44878
L65105 44896
L65086 44934
L65067 45009
L65067 45103
L65086 45178
L65105 45215
L65123 45234
L65161 45253
L65198 45253
L65236 45234
L65255 45215
L65273 45178
L65292 45103
L65292 45009
L65273 44934
L65255 44896
L65236 44878
L65198 44859
" />
<path d="M64895 28606
L64614 28606
L64558 28624
L64520 28662
L64501 28718
L64501 28756
" />
<path d="M64501 28212
L64501 28437
" />
<path d="M64501 28324
L64895 28324
L64839 28362
L64801 28399
L64783 28437
" />
<path d="M64501 27837
L64501 28062
" />
<path d="M64501 27950
L64895 27950
L64839 27987
L64801 28025
L64783 28062
" />
<path d="M64501 27462
L64501 27687
" />
<path d="M64501 27575
L64895 27575
L64839 27612
L64801 27650
L64783 27687
" />
<path d="M64951 37865
L65139 37996
" />
<path d="M64951 38090
L65345 38090
L65345 37940
L65326 37903
L65308 37884
L65270 37865
L65214 37865
L65176 37884
L65158 37903
L65139 37940
L65139 38090
" />
<path d="M64951 37490
L64951 37715
" />
<path d="M64951 37603
L65345 37603
L65289 37640
L65251 37678
L65233 37715
" />
<path d="M65345 37246
L65345 37209
L65326 37171
L65308 37153
L65270 37134
L65195 37115
L65101 37115
L65026 37134
L64989 37153
L64970 37171
L64951 37209
L64951 37246
L64970 37284
L64989 37303
L65026 37321
L65101 37340
L65195 37340
L65270 37321
L65308 37303
L65326 37284
L65345 37246
" />
<path d="M64951 36740
L64951 36965
" />
<path d="M64951 36853
L65345 36853
L65289 36890
L65251 36928
L65233 36965
" />
<path d="M65451 37915
L65639 38046
" />
<path d="M65451 38140
L65845 38140
L65845 37990
L65826 37953
L65808 37934
L65770 37915
L65714 37915
L65676 37934
L65658 37953
L65639 37990
L65639 38140
" />
<path d="M65451 37540
L65451 37765
" />
<path d="M65451 37653
L65845 37653
L65789 37690
L65751 37728
L65733 37765
" />
<path d="M65845 37296
L65845 37259
L65826 37221
L65808 37203
L65770 37184
L65695 37165
L65601 37165
L65526 37184
L65489 37203
L65470 37221
L65451 37259
L65451 37296
L65470 37334
L65489 37353
L65526 37371
L65601 37390
L65695 37390
L65770 37371
L65808 37353
L65826 37334
L65845 37296
" />
<path d="M65845 37034
L65845 36790
L65695 36921
L65695 36865
L65676 36828
L65658 36809
L65620 36790
L65526 36790
L65489 36809
L65470 36828
L65451 36865
L65451 36978
L65470 37015
L65489 37034
" />
<path d="M66295 43653
L66426 43465
" />
<path d="M66520 43653
L66520 43259
L66370 43259
L66333 43278
L66314 43296
L66295 43334
L66295 43390
L66314 43428
L66333 43446
L66370 43465
L66520 43465
" />
<path d="M65920 43653
L66145 43653
" />
<path d="M66033 43653
L66033 43259
L66070 43315
L66108 43353
L66145 43371
" />
<path d="M65676 43259
L65639 43259
L65601 43278
L65583 43296
L65564 43334
L65545 43409
L65545 43503
L65564 43578
L65583 43615
L65601 43634
L65639 43653
L65676 43653
L65714 43634
L65733 43615
L65751 43578
L65770 43503
L65770 43409
L65751 43334
L65733 43296
L65714 43278
L65676 43259
" />
<path d="M65208 43390
L65208 43653
" />
<path d="M65301 43240
L65395 43521
L65151 43521
" />
<path d="M63576 44390
L63764 44521
" />
<path d="M63576 44615
L63970 44615
L63970 44465
L63951 44428
L63933 44409
L63895 44390
L63839 44390
L63801 44409
L63783 44428
L63764 44465
L63764 44615
" />
<path d="M63576 44015
L63576 44240
" />
<path d="M63576 44128
L63970 44128
L63914 44165
L63876 44203
L63858 44240
" />
<path d="M63970 43771
L63970 43734
L63951 43696
L63933 43678
L63895 43659
L63820 43640
L63726 43640
L63651 43659
L63614 43678
L63595 43696
L63576 43734
L63576 43771
L63595 43809
L63614 43828
L63651 43846
L63726 43865
L63820 43865
L63895 43846
L63933 43828
L63951 43809
L63970 43771
" />
<path d="M63970 43284
L63970 43471
L63783 43490
L63801 43471
L63820 43434
L63820 43340
L63801 43303
L63783 43284
L63745 43265
L63651 43265
L63614 43284
L63595 43303
L63576 43340
L63576 43434
L63595 43471
L63614 43490
" />
<path d="M61526 44332
L61714 44463
" />
<path d="M61526 44557
L61920 44557
L61920 44407
L61901 44369
L61883 44351
L61845 44332
L61789 44332
L61751 44351
L61733 44369
L61714 44407
L61714 44557
" />
<path d="M61526 43957
L61526 44182
" />
<path d="M61526 44070
L61920 44070
L61864 44107
L61826 44145
L61808 44182
" />
<path d="M61920 43713
L61920 43676
L61901 43638
L61883 43620
L61845 43601
L61770 43582
L61676 43582
L61601 43601
L61564 43620
L61545 43638
L61526 43676
L61526 43713
L61545 43751
L61564 43770
L61601 43788
L61676 43807
L61770 43807
L61845 43788
L61883 43770
L61901 43751
L61920 43713
" />
<path d="M61920 43245
L61920 43320
L61901 43357
L61883 43376
L61826 43413
L61751 43432
L61601 43432
L61564 43413
L61545 43395
L61526 43357
L61526 43282
L61545 43245
L61564 43226
L61601 43207
L61695 43207
L61733 43226
L61751 43245
L61770 43282
L61770 43357
L61751 43395
L61733 43413
L61695 43432
" />
<path d="M66401 37215
L66589 37346
" />
<path d="M66401 37440
L66795 37440
L66795 37290
L66776 37253
L66758 37234
L66720 37215
L66664 37215
L66626 37234
L66608 37253
L66589 37290
L66589 37440
" />
<path d="M66401 36840
L66401 37065
" />
<path d="M66401 36953
L66795 36953
L66739 36990
L66701 37028
L66683 37065
" />
<path d="M66795 36596
L66795 36559
L66776 36521
L66758 36503
L66720 36484
L66645 36465
L66551 36465
L66476 36484
L66439 36503
L66420 36521
L66401 36559
L66401 36596
L66420 36634
L66439 36653
L66476 36671
L66551 36690
L66645 36690
L66720 36671
L66758 36653
L66776 36634
L66795 36596
" />
<path d="M66795 36334
L66795 36071
L66401 36240
" />
<path d="M61751 38465
L61939 38596
" />
<path d="M61751 38690
L62145 38690
L62145 38540
L62126 38503
L62108 38484
L62070 38465
L62014 38465
L61976 38484
L61958 38503
L61939 38540
L61939 38690
" />
<path d="M61751 38090
L61751 38315
" />
<path d="M61751 38203
L62145 38203
L62089 38240
L62051 38278
L62033 38315
" />
<path d="M62145 37846
L62145 37809
L62126 37771
L62108 37753
L62070 37734
L61995 37715
L61901 37715
L61826 37734
L61789 37753
L61770 37771
L61751 37809
L61751 37846
L61770 37884
L61789 37903
L61826 37921
L61901 37940
L61995 37940
L62070 37921
L62108 37903
L62126 37884
L62145 37846
" />
<path d="M61976 37490
L61995 37528
L62014 37546
L62051 37565
L62070 37565
L62108 37546
L62126 37528
L62145 37490
L62145 37415
L62126 37378
L62108 37359
L62070 37340
L62051 37340
L62014 37359
L61995 37378
L61976 37415
L61976 37490
L61958 37528
L61939 37546
L61901 37565
L61826 37565
L61789 37546
L61770 37528
L61751 37490
L61751 37415
L61770 37378
L61789 37359
L61826 37340
L61901 37340
L61939 37359
L61958 37378
L61976 37415
" />
<path d="M71526 32465
L71714 32596
" />
<path d="M71526 32690
L71920 32690
L71920 32540
L71901 32503
L71883 32484
L71845 32465
L71789 32465
L71751 32484
L71733 32503
L71714 32540
L71714 32690
" />
<path d="M71526 32090
L71526 32315
" />
<path d="M71526 32203
L71920 32203
L71864 32240
L71826 32278
L71808 32315
" />
<path d="M71920 31846
L71920 31809
L71901 31771
L71883 31753
L71845 31734
L71770 31715
L71676 31715
L71601 31734
L71564 31753
L71545 31771
L71526 31809
L71526 31846
L71545 31884
L71564 31903
L71601 31921
L71676 31940
L71770 31940
L71845 31921
L71883 31903
L71901 31884
L71920 31846
" />
<path d="M71526 31528
L71526 31453
L71545 31415
L71564 31396
L71620 31359
L71695 31340
L71845 31340
L71883 31359
L71901 31378
L71920 31415
L71920 31490
L71901 31528
L71883 31546
L71845 31565
L71751 31565
L71714 31546
L71695 31528
L71676 31490
L71676 31415
L71695 31378
L71714 31359
L71751 31340
" />
<path d="M60426 35390
L60614 35521
" />
<path d="M60426 35615
L60820 35615
L60820 35465
L60801 35428
L60783 35409
L60745 35390
L60689 35390
L60651 35409
L60633 35428
L60614 35465
L60614 35615
" />
<path d="M60426 35015
L60426 35240
" />
<path d="M60426 35128
L60820 35128
L60764 35165
L60726 35203
L60708 35240
" />
<path d="M60426 34640
L60426 34865
" />
<path d="M60426 34753
L60820 34753
L60764 34790
L60726 34828
L60708 34865
" />
<path d="M60820 34396
L60820 34359
L60801 34321
L60783 34303
L60745 34284
L60670 34265
L60576 34265
L60501 34284
L60464 34303
L60445 34321
L60426 34359
L60426 34396
L60445 34434
L60464 34453
L60501 34471
L60576 34490
L60670 34490
L60745 34471
L60783 34453
L60801 34434
L60820 34396
" />
<path d="M67676 29740
L67864 29871
" />
<path d="M67676 29965
L68070 29965
L68070 29815
L68051 29778
L68033 29759
L67995 29740
L67939 29740
L67901 29759
L67883 29778
L67864 29815
L67864 29965
" />
<path d="M67676 29365
L67676 29590
" />
<path d="M67676 29478
L68070 29478
L68014 29515
L67976 29553
L67958 29590
" />
<path d="M67676 28990
L67676 29215
" />
<path d="M67676 29103
L68070 29103
L68014 29140
L67976 29178
L67958 29215
" />
<path d="M67676 28615
L67676 28840
" />
<path d="M67676 28728
L68070 28728
L68014 28765
L67976 28803
L67958 28840
" />
<path d="M61026 31315
L61214 31446
" />
<path d="M61026 31540
L61420 31540
L61420 31390
L61401 31353
L61383 31334
L61345 31315
L61289 31315
L61251 31334
L61233 31353
L61214 31390
L61214 31540
" />
<path d="M61026 30940
L61026 31165
" />
<path d="M61026 31053
L61420 31053
L61364 31090
L61326 31128
L61308 31165
" />
<path d="M61026 30565
L61026 30790
" />
<path d="M61026 30678
L61420 30678
L61364 30715
L61326 30753
L61308 30790
" />
<path d="M61383 30415
L61401 30396
L61420 30359
L61420 30265
L61401 30228
L61383 30209
L61345 30190
L61308 30190
L61251 30209
L61026 30434
L61026 30190
" />
<path d="M70926 32440
L71114 32571
" />
<path d="M70926 32665
L71320 32665
L71320 32515
L71301 32478
L71283 32459
L71245 32440
L71189 32440
L71151 32459
L71133 32478
L71114 32515
L71114 32665
" />
<path d="M70926 32065
L70926 32290
" />
<path d="M70926 32178
L71320 32178
L71264 32215
L71226 32253
L71208 32290
" />
<path d="M70926 31690
L70926 31915
" />
<path d="M70926 31803
L71320 31803
L71264 31840
L71226 31878
L71208 31915
" />
<path d="M71320 31559
L71320 31315
L71170 31446
L71170 31390
L71151 31353
L71133 31334
L71095 31315
L71001 31315
L70964 31334
L70945 31353
L70926 31390
L70926 31503
L70945 31540
L70964 31559
" />
<path d="M64426 32923
L64614 33054
" />
<path d="M64426 33148
L64820 33148
L64820 32998
L64801 32961
L64783 32942
L64745 32923
L64689 32923
L64651 32942
L64633 32961
L64614 32998
L64614 33148
" />
<path d="M64426 32548
L64426 32773
" />
<path d="M64426 32661
L64820 32661
L64764 32698
L64726 32736
L64708 32773
" />
<path d="M64426 32173
L64426 32398
" />
<path d="M64426 32286
L64820 32286
L64764 32323
L64726 32361
L64708 32398
" />
<path d="M64689 31836
L64426 31836
" />
<path d="M64839 31930
L64558 32023
L64558 31780
" />
<path d="M63601 31340
L63789 31471
" />
<path d="M63601 31565
L63995 31565
L63995 31415
L63976 31378
L63958 31359
L63920 31340
L63864 31340
L63826 31359
L63808 31378
L63789 31415
L63789 31565
" />
<path d="M63601 30965
L63601 31190
" />
<path d="M63601 31078
L63995 31078
L63939 31115
L63901 31153
L63883 31190
" />
<path d="M63601 30590
L63601 30815
" />
<path d="M63601 30703
L63995 30703
L63939 30740
L63901 30778
L63883 30815
" />
<path d="M63995 30234
L63995 30421
L63808 30440
L63826 30421
L63845 30384
L63845 30290
L63826 30253
L63808 30234
L63770 30215
L63676 30215
L63639 30234
L63620 30253
L63601 30290
L63601 30384
L63620 30421
L63639 30440
" />
<path d="M68854 35234
L68854 35553
L68836 35590
L68817 35609
L68779 35628
L68704 35628
L68667 35609
L68648 35590
L68629 35553
L68629 35234
" />
<path d="M68236 35628
L68461 35628
" />
<path d="M68348 35628
L68348 35234
L68386 35290
L68423 35328
L68461 35346
" />
<path d="M67992 35234
L67955 35234
L67917 35253
L67898 35271
L67880 35309
L67861 35384
L67861 35478
L67880 35553
L67898 35590
L67917 35609
L67955 35628
L67992 35628
L68030 35609
L68048 35590
L68067 35553
L68086 35478
L68086 35384
L68067 35309
L68048 35271
L68030 35253
L67992 35234
" />
<path d="M67486 35628
L67711 35628
" />
<path d="M67598 35628
L67598 35234
L67636 35290
L67673 35328
L67711 35346
" />
<path d="M62354 35259
L62354 35578
L62336 35615
L62317 35634
L62279 35653
L62204 35653
L62167 35634
L62148 35615
L62129 35578
L62129 35259
" />
<path d="M61736 35653
L61961 35653
" />
<path d="M61848 35653
L61848 35259
L61886 35315
L61923 35353
L61961 35371
" />
<path d="M61492 35259
L61455 35259
L61417 35278
L61398 35296
L61380 35334
L61361 35409
L61361 35503
L61380 35578
L61398 35615
L61417 35634
L61455 35653
L61492 35653
L61530 35634
L61548 35615
L61567 35578
L61586 35503
L61586 35409
L61567 35334
L61548 35296
L61530 35278
L61492 35259
" />
<path d="M61211 35296
L61192 35278
L61155 35259
L61061 35259
L61023 35278
L61005 35296
L60986 35334
L60986 35371
L61005 35428
L61230 35653
L60986 35653
" />
</g>
<g style="fill:#000000; fill-opacity:0.0; 
stroke:#000000; stroke-width:78.7402; stroke-opacity:1; 
stroke-linecap:round; stroke-linejoin:round;">
<path d="M70803 43184
L70421 43184
L70376 43162
L70353 43139
L70331 43094
L70331 43004
L70353 42959
L70376 42937
L70421 42914
L70803 42914
" />
<path d="M70331 42442
L70331 42712
" />
<path d="M70331 42577
L70803 42577
L70736 42622
L70691 42667
L70668 42712
" />
<path d="M70803 42150
L70803 42105
L70781 42060
L70758 42037
L70713 42015
L70623 41992
L70511 41992
L70421 42015
L70376 42037
L70353 42060
L70331 42105
L70331 42150
L70353 42195
L70376 42217
L70421 42240
L70511 42262
L70623 42262
L70713 42240
L70758 42217
L70781 42195
L70803 42150
" />
<path d="M70803 41835
L70803 41542
L70623 41700
L70623 41632
L70601 41587
L70578 41565
L70533 41542
L70421 41542
L70376 41565
L70353 41587
L70331 41632
L70331 41767
L70353 41812
L70376 41835
" />
<path d="M65514 41016
L65514 41398
L65492 41443
L65469 41466
L65424 41488
L65334 41488
L65289 41466
L65267 41443
L65244 41398
L65244 41016
" />
<path d="M64772 41488
L65042 41488
" />
<path d="M64907 41488
L64907 41016
L64952 41083
L64997 41128
L65042 41151
" />
<path d="M64480 41016
L64435 41016
L64390 41038
L64367 41061
L64345 41106
L64322 41196
L64322 41308
L64345 41398
L64367 41443
L64390 41466
L64435 41488
L64480 41488
L64525 41466
L64547 41443
L64570 41398
L64592 41308
L64592 41196
L64570 41106
L64547 41061
L64525 41038
L64480 41016
" />
<path d="M63917 41173
L63917 41488
" />
<path d="M64030 40993
L64142 41331
L63850 41331
" />
<path d="M63739 41016
L63739 41398
L63717 41443
L63694 41466
L63649 41488
L63559 41488
L63514 41466
L63492 41443
L63469 41398
L63469 41016
" />
<path d="M62997 41488
L63267 41488
" />
<path d="M63132 41488
L63132 41016
L63177 41083
L63222 41128
L63267 41151
" />
<path d="M62705 41016
L62660 41016
L62615 41038
L62592 41061
L62570 41106
L62547 41196
L62547 41308
L62570 41398
L62592 41443
L62615 41466
L62660 41488
L62705 41488
L62750 41466
L62772 41443
L62795 41398
L62817 41308
L62817 41196
L62795 41106
L62772 41061
L62750 41038
L62705 41016
" />
<path d="M62120 41016
L62345 41016
L62367 41241
L62345 41218
L62300 41196
L62187 41196
L62142 41218
L62120 41241
L62097 41286
L62097 41398
L62120 41443
L62142 41466
L62187 41488
L62300 41488
L62345 41466
L62367 41443
" />
<path d="M67414 41016
L67414 41398
L67392 41443
L67369 41466
L67324 41488
L67234 41488
L67189 41466
L67167 41443
L67144 41398
L67144 41016
" />
<path d="M66672 41488
L66942 41488
" />
<path d="M66807 41488
L66807 41016
L66852 41083
L66897 41128
L66942 41151
" />
<path d="M66380 41016
L66335 41016
L66290 41038
L66267 41061
L66245 41106
L66222 41196
L66222 41308
L66245 41398
L66267 41443
L66290 41466
L66335 41488
L66380 41488
L66425 41466
L66447 41443
L66470 41398
L66492 41308
L66492 41196
L66470 41106
L66447 41061
L66425 41038
L66380 41016
" />
<path d="M65817 41016
L65907 41016
L65952 41038
L65975 41061
L66020 41128
L66042 41218
L66042 41398
L66020 41443
L65997 41466
L65952 41488
L65862 41488
L65817 41466
L65795 41443
L65772 41398
L65772 41286
L65795 41241
L65817 41218
L65862 41196
L65952 41196
L65997 41218
L66020 41241
L66042 41286
" />
</g>
<g style="fill:#000000; fill-opacity:0.0; 
stroke:#000000; stroke-width:59.0551; stroke-opacity:1; 
stroke-linecap:round; stroke-linejoin:round;">
<path d="M68239 29890
L68220 29909
L68201 29965
L68201 30003
L68220 30059
L68258 30096
L68295 30115
L68370 30134
L68426 30134
L68501 30115
L68539 30096
L68576 30059
L68595 30003
L68595 29965
L68576 29909
L68558 29890
" />
<path d="M68201 29515
L68201 29740
" />
<path d="M68201 29628
L68595 29628
L68539 29665
L68501 29703
L68483 29740
" />
<path d="M68595 29271
L68595 29234
L68576 29196
L68558 29178
L68520 29159
L68445 29140
L68351 29140
L68276 29159
L68239 29178
L68220 29196
L68201 29234
L68201 29271
L68220 29309
L68239 29328
L68276 29346
L68351 29365
L68445 29365
L68520 29346
L68558 29328
L68576 29309
L68595 29271
" />
<path d="M68595 28784
L68595 28971
L68408 28990
L68426 28971
L68445 28934
L68445 28840
L68426 28803
L68408 28784
L68370 28765
L68276 28765
L68239 28784
L68220 28803
L68201 28840
L68201 28934
L68220 28971
L68239 28990
" />
<path d="M71845 35165
L71864 35184
L71920 35203
L71958 35203
L72014 35184
L72051 35146
L72070 35109
L72089 35034
L72089 34978
L72070 34903
L72051 34865
L72014 34828
L71958 34809
L71920 34809
L71864 34828
L71845 34846
" />
<path d="M71470 35203
L71695 35203
" />
<path d="M71583 35203
L71583 34809
L71620 34865
L71658 34903
L71695 34921
" />
<path d="M71226 34809
L71189 34809
L71151 34828
L71133 34846
L71114 34884
L71095 34959
L71095 35053
L71114 35128
L71133 35165
L71151 35184
L71189 35203
L71226 35203
L71264 35184
L71283 35165
L71301 35128
L71320 35053
L71320 34959
L71301 34884
L71283 34846
L71264 34828
L71226 34809
" />
<path d="M70758 34809
L70833 34809
L70870 34828
L70889 34846
L70926 34903
L70945 34978
L70945 35128
L70926 35165
L70908 35184
L70870 35203
L70795 35203
L70758 35184
L70739 35165
L70720 35128
L70720 35034
L70739 34996
L70758 34978
L70795 34959
L70870 34959
L70908 34978
L70926 34996
L70945 35034
" />
<path d="M63620 35715
L63639 35734
L63695 35753
L63733 35753
L63789 35734
L63826 35696
L63845 35659
L63864 35584
L63864 35528
L63845 35453
L63826 35415
L63789 35378
L63733 35359
L63695 35359
L63639 35378
L63620 35396
" />
<path d="M63245 35753
L63470 35753
" />
<path d="M63358 35753
L63358 35359
L63395 35415
L63433 35453
L63470 35471
" />
<path d="M63001 35359
L62964 35359
L62926 35378
L62908 35396
L62889 35434
L62870 35509
L62870 35603
L62889 35678
L62908 35715
L62926 35734
L62964 35753
L63001 35753
L63039 35734
L63058 35715
L63076 35678
L63095 35603
L63095 35509
L63076 35434
L63058 35396
L63039 35378
L63001 35359
" />
<path d="M62739 35359
L62476 35359
L62645 35753
" />
<path d="M62789 29815
L62770 29834
L62751 29890
L62751 29928
L62770 29984
L62808 30021
L62845 30040
L62920 30059
L62976 30059
L63051 30040
L63089 30021
L63126 29984
L63145 29928
L63145 29890
L63126 29834
L63108 29815
" />
<path d="M62751 29440
L62751 29665
" />
<path d="M62751 29553
L63145 29553
L63089 29590
L63051 29628
L63033 29665
" />
<path d="M63145 29196
L63145 29159
L63126 29121
L63108 29103
L63070 29084
L62995 29065
L62901 29065
L62826 29084
L62789 29103
L62770 29121
L62751 29159
L62751 29196
L62770 29234
L62789 29253
L62826 29271
L62901 29290
L62995 29290
L63070 29271
L63108 29253
L63126 29234
L63145 29196
" />
<path d="M62976 28840
L62995 28878
L63014 28896
L63051 28915
L63070 28915
L63108 28896
L63126 28878
L63145 28840
L63145 28765
L63126 28728
L63108 28709
L63070 28690
L63051 28690
L63014 28709
L62995 28728
L62976 28765
L62976 28840
L62958 28878
L62939 28896
L62901 28915
L62826 28915
L62789 28896
L62770 28878
L62751 28840
L62751 28765
L62770 28728
L62789 28709
L62826 28690
L62901 28690
L62939 28709
L62958 28728
L62976 28765
" />
<path d="M65939 37815
L65920 37834
L65901 37890
L65901 37928
L65920 37984
L65958 38021
L65995 38040
L66070 38059
L66126 38059
L66201 38040
L66239 38021
L66276 37984
L66295 37928
L66295 37890
L66276 37834
L66258 37815
" />
<path d="M65901 37440
L65901 37665
" />
<path d="M65901 37553
L66295 37553
L66239 37590
L66201 37628
L66183 37665
" />
<path d="M65901 37065
L65901 37290
" />
<path d="M65901 37178
L66295 37178
L66239 37215
L66201 37253
L66183 37290
" />
<path d="M65901 36690
L65901 36915
" />
<path d="M65901 36803
L66295 36803
L66239 36840
L66201 36878
L66183 36915
" />
<path d="M62156 37065
L62137 37084
L62119 37140
L62119 37178
L62137 37234
L62175 37271
L62212 37290
L62287 37309
L62343 37309
L62418 37290
L62456 37271
L62493 37234
L62512 37178
L62512 37140
L62493 37084
L62475 37065
" />
<path d="M62119 36690
L62119 36915
" />
<path d="M62119 36803
L62512 36803
L62456 36840
L62418 36878
L62400 36915
" />
<path d="M62119 36315
L62119 36540
" />
<path d="M62119 36428
L62512 36428
L62456 36465
L62418 36503
L62400 36540
" />
<path d="M62475 36165
L62493 36146
L62512 36109
L62512 36015
L62493 35978
L62475 35959
L62437 35940
L62400 35940
L62343 35959
L62119 36184
L62119 35940
" />
<path d="M60772 31390
L60753 31409
L60734 31465
L60734 31503
L60753 31559
L60791 31596
L60828 31615
L60903 31634
L60959 31634
L61034 31615
L61072 31596
L61109 31559
L61128 31503
L61128 31465
L61109 31409
L61090 31390
" />
<path d="M60734 31015
L60734 31240
" />
<path d="M60734 31128
L61128 31128
L61072 31165
L61034 31203
L61015 31240
" />
<path d="M60734 30640
L60734 30865
" />
<path d="M60734 30753
L61128 30753
L61072 30790
L61034 30828
L61015 30865
" />
<path d="M61128 30509
L61128 30265
L60978 30396
L60978 30340
L60959 30303
L60940 30284
L60903 30265
L60809 30265
L60772 30284
L60753 30303
L60734 30340
L60734 30453
L60753 30490
L60772 30509
" />
<path d="M65314 31265
L65295 31284
L65276 31340
L65276 31378
L65295 31434
L65333 31471
L65370 31490
L65445 31509
L65501 31509
L65576 31490
L65614 31471
L65651 31434
L65670 31378
L65670 31340
L65651 31284
L65633 31265
" />
<path d="M65276 30890
L65276 31115
" />
<path d="M65276 31003
L65670 31003
L65614 31040
L65576 31078
L65558 31115
" />
<path d="M65276 30515
L65276 30740
" />
<path d="M65276 30628
L65670 30628
L65614 30665
L65576 30703
L65558 30740
" />
<path d="M65539 30178
L65276 30178
" />
<path d="M65689 30271
L65408 30365
L65408 30121
" />
</g>
<g style="fill:#000000; fill-opacity:0.0; 
stroke:#000000; stroke-width:47.2441; stroke-opacity:1; 
stroke-linecap:round; stroke-linejoin:round;">
<path d="M65793 42287
L65793 42562
" />
<path d="M66266 42562
L66266 42287
" />
<path d="M64443 42262
L64443 42537
" />
<path d="M64916 42537
L64916 42262
" />
<path d="M62666 42487
L62666 42212
" />
<path d="M62193 42212
L62193 42487
" />
<path d="M60718 42212
L60718 42487
" />
<path d="M61191 42487
L61191 42212
" />
<path d="M63653 43876
L63653 44923
" />
<path d="M62630 43876
L63653 43876
" />
<path d="M62630 44923
L63653 44923
" />
<path d="M62630 43876
L62630 44923
" />
<path d="M62130 43876
L61606 43876
" />
<path d="M61606 43876
L61606 44400
" />
<path d="M72328 43423
L71281 43423
" />
<path d="M72328 41400
L72328 43423
" />
<path d="M71281 41400
L71281 43423
" />
<path d="M72328 41400
L71281 41400
" />
<path d="M72328 40900
L72328 40376
" />
<path d="M72328 40376
L71805 40376
" />
<path d="M68728 38973
L67681 38973
" />
<path d="M68728 36950
L68728 38973
" />
<path d="M67681 36950
L67681 38973
" />
<path d="M68728 36950
L67681 36950
" />
<path d="M68728 36450
L68728 35926
" />
<path d="M68728 35926
L68205 35926
" />
<path d="M70753 31798
L69706 31798
" />
<path d="M70753 29775
L70753 31798
" />
<path d="M69706 29775
L69706 31798
" />
<path d="M70753 29775
L69706 29775
" />
<path d="M70753 29275
L70753 28751
" />
<path d="M70753 28751
L70230 28751
" />
<path d="M72203 38923
L71156 38923
" />
<path d="M72203 36900
L72203 38923
" />
<path d="M71156 36900
L71156 38923
" />
<path d="M72203 36900
L71156 36900
" />
<path d="M72203 36400
L72203 35876
" />
<path d="M72203 35876
L71680 35876
" />
<path d="M61453 41023
L60406 41023
" />
<path d="M61453 39000
L61453 41023
" />
<path d="M60406 39000
L60406 41023
" />
<path d="M61453 39000
L60406 39000
" />
<path d="M61453 38500
L61453 37976
" />
<path d="M61453 37976
L60930 37976
" />
<path d="M66678 31848
L65631 31848
" />
<path d="M66678 29825
L66678 31848
" />
<path d="M65631 29825
L65631 31848
" />
<path d="M66678 29825
L65631 29825
" />
<path d="M66678 29325
L66678 28801
" />
<path d="M66678 28801
L66155 28801
" />
<path d="M70453 38948
L69406 38948
" />
<path d="M70453 36925
L70453 38948
" />
<path d="M69406 36925
L69406 38948
" />
<path d="M70453 36925
L69406 36925
" />
<path d="M70453 36425
L70453 35901
" />
<path d="M70453 35901
L69930 35901
" />
<path d="M70503 35173
L69456 35173
" />
<path d="M70503 33150
L70503 35173
" />
<path d="M69456 33150
L69456 35173
" />
<path d="M70503 33150
L69456 33150
" />
<path d="M70503 32650
L70503 32126
" />
<path d="M70503 32126
L69980 32126
" />
<path d="M66606 44898
L66606 43851
" />
<path d="M68630 44898
L66606 44898
" />
<path d="M68630 43851
L66606 43851
" />
<path d="M68630 44898
L68630 43851
" />
<path d="M69130 44898
L69653 44898
" />
<path d="M69653 44898
L69653 44375
" />
<path d="M63106 30073
L63106 29026
" />
<path d="M64130 30073
L63106 30073
" />
<path d="M64130 29026
L63106 29026
" />
<path d="M64130 30073
L64130 29026
" />
<path d="M64630 30073
L65153 30073
" />
<path d="M65153 30073
L65153 29550
" />
<path d="M63487 36403
L63487 36796
" />
<path d="M64022 36796
L64022 36403
" />
<path d="M63912 36403
L63912 36796
" />
<path d="M64447 36796
L64447 36403
" />
<path d="M65112 42203
L65112 42596
" />
<path d="M65647 42596
L65647 42203
" />
<path d="M63947 42621
L63947 42228
" />
<path d="M63412 42228
L63412 42621
" />
<path d="M61412 42178
L61412 42571
" />
<path d="M61947 42571
L61947 42178
" />
<path d="M65287 35878
L65287 36271
" />
<path d="M65822 36271
L65822 35878
" />
<path d="M61597 36796
L61597 36403
" />
<path d="M61062 36403
L61062 36796
" />
<path d="M71412 33411
L71412 33804
" />
<path d="M71947 33804
L71947 33411
" />
<path d="M60362 36403
L60362 36796
" />
<path d="M60897 36796
L60897 36403
" />
<path d="M67587 30653
L67587 31046
" />
<path d="M68122 31046
L68122 30653
" />
<path d="M61712 30703
L61712 31096
" />
<path d="M62247 31096
L62247 30703
" />
<path d="M70737 33403
L70737 33796
" />
<path d="M71272 33796
L71272 33403
" />
<path d="M64362 33778
L64362 34171
" />
<path d="M64897 34171
L64897 33778
" />
<path d="M64262 30728
L64262 31121
" />
<path d="M64797 31121
L64797 30728
" />
</g>
<g style="fill:#000000; fill-opacity:0.0; 
stroke:#000000; stroke-width:59.0551; stroke-opacity:1; 
stroke-linecap:round; stroke-linejoin:round;">
<path d="M69053 34503
L69043 34503
" />
<path d="M69053 32870
L69011 32870
" />
<path d="M65056 32870
L65098 32870
" />
<path d="M65056 34503
L65098 34503
" />
<path d="M69053 34503
L69053 32870
" />
<path d="M65056 34503
L65056 32870
" />
<path d="M69043 34503
L69043 35045
" />
<path d="M63888 34565
L63839 34565
" />
<path d="M63888 32734
L63799 32734
" />
<path d="M61821 32734
L61910 32734
" />
<path d="M61821 34565
L61910 34565
" />
<path d="M63888 34565
L63888 32734
" />
<path d="M61821 34565
L61821 32734
" />
<path d="M63839 34565
L63839 35096
" />
</g>
<g style="fill:#000000; fill-opacity:0.0; 
stroke:#000000; stroke-width:196.85; stroke-opacity:1; 
stroke-linecap:round; stroke-linejoin:round;">
<circle cx="69198.7" cy="41863.2" r="114.173" /> 
</g>
<g style="fill:#000000; fill-opacity:0.0; 
stroke:#000000; stroke-width:78.7402; stroke-opacity:1; 
stroke-linecap:round; stroke-linejoin:round;">
<path d="M69279 41569
L69555 41845
" />
<path d="M68055 43180
L68055 41569
" />
<path d="M68055 43180
L69555 43180
" />
<path d="M69555 41845
L69555 43180
" />
<path d="M68055 41569
L69279 41569
" />
</g>
<g style="fill:#000000; fill-opacity:0.0; 
stroke:#000000; stroke-width:196.85; stroke-opacity:1; 
stroke-linecap:round; stroke-linejoin:round;">
<circle cx="64143.2" cy="39056.3" r="114.173" /> 
</g>
<g style="fill:#000000; fill-opacity:0.0; 
stroke:#000000; stroke-width:78.7402; stroke-opacity:1; 
stroke-linecap:round; stroke-linejoin:round;">
<path d="M63849 38975
L64125 38700
" />
<path d="M65460 40200
L63849 40200
" />
<path d="M65460 40200
L65460 38700
" />
<path d="M64125 38700
L65460 38700
" />
<path d="M63849 40200
L63849 38975
" />
</g>
<g style="fill:#000000; fill-opacity:0.0; 
stroke:#000000; stroke-width:196.85; stroke-opacity:1; 
stroke-linecap:round; stroke-linejoin:round;">
<circle cx="62218.2" cy="39081.3" r="114.173" /> 
</g>
<g style="fill:#000000; fill-opacity:0.0; 
stroke:#000000; stroke-width:78.7402; stroke-opacity:1; 
stroke-linecap:round; stroke-linejoin:round;">
<path d="M61924 39000
L62200 38725
" />
<path d="M63535 40225
L61924 40225
" />
<path d="M63535 40225
L63535 38725
" />
<path d="M62200 38725
L63535 38725
" />
<path d="M61924 40225
L61924 39000
" />
</g>
<g style="fill:#000000; fill-opacity:0.0; 
stroke:#000000; stroke-width:196.85; stroke-opacity:1; 
stroke-linecap:round; stroke-linejoin:round;">
<circle cx="66068.2" cy="39081.3" r="114.173" /> 
</g>
<g style="fill:#000000; fill-opacity:0.0; 
stroke:#000000; stroke-width:78.7402; stroke-opacity:1; 
stroke-linecap:round; stroke-linejoin:round;">
<path d="M65774 39000
L66050 38725
" />
<path d="M67385 40225
L65774 40225
" />
<path d="M67385 40225
L67385 38725
" />
<path d="M66050 38725
L67385 38725
" />
<path d="M65774 40225
L65774 39000
" />
</g>
<g style="fill:#000000; fill-opacity:0.0; 
stroke:#000000; stroke-width:47.2441; stroke-opacity:1; 
stroke-linecap:round; stroke-linejoin:round;">
<path d="M68641 31062
L68641 30787
" />
<path d="M68168 30787
L68168 31062
" />
<path d="M70392 35313
L70117 35313
" />
<path d="M70117 35786
L70392 35786
" />
<path d="M62618 36437
L62618 36712
" />
<path d="M63091 36712
L63091 36437
" />
<path d="M62718 30837
L62718 31112
" />
<path d="M63191 31112
L63191 30837
" />
<path d="M64368 36437
L64368 36712
" />
<path d="M64841 36712
L64841 36437
" />
<path d="M62041 36762
L62041 36487
" />
<path d="M61568 36487
L61568 36762
" />
<path d="M61168 30812
L61168 31087
" />
<path d="M61641 31087
L61641 30812
" />
<path d="M64718 30787
L64718 31062
" />
<path d="M65191 31062
L65191 30787
" />
</g> 
</svg>
