<?xml version="1.0" standalone="no"?>
 <!DOCTYPE svg PUBLIC "-//W3C//DTD SVG 1.1//EN" 
 "http://www.w3.org/Graphics/SVG/1.1/DTD/svg11.dtd"> 
<svg xmlns="http://www.w3.org/2000/svg" version="1.1" 
    width="29.7002cm" height="21.0007cm" viewBox="0 0 116930 82680 ">
<title>SVG Picture created as analog_board-B.Fab.svg date 2017/11/25 10:45:21 </title>
  <desc>Picture generated by PCBNEW </desc>
<g style="fill:#000000; fill-opacity:1;stroke:#000000; stroke-opacity:1;
stroke-linecap:round; stroke-linejoin:round; "
 transform="translate(0 0) scale(1 1)">
</g>
<g style="fill:#000000; fill-opacity:0.0; 
stroke:#000000; stroke-width:-0.000393701; stroke-opacity:1; 
stroke-linecap:round; stroke-linejoin:round;">
</g>
<g style="fill:#000000; fill-opacity:0.0; 
stroke:#000000; stroke-width:39.3701; stroke-opacity:1; 
stroke-linecap:round; stroke-linejoin:round;">
</g>
<g style="fill:#000000; fill-opacity:0.0; 
stroke:#000000; stroke-width:59.0551; stroke-opacity:1; 
stroke-linecap:round; stroke-linejoin:round;">
<rect x="69685.9" y="65357.2" width="42519.7" height="12598.4" rx="0" />
</g>
<g style="fill:#000000; fill-opacity:0.0; 
stroke:#000000; stroke-width:39.3701; stroke-opacity:1; 
stroke-linecap:round; stroke-linejoin:round;">
</g>
<g style="fill:#000000; fill-opacity:0.0; 
stroke:#000000; stroke-width:59.0551; stroke-opacity:1; 
stroke-linecap:round; stroke-linejoin:round;">
<rect x="3937.01" y="3937.01" width="109056" height="74806" rx="0" />
</g>
<g style="fill:#000000; fill-opacity:0.0; 
stroke:#000000; stroke-width:39.3701; stroke-opacity:1; 
stroke-linecap:round; stroke-linejoin:round;">
</g>
<g style="fill:#000000; fill-opacity:0.0; 
stroke:#000000; stroke-width:59.0551; stroke-opacity:1; 
stroke-linecap:round; stroke-linejoin:round;">
<rect x="4724.41" y="4724.41" width="107481" height="73231.2" rx="0" />
</g>
<g style="fill:#000000; fill-opacity:0.0; 
stroke:#000000; stroke-width:39.3701; stroke-opacity:1; 
stroke-linecap:round; stroke-linejoin:round;">
</g>
<g style="fill:#000000; fill-opacity:0.0; 
stroke:#000000; stroke-width:59.0551; stroke-opacity:1; 
stroke-linecap:round; stroke-linejoin:round;">
<path d="M23622 4724
L23622 3937
" />
</g>
<g style="fill:#000000; fill-opacity:0.0; 
stroke:#000000; stroke-width:39.3701; stroke-opacity:1; 
stroke-linecap:round; stroke-linejoin:round;">
</g>
<g style="fill:#000000; fill-opacity:0.0; 
stroke:#000000; stroke-width:59.0551; stroke-opacity:1; 
stroke-linecap:round; stroke-linejoin:round;">
<path d="M43307 4724
L43307 3937
" />
</g>
<g style="fill:#000000; fill-opacity:0.0; 
stroke:#000000; stroke-width:39.3701; stroke-opacity:1; 
stroke-linecap:round; stroke-linejoin:round;">
</g>
<g style="fill:#000000; fill-opacity:0.0; 
stroke:#000000; stroke-width:59.0551; stroke-opacity:1; 
stroke-linecap:round; stroke-linejoin:round;">
<path d="M62992 4724
L62992 3937
" />
</g>
<g style="fill:#000000; fill-opacity:0.0; 
stroke:#000000; stroke-width:39.3701; stroke-opacity:1; 
stroke-linecap:round; stroke-linejoin:round;">
</g>
<g style="fill:#000000; fill-opacity:0.0; 
stroke:#000000; stroke-width:59.0551; stroke-opacity:1; 
stroke-linecap:round; stroke-linejoin:round;">
<path d="M82677 4724
L82677 3937
" />
</g>
<g style="fill:#000000; fill-opacity:0.0; 
stroke:#000000; stroke-width:39.3701; stroke-opacity:1; 
stroke-linecap:round; stroke-linejoin:round;">
</g>
<g style="fill:#000000; fill-opacity:0.0; 
stroke:#000000; stroke-width:59.0551; stroke-opacity:1; 
stroke-linecap:round; stroke-linejoin:round;">
<path d="M102362 4724
L102362 3937
" />
</g>
<g style="fill:#000000; fill-opacity:0.0; 
stroke:#000000; stroke-width:39.3701; stroke-opacity:1; 
stroke-linecap:round; stroke-linejoin:round;">
</g>
<g style="fill:#000000; fill-opacity:0.0; 
stroke:#000000; stroke-width:59.0551; stroke-opacity:1; 
stroke-linecap:round; stroke-linejoin:round;">
<path d="M14199 4562
L13906 4562
" />
<path d="M14052 4562
L14052 4050
L14004 4123
L13955 4172
L13906 4196
" />
</g>
<g style="fill:#000000; fill-opacity:0.0; 
stroke:#000000; stroke-width:39.3701; stroke-opacity:1; 
stroke-linecap:round; stroke-linejoin:round;">
</g>
<g style="fill:#000000; fill-opacity:0.0; 
stroke:#000000; stroke-width:59.0551; stroke-opacity:1; 
stroke-linecap:round; stroke-linejoin:round;">
<path d="M33591 4099
L33615 4074
L33664 4050
L33786 4050
L33835 4074
L33859 4099
L33884 4147
L33884 4196
L33859 4269
L33567 4562
L33884 4562
" />
</g>
<g style="fill:#000000; fill-opacity:0.0; 
stroke:#000000; stroke-width:39.3701; stroke-opacity:1; 
stroke-linecap:round; stroke-linejoin:round;">
</g>
<g style="fill:#000000; fill-opacity:0.0; 
stroke:#000000; stroke-width:59.0551; stroke-opacity:1; 
stroke-linecap:round; stroke-linejoin:round;">
<path d="M53252 4050
L53569 4050
L53398 4245
L53471 4245
L53520 4269
L53544 4294
L53569 4342
L53569 4464
L53544 4513
L53520 4537
L53471 4562
L53325 4562
L53276 4537
L53252 4513
" />
</g>
<g style="fill:#000000; fill-opacity:0.0; 
stroke:#000000; stroke-width:39.3701; stroke-opacity:1; 
stroke-linecap:round; stroke-linejoin:round;">
</g>
<g style="fill:#000000; fill-opacity:0.0; 
stroke:#000000; stroke-width:59.0551; stroke-opacity:1; 
stroke-linecap:round; stroke-linejoin:round;">
<path d="M73205 4221
L73205 4562
" />
<path d="M73083 4026
L72961 4391
L73278 4391
" />
</g>
<g style="fill:#000000; fill-opacity:0.0; 
stroke:#000000; stroke-width:39.3701; stroke-opacity:1; 
stroke-linecap:round; stroke-linejoin:round;">
</g>
<g style="fill:#000000; fill-opacity:0.0; 
stroke:#000000; stroke-width:59.0551; stroke-opacity:1; 
stroke-linecap:round; stroke-linejoin:round;">
<path d="M92914 4050
L92671 4050
L92646 4294
L92671 4269
L92719 4245
L92841 4245
L92890 4269
L92914 4294
L92939 4342
L92939 4464
L92914 4513
L92890 4537
L92841 4562
L92719 4562
L92671 4537
L92646 4513
" />
</g>
<g style="fill:#000000; fill-opacity:0.0; 
stroke:#000000; stroke-width:39.3701; stroke-opacity:1; 
stroke-linecap:round; stroke-linejoin:round;">
</g>
<g style="fill:#000000; fill-opacity:0.0; 
stroke:#000000; stroke-width:59.0551; stroke-opacity:1; 
stroke-linecap:round; stroke-linejoin:round;">
<path d="M112575 4050
L112477 4050
L112429 4074
L112404 4099
L112356 4172
L112331 4269
L112331 4464
L112356 4513
L112380 4537
L112429 4562
L112526 4562
L112575 4537
L112599 4513
L112624 4464
L112624 4342
L112599 4294
L112575 4269
L112526 4245
L112429 4245
L112380 4269
L112356 4294
L112331 4342
" />
</g>
<g style="fill:#000000; fill-opacity:0.0; 
stroke:#000000; stroke-width:39.3701; stroke-opacity:1; 
stroke-linecap:round; stroke-linejoin:round;">
</g>
<g style="fill:#000000; fill-opacity:0.0; 
stroke:#000000; stroke-width:59.0551; stroke-opacity:1; 
stroke-linecap:round; stroke-linejoin:round;">
<path d="M23622 77955
L23622 78742
" />
</g>
<g style="fill:#000000; fill-opacity:0.0; 
stroke:#000000; stroke-width:39.3701; stroke-opacity:1; 
stroke-linecap:round; stroke-linejoin:round;">
</g>
<g style="fill:#000000; fill-opacity:0.0; 
stroke:#000000; stroke-width:59.0551; stroke-opacity:1; 
stroke-linecap:round; stroke-linejoin:round;">
<path d="M43307 77955
L43307 78742
" />
</g>
<g style="fill:#000000; fill-opacity:0.0; 
stroke:#000000; stroke-width:39.3701; stroke-opacity:1; 
stroke-linecap:round; stroke-linejoin:round;">
</g>
<g style="fill:#000000; fill-opacity:0.0; 
stroke:#000000; stroke-width:59.0551; stroke-opacity:1; 
stroke-linecap:round; stroke-linejoin:round;">
<path d="M62992 77955
L62992 78742
" />
</g>
<g style="fill:#000000; fill-opacity:0.0; 
stroke:#000000; stroke-width:39.3701; stroke-opacity:1; 
stroke-linecap:round; stroke-linejoin:round;">
</g>
<g style="fill:#000000; fill-opacity:0.0; 
stroke:#000000; stroke-width:59.0551; stroke-opacity:1; 
stroke-linecap:round; stroke-linejoin:round;">
<path d="M82677 77955
L82677 78742
" />
</g>
<g style="fill:#000000; fill-opacity:0.0; 
stroke:#000000; stroke-width:39.3701; stroke-opacity:1; 
stroke-linecap:round; stroke-linejoin:round;">
</g>
<g style="fill:#000000; fill-opacity:0.0; 
stroke:#000000; stroke-width:59.0551; stroke-opacity:1; 
stroke-linecap:round; stroke-linejoin:round;">
<path d="M102362 77955
L102362 78742
" />
</g>
<g style="fill:#000000; fill-opacity:0.0; 
stroke:#000000; stroke-width:39.3701; stroke-opacity:1; 
stroke-linecap:round; stroke-linejoin:round;">
</g>
<g style="fill:#000000; fill-opacity:0.0; 
stroke:#000000; stroke-width:59.0551; stroke-opacity:1; 
stroke-linecap:round; stroke-linejoin:round;">
<path d="M14199 78580
L13906 78580
" />
<path d="M14052 78580
L14052 78069
L14004 78142
L13955 78190
L13906 78215
" />
</g>
<g style="fill:#000000; fill-opacity:0.0; 
stroke:#000000; stroke-width:39.3701; stroke-opacity:1; 
stroke-linecap:round; stroke-linejoin:round;">
</g>
<g style="fill:#000000; fill-opacity:0.0; 
stroke:#000000; stroke-width:59.0551; stroke-opacity:1; 
stroke-linecap:round; stroke-linejoin:round;">
<path d="M33591 78117
L33615 78093
L33664 78069
L33786 78069
L33835 78093
L33859 78117
L33884 78166
L33884 78215
L33859 78288
L33567 78580
L33884 78580
" />
</g>
<g style="fill:#000000; fill-opacity:0.0; 
stroke:#000000; stroke-width:39.3701; stroke-opacity:1; 
stroke-linecap:round; stroke-linejoin:round;">
</g>
<g style="fill:#000000; fill-opacity:0.0; 
stroke:#000000; stroke-width:59.0551; stroke-opacity:1; 
stroke-linecap:round; stroke-linejoin:round;">
<path d="M53252 78069
L53569 78069
L53398 78263
L53471 78263
L53520 78288
L53544 78312
L53569 78361
L53569 78483
L53544 78532
L53520 78556
L53471 78580
L53325 78580
L53276 78556
L53252 78532
" />
</g>
<g style="fill:#000000; fill-opacity:0.0; 
stroke:#000000; stroke-width:39.3701; stroke-opacity:1; 
stroke-linecap:round; stroke-linejoin:round;">
</g>
<g style="fill:#000000; fill-opacity:0.0; 
stroke:#000000; stroke-width:59.0551; stroke-opacity:1; 
stroke-linecap:round; stroke-linejoin:round;">
<path d="M73205 78239
L73205 78580
" />
<path d="M73083 78044
L72961 78410
L73278 78410
" />
</g>
<g style="fill:#000000; fill-opacity:0.0; 
stroke:#000000; stroke-width:39.3701; stroke-opacity:1; 
stroke-linecap:round; stroke-linejoin:round;">
</g>
<g style="fill:#000000; fill-opacity:0.0; 
stroke:#000000; stroke-width:59.0551; stroke-opacity:1; 
stroke-linecap:round; stroke-linejoin:round;">
<path d="M92914 78069
L92671 78069
L92646 78312
L92671 78288
L92719 78263
L92841 78263
L92890 78288
L92914 78312
L92939 78361
L92939 78483
L92914 78532
L92890 78556
L92841 78580
L92719 78580
L92671 78556
L92646 78532
" />
</g>
<g style="fill:#000000; fill-opacity:0.0; 
stroke:#000000; stroke-width:39.3701; stroke-opacity:1; 
stroke-linecap:round; stroke-linejoin:round;">
</g>
<g style="fill:#000000; fill-opacity:0.0; 
stroke:#000000; stroke-width:59.0551; stroke-opacity:1; 
stroke-linecap:round; stroke-linejoin:round;">
<path d="M112575 78069
L112477 78069
L112429 78093
L112404 78117
L112356 78190
L112331 78288
L112331 78483
L112356 78532
L112380 78556
L112429 78580
L112526 78580
L112575 78556
L112599 78532
L112624 78483
L112624 78361
L112599 78312
L112575 78288
L112526 78263
L112429 78263
L112380 78288
L112356 78312
L112331 78361
" />
</g>
<g style="fill:#000000; fill-opacity:0.0; 
stroke:#000000; stroke-width:39.3701; stroke-opacity:1; 
stroke-linecap:round; stroke-linejoin:round;">
</g>
<g style="fill:#000000; fill-opacity:0.0; 
stroke:#000000; stroke-width:59.0551; stroke-opacity:1; 
stroke-linecap:round; stroke-linejoin:round;">
<path d="M3937 23622
L4724 23622
" />
</g>
<g style="fill:#000000; fill-opacity:0.0; 
stroke:#000000; stroke-width:39.3701; stroke-opacity:1; 
stroke-linecap:round; stroke-linejoin:round;">
</g>
<g style="fill:#000000; fill-opacity:0.0; 
stroke:#000000; stroke-width:59.0551; stroke-opacity:1; 
stroke-linecap:round; stroke-linejoin:round;">
<path d="M3937 43307
L4724 43307
" />
</g>
<g style="fill:#000000; fill-opacity:0.0; 
stroke:#000000; stroke-width:39.3701; stroke-opacity:1; 
stroke-linecap:round; stroke-linejoin:round;">
</g>
<g style="fill:#000000; fill-opacity:0.0; 
stroke:#000000; stroke-width:59.0551; stroke-opacity:1; 
stroke-linecap:round; stroke-linejoin:round;">
<path d="M3937 62992
L4724 62992
" />
</g>
<g style="fill:#000000; fill-opacity:0.0; 
stroke:#000000; stroke-width:39.3701; stroke-opacity:1; 
stroke-linecap:round; stroke-linejoin:round;">
</g>
<g style="fill:#000000; fill-opacity:0.0; 
stroke:#000000; stroke-width:59.0551; stroke-opacity:1; 
stroke-linecap:round; stroke-linejoin:round;">
<path d="M4208 13864
L4452 13864
" />
<path d="M4160 14011
L4330 13499
L4501 14011
" />
</g>
<g style="fill:#000000; fill-opacity:0.0; 
stroke:#000000; stroke-width:39.3701; stroke-opacity:1; 
stroke-linecap:round; stroke-linejoin:round;">
</g>
<g style="fill:#000000; fill-opacity:0.0; 
stroke:#000000; stroke-width:59.0551; stroke-opacity:1; 
stroke-linecap:round; stroke-linejoin:round;">
<path d="M4367 33428
L4440 33452
L4464 33476
L4489 33525
L4489 33598
L4464 33647
L4440 33671
L4391 33696
L4196 33696
L4196 33184
L4367 33184
L4416 33208
L4440 33233
L4464 33281
L4464 33330
L4440 33379
L4416 33403
L4367 33428
L4196 33428
" />
</g>
<g style="fill:#000000; fill-opacity:0.0; 
stroke:#000000; stroke-width:39.3701; stroke-opacity:1; 
stroke-linecap:round; stroke-linejoin:round;">
</g>
<g style="fill:#000000; fill-opacity:0.0; 
stroke:#000000; stroke-width:59.0551; stroke-opacity:1; 
stroke-linecap:round; stroke-linejoin:round;">
<path d="M4489 53332
L4464 53356
L4391 53381
L4342 53381
L4269 53356
L4221 53308
L4196 53259
L4172 53161
L4172 53088
L4196 52991
L4221 52942
L4269 52893
L4342 52869
L4391 52869
L4464 52893
L4489 52918
" />
</g>
<g style="fill:#000000; fill-opacity:0.0; 
stroke:#000000; stroke-width:39.3701; stroke-opacity:1; 
stroke-linecap:round; stroke-linejoin:round;">
</g>
<g style="fill:#000000; fill-opacity:0.0; 
stroke:#000000; stroke-width:59.0551; stroke-opacity:1; 
stroke-linecap:round; stroke-linejoin:round;">
<path d="M4196 73066
L4196 72554
L4318 72554
L4391 72578
L4440 72627
L4464 72676
L4489 72773
L4489 72846
L4464 72944
L4440 72993
L4391 73041
L4318 73066
L4196 73066
" />
</g>
<g style="fill:#000000; fill-opacity:0.0; 
stroke:#000000; stroke-width:39.3701; stroke-opacity:1; 
stroke-linecap:round; stroke-linejoin:round;">
</g>
<g style="fill:#000000; fill-opacity:0.0; 
stroke:#000000; stroke-width:59.0551; stroke-opacity:1; 
stroke-linecap:round; stroke-linejoin:round;">
<path d="M112992 23622
L112205 23622
" />
</g>
<g style="fill:#000000; fill-opacity:0.0; 
stroke:#000000; stroke-width:39.3701; stroke-opacity:1; 
stroke-linecap:round; stroke-linejoin:round;">
</g>
<g style="fill:#000000; fill-opacity:0.0; 
stroke:#000000; stroke-width:59.0551; stroke-opacity:1; 
stroke-linecap:round; stroke-linejoin:round;">
<path d="M112992 43307
L112205 43307
" />
</g>
<g style="fill:#000000; fill-opacity:0.0; 
stroke:#000000; stroke-width:39.3701; stroke-opacity:1; 
stroke-linecap:round; stroke-linejoin:round;">
</g>
<g style="fill:#000000; fill-opacity:0.0; 
stroke:#000000; stroke-width:59.0551; stroke-opacity:1; 
stroke-linecap:round; stroke-linejoin:round;">
<path d="M112992 62992
L112205 62992
" />
</g>
<g style="fill:#000000; fill-opacity:0.0; 
stroke:#000000; stroke-width:39.3701; stroke-opacity:1; 
stroke-linecap:round; stroke-linejoin:round;">
</g>
<g style="fill:#000000; fill-opacity:0.0; 
stroke:#000000; stroke-width:59.0551; stroke-opacity:1; 
stroke-linecap:round; stroke-linejoin:round;">
<path d="M112477 13864
L112721 13864
" />
<path d="M112428 14011
L112599 13499
L112769 14011
" />
</g>
<g style="fill:#000000; fill-opacity:0.0; 
stroke:#000000; stroke-width:39.3701; stroke-opacity:1; 
stroke-linecap:round; stroke-linejoin:round;">
</g>
<g style="fill:#000000; fill-opacity:0.0; 
stroke:#000000; stroke-width:59.0551; stroke-opacity:1; 
stroke-linecap:round; stroke-linejoin:round;">
<path d="M112635 33428
L112708 33452
L112733 33476
L112757 33525
L112757 33598
L112733 33647
L112708 33671
L112660 33696
L112465 33696
L112465 33184
L112635 33184
L112684 33208
L112708 33233
L112733 33281
L112733 33330
L112708 33379
L112684 33403
L112635 33428
L112465 33428
" />
</g>
<g style="fill:#000000; fill-opacity:0.0; 
stroke:#000000; stroke-width:39.3701; stroke-opacity:1; 
stroke-linecap:round; stroke-linejoin:round;">
</g>
<g style="fill:#000000; fill-opacity:0.0; 
stroke:#000000; stroke-width:59.0551; stroke-opacity:1; 
stroke-linecap:round; stroke-linejoin:round;">
<path d="M112757 53332
L112733 53356
L112660 53381
L112611 53381
L112538 53356
L112489 53308
L112465 53259
L112440 53161
L112440 53088
L112465 52991
L112489 52942
L112538 52893
L112611 52869
L112660 52869
L112733 52893
L112757 52918
" />
</g>
<g style="fill:#000000; fill-opacity:0.0; 
stroke:#000000; stroke-width:39.3701; stroke-opacity:1; 
stroke-linecap:round; stroke-linejoin:round;">
</g>
<g style="fill:#000000; fill-opacity:0.0; 
stroke:#000000; stroke-width:59.0551; stroke-opacity:1; 
stroke-linecap:round; stroke-linejoin:round;">
<path d="M112465 73066
L112465 72554
L112587 72554
L112660 72578
L112708 72627
L112733 72676
L112757 72773
L112757 72846
L112733 72944
L112708 72993
L112660 73041
L112587 73066
L112465 73066
" />
</g>
<g style="fill:#000000; fill-opacity:0.0; 
stroke:#000000; stroke-width:39.3701; stroke-opacity:1; 
stroke-linecap:round; stroke-linejoin:round;">
</g>
<g style="fill:#000000; fill-opacity:0.0; 
stroke:#000000; stroke-width:59.0551; stroke-opacity:1; 
stroke-linecap:round; stroke-linejoin:round;">
<path d="M78911 76293
L78911 75703
L79051 75703
L79136 75731
L79192 75787
L79220 75843
L79248 75956
L79248 76040
L79220 76153
L79192 76209
L79136 76265
L79051 76293
L78911 76293
" />
<path d="M79754 76293
L79754 75984
L79726 75928
L79670 75899
L79557 75899
L79501 75928
" />
<path d="M79754 76265
L79698 76293
L79557 76293
L79501 76265
L79473 76209
L79473 76153
L79501 76096
L79557 76068
L79698 76068
L79754 76040
" />
<path d="M79951 75899
L80176 75899
" />
<path d="M80036 75703
L80036 76209
L80064 76265
L80120 76293
L80176 76293
" />
<path d="M80598 76265
L80542 76293
L80429 76293
L80373 76265
L80345 76209
L80345 75984
L80373 75928
L80429 75899
L80542 75899
L80598 75928
L80626 75984
L80626 76040
L80345 76096
" />
<path d="M80879 76237
L80907 76265
L80879 76293
L80851 76265
L80879 76237
L80879 76293
" />
<path d="M80879 75928
L80907 75956
L80879 75984
L80851 75956
L80879 75928
L80879 75984
" />
</g>
<g style="fill:#000000; fill-opacity:0.0; 
stroke:#000000; stroke-width:39.3701; stroke-opacity:1; 
stroke-linecap:round; stroke-linejoin:round;">
</g>
<g style="fill:#000000; fill-opacity:0.0; 
stroke:#000000; stroke-width:59.0551; stroke-opacity:1; 
stroke-linecap:round; stroke-linejoin:round;">
<path d="M69685 76577
L112205 76577
" />
</g>
<g style="fill:#000000; fill-opacity:0.0; 
stroke:#000000; stroke-width:39.3701; stroke-opacity:1; 
stroke-linecap:round; stroke-linejoin:round;">
</g>
<g style="fill:#000000; fill-opacity:0.0; 
stroke:#000000; stroke-width:59.0551; stroke-opacity:1; 
stroke-linecap:round; stroke-linejoin:round;">
<path d="M70249 77395
L70249 76805
" />
<path d="M70587 77395
L70334 77058
" />
<path d="M70587 76805
L70249 77142
" />
<path d="M70840 77395
L70840 77002
" />
<path d="M70840 76805
L70812 76833
L70840 76861
L70868 76833
L70840 76805
L70840 76861
" />
<path d="M71458 77339
L71430 77367
L71346 77395
L71290 77395
L71205 77367
L71149 77311
L71121 77255
L71093 77142
L71093 77058
L71121 76946
L71149 76889
L71205 76833
L71290 76805
L71346 76805
L71430 76833
L71458 76861
" />
<path d="M71965 77395
L71965 77086
L71937 77030
L71880 77002
L71768 77002
L71712 77030
" />
<path d="M71965 77367
L71908 77395
L71768 77395
L71712 77367
L71683 77311
L71683 77255
L71712 77199
L71768 77171
L71908 77171
L71965 77142
" />
<path d="M72499 77395
L72499 76805
" />
<path d="M72499 77367
L72443 77395
L72330 77395
L72274 77367
L72246 77339
L72218 77283
L72218 77114
L72246 77058
L72274 77030
L72330 77002
L72443 77002
L72499 77030
" />
<path d="M73230 77086
L73427 77086
" />
<path d="M73511 77395
L73230 77395
L73230 76805
L73511 76805
" />
<path d="M73764 77339
L73793 77367
L73764 77395
L73736 77367
L73764 77339
L73764 77395
" />
<path d="M74046 77395
L74046 76805
L74186 76805
L74271 76833
L74327 76889
L74355 76946
L74383 77058
L74383 77142
L74355 77255
L74327 77311
L74271 77367
L74186 77395
L74046 77395
" />
<path d="M74636 77339
L74664 77367
L74636 77395
L74608 77367
L74636 77339
L74636 77395
" />
<path d="M74889 77227
L75171 77227
" />
<path d="M74833 77395
L75030 76805
L75227 77395
" />
<path d="M75424 77339
L75452 77367
L75424 77395
L75395 77367
L75424 77339
L75424 77395
" />
<path d="M76605 77395
L76605 76805
" />
<path d="M76661 77171
L76830 77395
" />
<path d="M76830 77002
L76605 77227
" />
<path d="M77083 77395
L77083 77002
" />
<path d="M77083 76805
L77055 76833
L77083 76861
L77111 76833
L77083 76805
L77083 76861
" />
<path d="M77617 77367
L77561 77395
L77448 77395
L77392 77367
L77364 77339
L77336 77283
L77336 77114
L77364 77058
L77392 77030
L77448 77002
L77561 77002
L77617 77030
" />
<path d="M78123 77395
L78123 77086
L78095 77030
L78039 77002
L77926 77002
L77870 77030
" />
<path d="M78123 77367
L78067 77395
L77926 77395
L77870 77367
L77842 77311
L77842 77255
L77870 77199
L77926 77171
L78067 77171
L78123 77142
" />
<path d="M78658 77395
L78658 76805
" />
<path d="M78658 77367
L78601 77395
L78489 77395
L78433 77367
L78404 77339
L78376 77283
L78376 77114
L78404 77058
L78433 77030
L78489 77002
L78601 77002
L78658 77030
" />
<path d="M79389 77002
L79389 77395
" />
<path d="M79389 77058
L79417 77030
L79473 77002
L79557 77002
L79614 77030
L79642 77086
L79642 77395
" />
<path d="M80007 77395
L79951 77367
L79923 77339
L79895 77283
L79895 77114
L79923 77058
L79951 77030
L80007 77002
L80092 77002
L80148 77030
L80176 77058
L80204 77114
L80204 77283
L80176 77339
L80148 77367
L80092 77395
L80007 77395
" />
<path d="M80457 77171
L80907 77171
" />
<path d="M81132 77002
L81273 77395
L81413 77002
" />
<path d="M81892 77367
L81835 77395
L81723 77395
L81667 77367
L81638 77339
L81610 77283
L81610 77114
L81638 77058
L81667 77030
L81723 77002
L81835 77002
L81892 77030
" />
<path d="M82117 77367
L82173 77395
L82285 77395
L82341 77367
L82370 77311
L82370 77283
L82341 77227
L82285 77199
L82201 77199
L82145 77171
L82117 77114
L82117 77086
L82145 77030
L82201 77002
L82285 77002
L82341 77030
" />
<path d="M82623 77171
L83073 77171
" />
<path d="M83269 77002
L83494 77002
" />
<path d="M83354 77395
L83354 76889
L83382 76833
L83438 76805
L83494 76805
" />
<path d="M83776 77395
L83719 77367
L83691 77339
L83663 77283
L83663 77114
L83691 77058
L83719 77030
L83776 77002
L83860 77002
L83916 77030
L83944 77058
L83973 77114
L83973 77283
L83944 77339
L83916 77367
L83860 77395
L83776 77395
" />
<path d="M84479 77002
L84479 77395
" />
<path d="M84226 77002
L84226 77311
L84254 77367
L84310 77395
L84394 77395
L84451 77367
L84479 77339
" />
<path d="M84760 77002
L84760 77395
" />
<path d="M84760 77058
L84788 77030
L84844 77002
L84929 77002
L84985 77030
L85013 77086
L85013 77395
" />
<path d="M85547 77395
L85547 76805
" />
<path d="M85547 77367
L85491 77395
L85379 77395
L85322 77367
L85294 77339
L85266 77283
L85266 77114
L85294 77058
L85322 77030
L85379 77002
L85491 77002
L85547 77030
" />
<path d="M85829 77171
L86278 77171
" />
<path d="M86503 76805
L86897 76805
L86644 77395
" />
<path d="M87375 76805
L87263 76805
L87206 76833
L87178 76861
L87122 76946
L87094 77058
L87094 77283
L87122 77339
L87150 77367
L87206 77395
L87319 77395
L87375 77367
L87403 77339
L87431 77283
L87431 77142
L87403 77086
L87375 77058
L87319 77030
L87206 77030
L87150 77058
L87122 77086
L87094 77142
" />
<path d="M87656 76861
L87685 76833
L87741 76805
L87881 76805
L87938 76833
L87966 76861
L87994 76917
L87994 76974
L87966 77058
L87628 77395
L87994 77395
" />
<path d="M88528 76805
L88247 76805
L88219 77086
L88247 77058
L88303 77030
L88444 77030
L88500 77058
L88528 77086
L88556 77142
L88556 77283
L88528 77339
L88500 77367
L88444 77395
L88303 77395
L88247 77367
L88219 77339
" />
<path d="M88766 76644
L89231 76644
" />
<path d="M89091 76805
L88809 76805
L88781 77086
L88809 77058
L88866 77030
L89006 77030
L89063 77058
L89091 77086
L89119 77142
L89119 77283
L89091 77339
L89063 77367
L89006 77395
L88866 77395
L88809 77367
L88781 77339
" />
<path d="M89231 76644
L89794 76644
" />
<path d="M89316 76805
L89709 76805
L89456 77395
" />
<path d="M90187 77002
L90187 77395
" />
<path d="M89934 77002
L89934 77311
L89962 77367
L90019 77395
L90103 77395
L90159 77367
L90187 77339
" />
<path d="M90469 77395
L90469 76805
" />
<path d="M90469 77030
L90525 77002
L90637 77002
L90694 77030
L90722 77058
L90750 77114
L90750 77283
L90722 77339
L90694 77367
L90637 77395
L90525 77395
L90469 77367
" />
<path d="M91256 77002
L91256 77395
" />
<path d="M91003 77002
L91003 77311
L91031 77367
L91087 77395
L91172 77395
L91228 77367
L91256 77339
" />
<path d="M91537 77002
L91537 77395
" />
<path d="M91537 77058
L91565 77030
L91622 77002
L91706 77002
L91762 77030
L91790 77086
L91790 77395
" />
<path d="M91987 77002
L92212 77002
" />
<path d="M92072 76805
L92072 77311
L92100 77367
L92156 77395
L92212 77395
" />
<path d="M92662 77002
L92662 77395
" />
<path d="M92409 77002
L92409 77311
L92437 77367
L92493 77395
L92578 77395
L92634 77367
L92662 77339
" />
<path d="M93253 77395
L92915 77395
" />
<path d="M93084 77395
L93084 76805
L93028 76889
L92971 76946
L92915 76974
" />
<path d="M93759 77002
L93759 77395
" />
<path d="M93618 76777
L93478 77199
L93843 77199
" />
<path d="M94068 77339
L94096 77367
L94068 77395
L94040 77367
L94068 77339
L94068 77395
" />
<path d="M94462 76805
L94518 76805
L94574 76833
L94602 76861
L94631 76917
L94659 77030
L94659 77171
L94631 77283
L94602 77339
L94574 77367
L94518 77395
L94462 77395
L94406 77367
L94377 77339
L94349 77283
L94321 77171
L94321 77030
L94349 76917
L94377 76861
L94406 76833
L94462 76805
" />
<path d="M95165 77002
L95165 77395
" />
<path d="M95024 76777
L94884 77199
L95249 77199
" />
<path d="M95474 77339
L95502 77367
L95474 77395
L95446 77367
L95474 77339
L95474 77395
" />
<path d="M96065 77395
L95727 77395
" />
<path d="M95896 77395
L95896 76805
L95840 76889
L95784 76946
L95727 76974
" />
</g>
<g style="fill:#000000; fill-opacity:0.0; 
stroke:#000000; stroke-width:39.3701; stroke-opacity:1; 
stroke-linecap:round; stroke-linejoin:round;">
</g>
<g style="fill:#000000; fill-opacity:0.0; 
stroke:#000000; stroke-width:59.0551; stroke-opacity:1; 
stroke-linecap:round; stroke-linejoin:round;">
<path d="M69685 75396
L112205 75396
" />
</g>
<g style="fill:#000000; fill-opacity:0.0; 
stroke:#000000; stroke-width:39.3701; stroke-opacity:1; 
stroke-linecap:round; stroke-linejoin:round;">
</g>
<g style="fill:#000000; fill-opacity:0.0; 
stroke:#000000; stroke-width:118.11; stroke-opacity:1; 
stroke-linecap:round; stroke-linejoin:round;">
<path d="M104099 76293
L103902 76012
" />
<path d="M103761 76293
L103761 75703
L103986 75703
L104042 75731
L104070 75759
L104099 75815
L104099 75899
L104070 75956
L104042 75984
L103986 76012
L103761 76012
" />
<path d="M104577 76265
L104520 76293
L104408 76293
L104352 76265
L104323 76209
L104323 75984
L104352 75928
L104408 75899
L104520 75899
L104577 75928
L104605 75984
L104605 76040
L104323 76096
" />
<path d="M104802 75899
L104942 76293
L105083 75899
" />
<path d="M105308 76237
L105336 76265
L105308 76293
L105280 76265
L105308 76237
L105308 76293
" />
<path d="M105308 75928
L105336 75956
L105308 75984
L105280 75956
L105308 75928
L105308 75984
" />
</g>
<g style="fill:#000000; fill-opacity:0.0; 
stroke:#000000; stroke-width:39.3701; stroke-opacity:1; 
stroke-linecap:round; stroke-linejoin:round;">
</g>
<g style="fill:#000000; fill-opacity:0.0; 
stroke:#000000; stroke-width:59.0551; stroke-opacity:1; 
stroke-linecap:round; stroke-linejoin:round;">
<path d="M70221 76265
L70305 76293
L70446 76293
L70502 76265
L70530 76237
L70559 76181
L70559 76124
L70530 76068
L70502 76040
L70446 76012
L70334 75984
L70277 75956
L70249 75928
L70221 75871
L70221 75815
L70249 75759
L70277 75731
L70334 75703
L70474 75703
L70559 75731
" />
<path d="M70812 76293
L70812 75899
" />
<path d="M70812 75703
L70784 75731
L70812 75759
L70840 75731
L70812 75703
L70812 75759
" />
<path d="M71037 75899
L71346 75899
L71037 76293
L71346 76293
" />
<path d="M71796 76265
L71740 76293
L71627 76293
L71571 76265
L71543 76209
L71543 75984
L71571 75928
L71627 75899
L71740 75899
L71796 75928
L71824 75984
L71824 76040
L71543 76096
" />
<path d="M72077 76237
L72105 76265
L72077 76293
L72049 76265
L72077 76237
L72077 76293
" />
<path d="M72077 75928
L72105 75956
L72077 75984
L72049 75956
L72077 75928
L72077 75984
" />
<path d="M72780 76124
L73061 76124
" />
<path d="M72724 76293
L72921 75703
L73118 76293
" />
<path d="M73568 75899
L73568 76293
" />
<path d="M73427 75674
L73286 76096
L73652 76096
" />
</g>
<g style="fill:#000000; fill-opacity:0.0; 
stroke:#000000; stroke-width:39.3701; stroke-opacity:1; 
stroke-linecap:round; stroke-linejoin:round;">
</g>
<g style="fill:#000000; fill-opacity:0.0; 
stroke:#000000; stroke-width:59.0551; stroke-opacity:1; 
stroke-linecap:round; stroke-linejoin:round;">
<path d="M103714 77395
L103714 76805
" />
<path d="M104248 77395
L104248 76805
" />
<path d="M104248 77367
L104192 77395
L104079 77395
L104023 77367
L103995 77339
L103967 77283
L103967 77114
L103995 77058
L104023 77030
L104079 77002
L104192 77002
L104248 77030
" />
<path d="M104529 77339
L104557 77367
L104529 77395
L104501 77367
L104529 77339
L104529 77395
" />
<path d="M104529 77030
L104557 77058
L104529 77086
L104501 77058
L104529 77030
L104529 77086
" />
<path d="M105570 77395
L105232 77395
" />
<path d="M105401 77395
L105401 76805
L105345 76889
L105289 76946
L105232 76974
" />
<path d="M106245 76777
L105739 77536
" />
<path d="M106751 77395
L106413 77395
" />
<path d="M106582 77395
L106582 76805
L106526 76889
L106470 76946
L106413 76974
" />
</g>
<g style="fill:#000000; fill-opacity:0.0; 
stroke:#000000; stroke-width:39.3701; stroke-opacity:1; 
stroke-linecap:round; stroke-linejoin:round;">
</g>
<g style="fill:#000000; fill-opacity:0.0; 
stroke:#000000; stroke-width:59.0551; stroke-opacity:1; 
stroke-linecap:round; stroke-linejoin:round;">
<path d="M69685 73821
L112205 73821
" />
</g>
<g style="fill:#000000; fill-opacity:0.0; 
stroke:#000000; stroke-width:39.3701; stroke-opacity:1; 
stroke-linecap:round; stroke-linejoin:round;">
</g>
<g style="fill:#000000; fill-opacity:0.0; 
stroke:#000000; stroke-width:157.48; stroke-opacity:1; 
stroke-linecap:round; stroke-linejoin:round;">
<path d="M70360 74099
L70810 74099
" />
<path d="M70486 74886
L70585 74099
" />
<path d="M70974 74886
L71039 74361
" />
<path d="M71072 74099
L71030 74136
L71063 74174
L71105 74136
L71072 74099
L71063 74174
" />
<path d="M71302 74361
L71602 74361
" />
<path d="M71447 74099
L71363 74774
L71391 74849
L71461 74886
L71536 74886
" />
<path d="M71911 74886
L71841 74849
L71813 74774
L71897 74099
" />
<path d="M72516 74849
L72436 74886
L72286 74886
L72216 74849
L72187 74774
L72225 74474
L72272 74399
L72352 74361
L72501 74361
L72572 74399
L72600 74474
L72591 74549
L72206 74624
" />
<path d="M72895 74811
L72928 74849
L72886 74886
L72853 74849
L72895 74811
L72886 74886
" />
<path d="M72947 74399
L72980 74436
L72937 74474
L72905 74436
L72947 74399
L72937 74474
" />
</g>
<g style="fill:#000000; fill-opacity:0.0; 
stroke:#000000; stroke-width:39.3701; stroke-opacity:1; 
stroke-linecap:round; stroke-linejoin:round;">
</g>
<g style="fill:#000000; fill-opacity:0.0; 
stroke:#000000; stroke-width:59.0551; stroke-opacity:1; 
stroke-linecap:round; stroke-linejoin:round;">
<path d="M70446 73070
L70249 73070
" />
<path d="M70249 73380
L70249 72789
L70530 72789
" />
<path d="M70755 73380
L70755 72986
" />
<path d="M70755 72789
L70727 72817
L70755 72845
L70784 72817
L70755 72789
L70755 72845
" />
<path d="M71121 73380
L71065 73352
L71037 73295
L71037 72789
" />
<path d="M71571 73352
L71515 73380
L71402 73380
L71346 73352
L71318 73295
L71318 73070
L71346 73014
L71402 72986
L71515 72986
L71571 73014
L71599 73070
L71599 73127
L71318 73183
" />
<path d="M71852 73323
L71880 73352
L71852 73380
L71824 73352
L71852 73323
L71852 73380
" />
<path d="M71852 73014
L71880 73042
L71852 73070
L71824 73042
L71852 73014
L71852 73070
" />
<path d="M72836 73380
L72836 73070
L72808 73014
L72752 72986
L72640 72986
L72583 73014
" />
<path d="M72836 73352
L72780 73380
L72640 73380
L72583 73352
L72555 73295
L72555 73239
L72583 73183
L72640 73155
L72780 73155
L72836 73127
" />
<path d="M73118 72986
L73118 73380
" />
<path d="M73118 73042
L73146 73014
L73202 72986
L73286 72986
L73343 73014
L73371 73070
L73371 73380
" />
<path d="M73905 73380
L73905 73070
L73877 73014
L73821 72986
L73708 72986
L73652 73014
" />
<path d="M73905 73352
L73849 73380
L73708 73380
L73652 73352
L73624 73295
L73624 73239
L73652 73183
L73708 73155
L73849 73155
L73905 73127
" />
<path d="M74271 73380
L74214 73352
L74186 73295
L74186 72789
" />
<path d="M74580 73380
L74524 73352
L74496 73323
L74467 73267
L74467 73099
L74496 73042
L74524 73014
L74580 72986
L74664 72986
L74721 73014
L74749 73042
L74777 73099
L74777 73267
L74749 73323
L74721 73352
L74664 73380
L74580 73380
" />
<path d="M75283 72986
L75283 73464
L75255 73520
L75227 73548
L75171 73577
L75086 73577
L75030 73548
" />
<path d="M75283 73352
L75227 73380
L75114 73380
L75058 73352
L75030 73323
L75002 73267
L75002 73099
L75030 73042
L75058 73014
L75114 72986
L75227 72986
L75283 73014
" />
<path d="M75424 73436
L75874 73436
" />
<path d="M76014 73380
L76014 72789
" />
<path d="M76014 73014
L76070 72986
L76183 72986
L76239 73014
L76267 73042
L76295 73099
L76295 73267
L76267 73323
L76239 73352
L76183 73380
L76070 73380
L76014 73352
" />
<path d="M76633 73380
L76577 73352
L76548 73323
L76520 73267
L76520 73099
L76548 73042
L76577 73014
L76633 72986
L76717 72986
L76773 73014
L76802 73042
L76830 73099
L76830 73267
L76802 73323
L76773 73352
L76717 73380
L76633 73380
" />
<path d="M77336 73380
L77336 73070
L77308 73014
L77251 72986
L77139 72986
L77083 73014
" />
<path d="M77336 73352
L77280 73380
L77139 73380
L77083 73352
L77055 73295
L77055 73239
L77083 73183
L77139 73155
L77280 73155
L77336 73127
" />
<path d="M77617 73380
L77617 72986
" />
<path d="M77617 73099
L77645 73042
L77673 73014
L77730 72986
L77786 72986
" />
<path d="M78236 73380
L78236 72789
" />
<path d="M78236 73352
L78180 73380
L78067 73380
L78011 73352
L77983 73323
L77955 73267
L77955 73099
L77983 73042
L78011 73014
L78067 72986
L78180 72986
L78236 73014
" />
<path d="M78517 73323
L78545 73352
L78517 73380
L78489 73352
L78517 73323
L78517 73380
" />
<path d="M78798 73380
L78798 72789
" />
<path d="M78854 73155
L79023 73380
" />
<path d="M79023 72986
L78798 73211
" />
<path d="M79276 73380
L79276 72986
" />
<path d="M79276 72789
L79248 72817
L79276 72845
L79304 72817
L79276 72789
L79276 72845
" />
<path d="M79811 73352
L79754 73380
L79642 73380
L79586 73352
L79557 73323
L79529 73267
L79529 73099
L79557 73042
L79586 73014
L79642 72986
L79754 72986
L79811 73014
" />
<path d="M80317 73380
L80317 73070
L80289 73014
L80232 72986
L80120 72986
L80064 73014
" />
<path d="M80317 73352
L80260 73380
L80120 73380
L80064 73352
L80036 73295
L80036 73239
L80064 73183
L80120 73155
L80260 73155
L80317 73127
" />
<path d="M80851 73380
L80851 72789
" />
<path d="M80851 73352
L80795 73380
L80682 73380
L80626 73352
L80598 73323
L80570 73267
L80570 73099
L80598 73042
L80626 73014
L80682 72986
L80795 72986
L80851 73014
" />
<path d="M80992 73436
L81442 73436
" />
<path d="M81582 72986
L81582 73577
" />
<path d="M81582 73014
L81638 72986
L81751 72986
L81807 73014
L81835 73042
L81863 73099
L81863 73267
L81835 73323
L81807 73352
L81751 73380
L81638 73380
L81582 73352
" />
<path d="M82370 73352
L82313 73380
L82201 73380
L82145 73352
L82117 73323
L82088 73267
L82088 73099
L82117 73042
L82145 73014
L82201 72986
L82313 72986
L82370 73014
" />
<path d="M82623 73380
L82623 72789
" />
<path d="M82623 73014
L82679 72986
L82791 72986
L82848 73014
L82876 73042
L82904 73099
L82904 73267
L82876 73323
L82848 73352
L82791 73380
L82679 73380
L82623 73352
" />
</g>
<g style="fill:#000000; fill-opacity:0.0; 
stroke:#000000; stroke-width:39.3701; stroke-opacity:1; 
stroke-linecap:round; stroke-linejoin:round;">
</g>
<g style="fill:#000000; fill-opacity:0.0; 
stroke:#000000; stroke-width:59.0551; stroke-opacity:1; 
stroke-linecap:round; stroke-linejoin:round;">
<path d="M69685 71459
L112205 71459
" />
</g>
<g style="fill:#000000; fill-opacity:0.0; 
stroke:#000000; stroke-width:39.3701; stroke-opacity:1; 
stroke-linecap:round; stroke-linejoin:round;">
</g>
<g style="fill:#000000; fill-opacity:0.0; 
stroke:#000000; stroke-width:59.0551; stroke-opacity:1; 
stroke-linecap:round; stroke-linejoin:round;">
<path d="M70221 72289
L70305 72317
L70446 72317
L70502 72289
L70530 72260
L70559 72204
L70559 72148
L70530 72092
L70502 72064
L70446 72036
L70334 72007
L70277 71979
L70249 71951
L70221 71895
L70221 71839
L70249 71782
L70277 71754
L70334 71726
L70474 71726
L70559 71754
" />
<path d="M70812 72317
L70812 71726
" />
<path d="M71065 72317
L71065 72007
L71037 71951
L70980 71923
L70896 71923
L70840 71951
L70812 71979
" />
<path d="M71571 72289
L71515 72317
L71402 72317
L71346 72289
L71318 72232
L71318 72007
L71346 71951
L71402 71923
L71515 71923
L71571 71951
L71599 72007
L71599 72064
L71318 72120
" />
<path d="M72077 72289
L72021 72317
L71908 72317
L71852 72289
L71824 72232
L71824 72007
L71852 71951
L71908 71923
L72021 71923
L72077 71951
L72105 72007
L72105 72064
L71824 72120
" />
<path d="M72274 71923
L72499 71923
" />
<path d="M72358 71726
L72358 72232
L72386 72289
L72443 72317
L72499 72317
" />
<path d="M72696 72260
L72724 72289
L72696 72317
L72668 72289
L72696 72260
L72696 72317
" />
<path d="M72696 71951
L72724 71979
L72696 72007
L72668 71979
L72696 71951
L72696 72007
" />
</g>
<g style="fill:#000000; fill-opacity:0.0; 
stroke:#000000; stroke-width:39.3701; stroke-opacity:1; 
stroke-linecap:round; stroke-linejoin:round;">
</g>
<g style="fill:#000000; fill-opacity:0.0; 
stroke:#000000; stroke-width:59.0551; stroke-opacity:1; 
stroke-linecap:round; stroke-linejoin:round;">
<path d="M77559 75396
L77559 76577
" />
</g>
<g style="fill:#000000; fill-opacity:0.0; 
stroke:#000000; stroke-width:39.3701; stroke-opacity:1; 
stroke-linecap:round; stroke-linejoin:round;">
</g>
<g style="fill:#000000; fill-opacity:0.0; 
stroke:#000000; stroke-width:59.0551; stroke-opacity:1; 
stroke-linecap:round; stroke-linejoin:round;">
<path d="M102756 75396
L102756 77955
" />
</g>
<g style="fill:#000000; fill-opacity:0.0; 
stroke:#000000; stroke-width:59.0551; stroke-opacity:1; 
stroke-linecap:round; stroke-linejoin:round;">
<path d="M59530 45700
L59530 28200
" />
<path d="M73930 45700
L59530 45700
" />
<path d="M73930 28200
L73930 45700
" />
<path d="M59530 28200
L73930 28200
" />
<path d="M72145 40488
L71920 40488
" />
<path d="M72033 40488
L72033 40094
L71995 40150
L71958 40188
L71920 40207
" />
<path d="M72314 40488
L72314 40094
" />
<path d="M72539 40488
L72370 40263
" />
<path d="M72539 40094
L72314 40319
" />
</g>
<g style="fill:#000000; fill-opacity:0.0; 
stroke:#000000; stroke-width:29.5276; stroke-opacity:1; 
stroke-linecap:round; stroke-linejoin:round;">
<path d="M72053 39771
L72001 39696
" />
<path d="M71963 39771
L71963 39613
L72023 39613
L72038 39621
L72046 39628
L72053 39643
L72053 39666
L72046 39681
L72038 39688
L72023 39696
L71963 39696
" />
<path d="M72203 39771
L72113 39771
" />
<path d="M72158 39771
L72158 39613
L72143 39636
L72128 39651
L72113 39658
" />
<path d="M72301 39613
L72316 39613
L72331 39621
L72338 39628
L72346 39643
L72353 39673
L72353 39711
L72346 39741
L72338 39756
L72331 39763
L72316 39771
L72301 39771
L72286 39763
L72278 39756
L72271 39741
L72263 39711
L72263 39673
L72271 39643
L72278 39628
L72286 39621
L72301 39613
" />
<path d="M72413 39628
L72421 39621
L72436 39613
L72473 39613
L72488 39621
L72496 39628
L72503 39643
L72503 39658
L72496 39681
L72406 39771
L72503 39771
" />
</g>
<g style="fill:#000000; fill-opacity:0.0; 
stroke:#000000; stroke-width:59.0551; stroke-opacity:1; 
stroke-linecap:round; stroke-linejoin:round;">
<path d="M67049 42840
L66824 42840
" />
<path d="M66936 42840
L66936 42447
L66899 42503
L66861 42540
L66824 42559
" />
<path d="M67292 42447
L67330 42447
L67367 42465
L67386 42484
L67405 42521
L67424 42596
L67424 42690
L67405 42765
L67386 42803
L67367 42821
L67330 42840
L67292 42840
L67255 42821
L67236 42803
L67217 42765
L67199 42690
L67199 42596
L67217 42521
L67236 42484
L67255 42465
L67292 42447
" />
<path d="M67761 42578
L67761 42840
" />
<path d="M67592 42578
L67592 42784
L67611 42821
L67649 42840
L67705 42840
L67742 42821
L67761 42803
" />
<path d="M68080 42634
L67948 42634
" />
<path d="M67948 42840
L67948 42447
L68136 42447
" />
<path d="M68792 42840
L68567 42840
" />
<path d="M68680 42840
L68680 42447
L68642 42503
L68605 42540
L68567 42559
" />
<path d="M69036 42447
L69073 42447
L69111 42465
L69130 42484
L69148 42521
L69167 42596
L69167 42690
L69148 42765
L69130 42803
L69111 42821
L69073 42840
L69036 42840
L68998 42821
L68980 42803
L68961 42765
L68942 42690
L68942 42596
L68961 42521
L68980 42484
L68998 42465
L69036 42447
" />
<path d="M69280 42447
L69411 42840
L69542 42447
" />
<path d="M69917 42447
L70142 42447
" />
<path d="M70029 42840
L70029 42447
" />
<path d="M70442 42840
L70442 42634
L70423 42596
L70386 42578
L70311 42578
L70273 42596
" />
<path d="M70442 42821
L70404 42840
L70311 42840
L70273 42821
L70254 42784
L70254 42746
L70273 42709
L70311 42690
L70404 42690
L70442 42671
" />
<path d="M70629 42578
L70629 42840
" />
<path d="M70629 42615
L70648 42596
L70686 42578
L70742 42578
L70779 42596
L70798 42634
L70798 42840
" />
<path d="M70929 42578
L71079 42578
" />
<path d="M70986 42447
L70986 42784
L71004 42821
L71042 42840
L71079 42840
" />
<path d="M71379 42840
L71379 42634
L71361 42596
L71323 42578
L71248 42578
L71211 42596
" />
<path d="M71379 42821
L71342 42840
L71248 42840
L71211 42821
L71192 42784
L71192 42746
L71211 42709
L71248 42690
L71342 42690
L71379 42671
" />
<path d="M71623 42840
L71586 42821
L71567 42784
L71567 42447
" />
<path d="M71942 42578
L71942 42840
" />
<path d="M71773 42578
L71773 42784
L71792 42821
L71829 42840
L71885 42840
L71923 42821
L71942 42803
" />
<path d="M72129 42840
L72129 42578
" />
<path d="M72129 42615
L72148 42596
L72185 42578
L72242 42578
L72279 42596
L72298 42634
L72298 42840
" />
<path d="M72298 42634
L72317 42596
L72354 42578
L72410 42578
L72448 42596
L72467 42634
L72467 42840
" />
<path d="M69214 44279
L69195 44298
L69139 44317
L69101 44317
L69045 44298
L69008 44260
L68989 44223
L68970 44148
L68970 44092
L68989 44017
L69008 43979
L69045 43942
L69101 43923
L69139 43923
L69195 43942
L69214 43960
" />
<path d="M69589 44317
L69364 44317
" />
<path d="M69476 44317
L69476 43923
L69439 43979
L69401 44017
L69364 44035
" />
<path d="M69833 43923
L69870 43923
L69908 43942
L69926 43960
L69945 43998
L69964 44073
L69964 44167
L69945 44242
L69926 44279
L69908 44298
L69870 44317
L69833 44317
L69795 44298
L69776 44279
L69758 44242
L69739 44167
L69739 44073
L69758 43998
L69776 43960
L69795 43942
L69833 43923
" />
<path d="M70151 44317
L70226 44317
L70264 44298
L70283 44279
L70320 44223
L70339 44148
L70339 43998
L70320 43960
L70301 43942
L70264 43923
L70189 43923
L70151 43942
L70133 43960
L70114 43998
L70114 44092
L70133 44129
L70151 44148
L70189 44167
L70264 44167
L70301 44148
L70320 44129
L70339 44092
" />
<path d="M64299 42840
L64074 42840
" />
<path d="M64186 42840
L64186 42447
L64149 42503
L64111 42540
L64074 42559
" />
<path d="M64542 42447
L64580 42447
L64617 42465
L64636 42484
L64655 42521
L64674 42596
L64674 42690
L64655 42765
L64636 42803
L64617 42821
L64580 42840
L64542 42840
L64505 42821
L64486 42803
L64467 42765
L64449 42690
L64449 42596
L64467 42521
L64486 42484
L64505 42465
L64542 42447
" />
<path d="M65011 42578
L65011 42840
" />
<path d="M64842 42578
L64842 42784
L64861 42821
L64899 42840
L64955 42840
L64992 42821
L65011 42803
" />
<path d="M65330 42634
L65198 42634
" />
<path d="M65198 42840
L65198 42447
L65386 42447
" />
<path d="M66042 42840
L65817 42840
" />
<path d="M65930 42840
L65930 42447
L65892 42503
L65855 42540
L65817 42559
" />
<path d="M66286 42447
L66323 42447
L66361 42465
L66380 42484
L66398 42521
L66417 42596
L66417 42690
L66398 42765
L66380 42803
L66361 42821
L66323 42840
L66286 42840
L66248 42821
L66230 42803
L66211 42765
L66192 42690
L66192 42596
L66211 42521
L66230 42484
L66248 42465
L66286 42447
" />
<path d="M66530 42447
L66661 42840
L66792 42447
" />
<path d="M67167 42447
L67392 42447
" />
<path d="M67279 42840
L67279 42447
" />
<path d="M67692 42840
L67692 42634
L67673 42596
L67636 42578
L67561 42578
L67523 42596
" />
<path d="M67692 42821
L67654 42840
L67561 42840
L67523 42821
L67504 42784
L67504 42746
L67523 42709
L67561 42690
L67654 42690
L67692 42671
" />
<path d="M67879 42578
L67879 42840
" />
<path d="M67879 42615
L67898 42596
L67936 42578
L67992 42578
L68029 42596
L68048 42634
L68048 42840
" />
<path d="M68179 42578
L68329 42578
" />
<path d="M68236 42447
L68236 42784
L68254 42821
L68292 42840
L68329 42840
" />
<path d="M68629 42840
L68629 42634
L68611 42596
L68573 42578
L68498 42578
L68461 42596
" />
<path d="M68629 42821
L68592 42840
L68498 42840
L68461 42821
L68442 42784
L68442 42746
L68461 42709
L68498 42690
L68592 42690
L68629 42671
" />
<path d="M68873 42840
L68836 42821
L68817 42784
L68817 42447
" />
<path d="M69192 42578
L69192 42840
" />
<path d="M69023 42578
L69023 42784
L69042 42821
L69079 42840
L69135 42840
L69173 42821
L69192 42803
" />
<path d="M69379 42840
L69379 42578
" />
<path d="M69379 42615
L69398 42596
L69435 42578
L69492 42578
L69529 42596
L69548 42634
L69548 42840
" />
<path d="M69548 42634
L69567 42596
L69604 42578
L69660 42578
L69698 42596
L69717 42634
L69717 42840
" />
<path d="M66464 44279
L66445 44298
L66389 44317
L66351 44317
L66295 44298
L66258 44260
L66239 44223
L66220 44148
L66220 44092
L66239 44017
L66258 43979
L66295 43942
L66351 43923
L66389 43923
L66445 43942
L66464 43960
" />
<path d="M66839 44317
L66614 44317
" />
<path d="M66726 44317
L66726 43923
L66689 43979
L66651 44017
L66614 44035
" />
<path d="M67214 44317
L66989 44317
" />
<path d="M67101 44317
L67101 43923
L67064 43979
L67026 44017
L66989 44035
" />
<path d="M67458 43923
L67495 43923
L67533 43942
L67551 43960
L67570 43998
L67589 44073
L67589 44167
L67570 44242
L67551 44279
L67533 44298
L67495 44317
L67458 44317
L67420 44298
L67401 44279
L67383 44242
L67364 44167
L67364 44073
L67383 43998
L67401 43960
L67420 43942
L67458 43923
" />
<path d="M68142 44937
L68199 44956
L68217 44974
L68236 45012
L68236 45068
L68217 45106
L68199 45124
L68161 45143
L68011 45143
L68011 44749
L68142 44749
L68180 44768
L68199 44787
L68217 44824
L68217 44862
L68199 44899
L68180 44918
L68142 44937
L68011 44937
" />
<path d="M68592 45143
L68405 45143
L68405 44749
" />
<path d="M68723 45143
L68723 44749
L68855 45031
L68986 44749
L68986 45143
" />
<path d="M69380 45143
L69155 45143
" />
<path d="M69267 45143
L69267 44749
L69230 44806
L69192 44843
L69155 44862
" />
<path d="M69605 44918
L69567 44899
L69548 44881
L69530 44843
L69530 44824
L69548 44787
L69567 44768
L69605 44749
L69680 44749
L69717 44768
L69736 44787
L69755 44824
L69755 44843
L69736 44881
L69717 44899
L69680 44918
L69605 44918
L69567 44937
L69548 44956
L69530 44993
L69530 45068
L69548 45106
L69567 45124
L69605 45143
L69680 45143
L69717 45124
L69736 45106
L69755 45068
L69755 44993
L69736 44956
L69717 44937
L69680 44918
" />
<path d="M69905 45031
L70092 45031
" />
<path d="M69867 45143
L69998 44749
L70130 45143
" />
<path d="M70467 44768
L70430 44749
L70373 44749
L70317 44768
L70280 44806
L70261 44843
L70242 44918
L70242 44974
L70261 45049
L70280 45087
L70317 45124
L70373 45143
L70411 45143
L70467 45124
L70486 45106
L70486 44974
L70411 44974
" />
<path d="M70861 45143
L70636 45143
" />
<path d="M70748 45143
L70748 44749
L70711 44806
L70673 44843
L70636 44862
" />
<path d="M71011 44787
L71029 44768
L71067 44749
L71161 44749
L71198 44768
L71217 44787
L71236 44824
L71236 44862
L71217 44918
L70992 45143
L71236 45143
" />
<path d="M71611 45143
L71386 45143
" />
<path d="M71498 45143
L71498 44749
L71461 44806
L71423 44843
L71386 44862
" />
<path d="M71761 45124
L71817 45143
L71911 45143
L71948 45124
L71967 45106
L71986 45068
L71986 45031
L71967 44993
L71948 44974
L71911 44956
L71836 44937
L71798 44918
L71779 44899
L71761 44862
L71761 44824
L71779 44787
L71798 44768
L71836 44749
L71929 44749
L71986 44768
" />
<path d="M72154 45143
L72154 44749
L72379 45143
L72379 44749
" />
<path d="M72773 45143
L72548 45143
" />
<path d="M72660 45143
L72660 44749
L72623 44806
L72585 44843
L72548 44862
" />
<path d="M72942 45143
L72942 44749
L73035 44749
L73092 44768
L73129 44806
L73148 44843
L73167 44918
L73167 44974
L73148 45049
L73129 45087
L73092 45124
L73035 45143
L72942 45143
" />
<path d="M69989 44060
L69801 44060
L69801 43667
" />
<path d="M70326 44060
L70101 44060
" />
<path d="M70214 44060
L70214 43667
L70176 43723
L70139 43761
L70101 43779
" />
<path d="M70570 43667
L70608 43667
L70645 43686
L70664 43704
L70683 43742
L70701 43817
L70701 43910
L70683 43985
L70664 44023
L70645 44042
L70608 44060
L70570 44060
L70533 44042
L70514 44023
L70495 43985
L70476 43910
L70476 43817
L70495 43742
L70514 43704
L70533 43686
L70570 43667
" />
<path d="M71076 44060
L70851 44060
" />
<path d="M70964 44060
L70964 43667
L70926 43723
L70889 43761
L70851 43779
" />
<path d="M63617 43756
L63674 43775
L63692 43793
L63711 43831
L63711 43887
L63692 43925
L63674 43943
L63636 43962
L63486 43962
L63486 43568
L63617 43568
L63655 43587
L63674 43606
L63692 43643
L63692 43681
L63674 43718
L63655 43737
L63617 43756
L63486 43756
" />
<path d="M64067 43962
L63880 43962
L63880 43568
" />
<path d="M64198 43962
L64198 43568
L64330 43850
L64461 43568
L64461 43962
" />
<path d="M64855 43962
L64630 43962
" />
<path d="M64742 43962
L64742 43568
L64705 43625
L64667 43662
L64630 43681
" />
<path d="M65080 43737
L65042 43718
L65023 43700
L65005 43662
L65005 43643
L65023 43606
L65042 43587
L65080 43568
L65155 43568
L65192 43587
L65211 43606
L65230 43643
L65230 43662
L65211 43700
L65192 43718
L65155 43737
L65080 43737
L65042 43756
L65023 43775
L65005 43812
L65005 43887
L65023 43925
L65042 43943
L65080 43962
L65155 43962
L65192 43943
L65211 43925
L65230 43887
L65230 43812
L65211 43775
L65192 43756
L65155 43737
" />
<path d="M65380 43850
L65567 43850
" />
<path d="M65342 43962
L65473 43568
L65605 43962
" />
<path d="M65942 43587
L65905 43568
L65848 43568
L65792 43587
L65755 43625
L65736 43662
L65717 43737
L65717 43793
L65736 43868
L65755 43906
L65792 43943
L65848 43962
L65886 43962
L65942 43943
L65961 43925
L65961 43793
L65886 43793
" />
<path d="M66336 43962
L66111 43962
" />
<path d="M66223 43962
L66223 43568
L66186 43625
L66148 43662
L66111 43681
" />
<path d="M66486 43606
L66504 43587
L66542 43568
L66636 43568
L66673 43587
L66692 43606
L66711 43643
L66711 43681
L66692 43737
L66467 43962
L66711 43962
" />
<path d="M67086 43962
L66861 43962
" />
<path d="M66973 43962
L66973 43568
L66936 43625
L66898 43662
L66861 43681
" />
<path d="M67236 43943
L67292 43962
L67386 43962
L67423 43943
L67442 43925
L67461 43887
L67461 43850
L67442 43812
L67423 43793
L67386 43775
L67311 43756
L67273 43737
L67254 43718
L67236 43681
L67236 43643
L67254 43606
L67273 43587
L67311 43568
L67404 43568
L67461 43587
" />
<path d="M67629 43962
L67629 43568
L67854 43962
L67854 43568
" />
<path d="M68248 43962
L68023 43962
" />
<path d="M68135 43962
L68135 43568
L68098 43625
L68060 43662
L68023 43681
" />
<path d="M68417 43962
L68417 43568
L68510 43568
L68567 43587
L68604 43625
L68623 43662
L68642 43737
L68642 43793
L68623 43868
L68604 43906
L68567 43943
L68510 43962
L68417 43962
" />
<path d="M65464 45045
L65276 45045
L65276 44651
" />
<path d="M65801 45045
L65576 45045
" />
<path d="M65689 45045
L65689 44651
L65651 44707
L65614 44745
L65576 44764
" />
<path d="M66045 44651
L66083 44651
L66120 44670
L66139 44689
L66158 44726
L66176 44801
L66176 44895
L66158 44970
L66139 45007
L66120 45026
L66083 45045
L66045 45045
L66008 45026
L65989 45007
L65970 44970
L65951 44895
L65951 44801
L65970 44726
L65989 44689
L66008 44670
L66045 44651
" />
<path d="M66326 44689
L66345 44670
L66383 44651
L66476 44651
L66514 44670
L66533 44689
L66551 44726
L66551 44764
L66533 44820
L66308 45045
L66551 45045
" />
</g>
<g style="fill:#000000; fill-opacity:0.0; 
stroke:#000000; stroke-width:39.3701; stroke-opacity:1; 
stroke-linecap:round; stroke-linejoin:round;">
<path d="M71915 39857
L71915 39542
" />
<path d="M72544 39857
L71915 39857
" />
<path d="M72544 39542
L72544 39857
" />
<path d="M71915 39542
L72544 39542
" />
<path d="M70284 43135
L70284 43764
" />
<path d="M69025 43135
L70284 43135
" />
<path d="M69025 43764
L69025 43135
" />
<path d="M70284 43764
L69025 43764
" />
<path d="M67534 43135
L67534 43764
" />
<path d="M66275 43135
L67534 43135
" />
<path d="M66275 43764
L66275 43135
" />
<path d="M67534 43764
L66275 43764
" />
<path d="M70115 44532
L70115 44217
" />
<path d="M70744 44532
L70115 44532
" />
<path d="M70744 44217
L70744 44532
" />
<path d="M70115 44217
L70744 44217
" />
<path d="M66219 44217
L66219 44532
" />
<path d="M65590 44217
L66219 44217
" />
<path d="M65590 44532
L65590 44217
" />
<path d="M66219 44532
L65590 44532
" />
</g> 
</svg>
