M48
;DRILL file {KiCad 4.0.6} date Tue Sep  5 00:10:50 2017
;FORMAT={-:-/ absolute / metric / decimal}
FMAT,2
METRIC,TZ
T1C0.400
T2C0.600
T3C0.650
T4C0.800
T5C0.900
T6C1.100
T7C1.800
T8C2.000
%
G90
G05
M71
T1
X90.185Y-154.853
X90.185Y-150.027
X90.185Y-152.567
X90.185Y-157.139
X93.233Y-140.375
X93.891Y-159.685
X95.201Y-158.445
X96.661Y-159.635
X98.925Y-64.725
X98.925Y-66.825
X98.925Y-68.625
X98.925Y-70.325
X98.925Y-72.325
X98.925Y-74.425
X98.925Y-76.925
X98.925Y-79.225
X98.925Y-81.525
X98.925Y-83.925
X98.925Y-86.325
X98.925Y-88.325
X98.925Y-90.625
X98.925Y-92.825
X98.925Y-94.925
X98.925Y-97.025
X99.025Y-99.125
X100.125Y-100.425
X101.025Y-118.525
X101.125Y-113.825
X101.125Y-116.225
X101.125Y-120.925
X101.225Y-73.625
X101.225Y-75.425
X101.225Y-77.325
X101.255Y-79.93
X101.265Y-94.6
X101.325Y-67.925
X101.325Y-71.825
X101.361Y-151.043
X101.361Y-153.837
X101.361Y-155.361
X101.361Y-157.393
X101.425Y-69.825
X101.425Y-109.125
X101.885Y-101.57
X101.885Y-103.6
X102.025Y-111.925
X102.325Y-110.025
X102.425Y-122.825
X102.525Y-94.025
X102.525Y-96.325
X102.631Y-160.695
X102.801Y-178.655
X102.825Y-78.525
X103.125Y-67.925
X103.125Y-69.825
X103.525Y-111.025
X103.647Y-180.507
X103.861Y-77.327
X103.901Y-140.375
X103.927Y-76.235
X104.155Y-168.569
X104.461Y-178.655
X104.725Y-68.025
X104.725Y-69.825
X104.725Y-124.025
X105.005Y-89.32
X105.019Y-85.473
X105.019Y-88.077
X105.039Y-86.807
X105.069Y-84.267
X105.39Y-99.15
X105.425Y-174.157
X106.112Y-101.04
X106.165Y-93.66
X106.281Y-179.745
X106.531Y-74.901
X106.949Y-177.459
X106.95Y-97.876
X107.025Y-99.225
X107.125Y-91.025
X107.685Y-96.46
X107.925Y-124.625
X108.1Y-103.725
X108.1Y-118.2
X108.118Y-59.597
X108.225Y-91.825
X108.249Y-71.83
X108.325Y-83.725
X108.384Y-98.377
X108.525Y-100.2
X108.611Y-179.025
X108.842Y-111.949
X109.025Y-91.025
X109.235Y-169.839
X109.52Y-135.549
X109.61Y-134.202
X109.675Y-142.955
X109.695Y-141.155
X109.743Y-145.709
X109.743Y-147.233
X110.069Y-172.125
X110.094Y-113.95
X110.134Y-66.726
X110.135Y-144.425
X110.425Y-83.625
X110.425Y-85.225
X110.425Y-86.925
X110.425Y-89.325
X110.515Y-60.249
X110.575Y-106.325
X110.925Y-91.025
X111.045Y-141.425
X111.169Y-173.393
X111.169Y-175.133
X111.235Y-143.005
X111.301Y-178.565
X111.521Y-150.789
X111.801Y-176.835
X112.029Y-140.375
X112.029Y-166.029
X112.031Y-172.886
X112.052Y-132.032
X112.168Y-175.179
X112.563Y-58.962
X112.675Y-96.9
X112.725Y-91.025
X113.15Y-118.175
X113.475Y-110.15
X113.553Y-164.251
X113.675Y-95.075
X113.745Y-89.62
X113.768Y-107.374
X113.805Y-85.537
X113.805Y-88.152
X113.865Y-84.267
X113.905Y-86.86
X114.025Y-63.125
X114.075Y-140.395
X114.125Y-104.925
X114.136Y-102.289
X114.225Y-116.15
X114.388Y-54.915
X114.405Y-80.36
X114.425Y-166.225
X114.569Y-150.535
X114.569Y-168.315
X114.725Y-91.025
X114.798Y-132.114
X114.85Y-126.1
X115.075Y-94.575
X115.125Y-170.825
X115.273Y-142.927
X115.543Y-117.196
X115.775Y-102.325
X115.883Y-107.371
X115.895Y-140.385
X115.925Y-175.525
X115.975Y-109.925
X116.123Y-71.83
X116.325Y-114.225
X116.375Y-119.75
X116.525Y-91.025
X116.731Y-132.076
X117.015Y-116.375
X117.109Y-181.777
X117.182Y-182.931
X117.275Y-113.65
X117.327Y-178.585
X117.425Y-52.625
X117.425Y-79.825
X117.455Y-82.91
X117.617Y-150.535
X117.625Y-54.225
X117.625Y-57.825
X117.625Y-59.925
X117.625Y-61.425
X117.625Y-175.525
X117.725Y-56.125
X117.725Y-66.825
X117.871Y-136.057
X117.871Y-180.761
X118.025Y-91.025
X118.379Y-166.283
X118.772Y-179.014
X118.786Y-72.869
X118.887Y-150.535
X119.144Y-132.504
X119.175Y-118.085
X119.275Y-97.05
X119.33Y-99.381
X119.395Y-175.173
X119.425Y-79.925
X119.45Y-103.525
X119.625Y-170.225
X119.649Y-140.629
X119.649Y-181.777
X120.066Y-108.319
X120.125Y-54.125
X120.125Y-56.225
X120.125Y-57.925
X120.125Y-59.925
X120.125Y-61.425
X120.125Y-98.65
X120.157Y-148.249
X120.225Y-52.425
X120.225Y-66.825
X120.236Y-114.014
X120.438Y-100.822
X120.525Y-102.6
X120.665Y-132.247
X120.94Y-175.08
X121.025Y-168.125
X121.025Y-170.225
X121.173Y-145.62
X121.173Y-150.281
X121.39Y-73.1
X121.725Y-100.625
X122.125Y-144.315
X122.189Y-174.919
X122.225Y-79.925
X122.325Y-54.125
X122.325Y-56.125
X122.325Y-57.825
X122.406Y-52.422
X122.425Y-59.925
X122.425Y-61.425
X122.475Y-96.875
X122.525Y-66.825
X123.205Y-167.045
X123.205Y-172.379
X123.32Y-101.525
X123.325Y-170.525
X123.345Y-145.605
X123.375Y-99.725
X123.4Y-143.425
X123.459Y-134.533
X123.459Y-150.535
X123.532Y-108.382
X123.855Y-119.345
X124.195Y-176.542
X124.255Y-144.405
X124.45Y-98.675
X124.525Y-79.925
X124.692Y-52.485
X124.775Y-102.525
X124.805Y-96.585
X124.983Y-150.535
X125.065Y-92.89
X125.295Y-145.535
X125.475Y-103.475
X125.705Y-144.345
X125.725Y-117.2
X125.725Y-122.05
X125.745Y-132.755
X125.755Y-91.325
X125.755Y-182.359
X125.775Y-69.29
X125.775Y-73.1
X125.823Y-88.522
X125.848Y-85.972
X125.848Y-87.272
X125.923Y-84.297
X125.945Y-66.76
X126.072Y-157.849
X126.2Y-110.096
X126.517Y-156.769
X126.775Y-117.2
X126.795Y-165.341
X126.82Y-150.366
X126.914Y-74.584
X126.925Y-171.725
X127.095Y-95.15
X127.095Y-154.333
X127.288Y-109.987
X127.375Y-122.07
X127.565Y-145.625
X127.575Y-144.335
X127.613Y-63.154
X127.777Y-146.979
X127.82Y-174.691
X127.914Y-156.451
X127.995Y-165.291
X128.Y-142.175
X128.031Y-132.501
X128.031Y-135.295
X128.031Y-136.565
X128.031Y-140.629
X128.125Y-92.125
X128.525Y-90.825
X128.825Y-71.81
X128.867Y-173.533
X129.175Y-107.475
X129.25Y-103.526
X129.325Y-87.725
X129.325Y-92.125
X129.35Y-86.4
X129.454Y-56.994
X129.501Y-165.278
X129.725Y-90.725
X129.925Y-97.425
X129.925Y-98.425
X129.963Y-74.52
X130.136Y-152.832
X130.407Y-61.756
X130.517Y-172.707
X130.55Y-104.343
X130.825Y-177.205
X130.895Y-165.291
X131.215Y-69.3
X131.359Y-57.121
X131.4Y-82.2
X131.725Y-110.425
X131.725Y-112.425
X132.349Y-182.539
X132.491Y-138.803
X132.645Y-165.291
X132.885Y-63.245
X132.925Y-110.425
X132.925Y-112.425
X133.137Y-52.485
X133.248Y-158.102
X133.645Y-74.584
X133.946Y-154.038
X134.127Y-163.743
X134.285Y-82.16
X134.344Y-66.773
X134.35Y-113.8
X134.675Y-95.025
X134.675Y-99.675
X134.795Y-81.002
X134.833Y-88.852
X134.873Y-90.372
X134.889Y-170.347
X134.903Y-85.782
X134.913Y-83.902
X134.915Y-68.17
X134.979Y-57.883
X135.725Y-155.308
X135.725Y-156.578
X135.725Y-181.523
X136.106Y-165.775
X136.503Y-74.584
X137.249Y-130.988
X137.249Y-135.624
X137.837Y-68.17
X138.125Y-95.
X138.625Y-105.725
X138.625Y-107.425
X138.925Y-92.025
X138.925Y-93.325
X139.868Y-64.677
X140.025Y-104.125
X140.025Y-107.725
X140.025Y-110.025
X140.124Y-92.025
X140.124Y-93.225
X140.124Y-105.725
X140.169Y-150.99
X140.985Y-169.331
X142.509Y-173.649
X143.45Y-175.075
X143.8Y-155.165
X144.932Y-170.294
X148.175Y-75.225
X151.653Y-142.725
X151.653Y-143.994
X151.653Y-145.264
X151.653Y-146.28
X151.653Y-147.55
X151.653Y-148.82
X151.653Y-150.09
X151.653Y-151.361
T3
X115.04Y-65.503
X115.04Y-66.773
X136.439Y-65.503
X136.439Y-66.773
X143.281Y-37.516
X144.551Y-37.516
X145.964Y-124.685
X145.964Y-125.955
X145.964Y-127.225
X145.964Y-128.495
X145.964Y-129.765
X145.964Y-131.035
X145.964Y-132.305
X145.964Y-133.575
X145.964Y-134.845
X145.964Y-136.115
X145.964Y-137.385
X145.964Y-138.655
X145.964Y-139.925
X145.964Y-141.195
X145.964Y-142.465
X145.964Y-143.735
X145.964Y-145.005
X145.964Y-146.275
X145.964Y-147.545
X145.964Y-148.815
X145.964Y-150.085
X145.964Y-151.355
X145.964Y-152.625
X145.964Y-153.895
X145.964Y-155.165
T4
X93.688Y-49.835
X93.688Y-54.835
X93.688Y-57.392
X93.688Y-62.392
X93.751Y-42.295
X93.751Y-47.295
X144.821Y-50.263
X144.821Y-55.263
X144.821Y-57.819
X144.821Y-62.819
X144.865Y-42.546
X144.865Y-47.546
T5
X102.578Y-48.374
X105.117Y-48.374
X130.962Y-48.247
X133.502Y-48.247
T6
X142.662Y-65.734
X142.662Y-72.234
X147.162Y-65.734
X147.162Y-72.234
T7
X113.817Y-45.263
X119.217Y-36.763
X123.517Y-48.063
X123.817Y-40.263
T8
X100.037Y-43.294
X110.197Y-43.294
X128.422Y-43.167
X138.582Y-43.167
T2
X113.695Y-185.191G85X113.695Y-184.291
G05
X113.695Y-190.016G85X113.695Y-188.816
G05
X123.595Y-185.191G85X123.595Y-184.291
G05
X123.595Y-190.016G85X123.595Y-188.816
G05
X148.462Y-158.169G85X147.561Y-158.169
G05
X148.462Y-168.069G85X147.561Y-168.069
G05
X153.286Y-158.169G85X152.087Y-158.169
G05
X153.286Y-168.069G85X152.087Y-168.069
G05
T0
M30
