<?xml version="1.0" standalone="no"?>
 <!DOCTYPE svg PUBLIC "-//W3C//DTD SVG 1.1//EN" 
 "http://www.w3.org/Graphics/SVG/1.1/DTD/svg11.dtd"> 
<svg xmlns="http://www.w3.org/2000/svg" version="1.1" 
    width="29.7002cm" height="21.0007cm" viewBox="0 0 116930 82680 ">
<title>SVG Picture created as analog_board-B.Cu.svg date 2017/11/25 12:43:32 </title>
  <desc>Picture generated by PCBNEW </desc>
<g style="fill:#000000; fill-opacity:1;stroke:#000000; stroke-opacity:1;
stroke-linecap:round; stroke-linejoin:round; "
 transform="translate(0 0) scale(1 1)">
</g>
<g style="fill:#000000; fill-opacity:0.0; 
stroke:#000000; stroke-width:-0.000393701; stroke-opacity:1; 
stroke-linecap:round; stroke-linejoin:round;">
</g>
<g style="fill:#000000; fill-opacity:1.0; 
stroke:#000000; stroke-width:39.3701; stroke-opacity:1; 
stroke-linecap:round; stroke-linejoin:round;">
<rect x="40964" y="25349.1" width="20005.5" height="22879.8" rx="0" />
</g>
<g style="fill:#FFFFFF; fill-opacity:1.0; 
stroke:#FFFFFF; stroke-width:39.3701; stroke-opacity:1; 
stroke-linecap:round; stroke-linejoin:round;">
</g>
<g style="fill:#FFFFFF; fill-opacity:0.0; 
stroke:#FFFFFF; stroke-width:39.3701; stroke-opacity:1; 
stroke-linecap:round; stroke-linejoin:round;">
</g>
<g style="fill:#FFFFFF; fill-opacity:0.0; 
stroke:#FFFFFF; stroke-width:78.7402; stroke-opacity:1; 
stroke-linecap:round; stroke-linejoin:round;">
<path d="M45143 45179
L45087 45198
L45068 45217
L45049 45254
L45049 45310
L45068 45348
L45087 45367
L45124 45385
L45274 45385
L45274 44992
L45143 44992
L45105 45011
L45087 45029
L45068 45067
L45068 45104
L45087 45142
L45105 45161
L45143 45179
L45274 45179
" />
<path d="M44824 45385
L44862 45367
L44881 45348
L44899 45310
L44899 45198
L44881 45161
L44862 45142
L44824 45123
L44768 45123
L44731 45142
L44712 45161
L44693 45198
L44693 45310
L44712 45348
L44731 45367
L44768 45385
L44824 45385
" />
<path d="M44581 45123
L44431 45123
" />
<path d="M44524 44992
L44524 45329
L44506 45367
L44468 45385
L44431 45385
" />
<path d="M44356 45123
L44206 45123
" />
<path d="M44299 44992
L44299 45329
L44281 45367
L44243 45385
L44206 45385
" />
<path d="M44018 45385
L44056 45367
L44074 45348
L44093 45310
L44093 45198
L44074 45161
L44056 45142
L44018 45123
L43962 45123
L43924 45142
L43906 45161
L43887 45198
L43887 45310
L43906 45348
L43924 45367
L43962 45385
L44018 45385
" />
<path d="M43718 45385
L43718 45123
" />
<path d="M43718 45161
L43699 45142
L43662 45123
L43606 45123
L43568 45142
L43549 45179
L43549 45385
" />
<path d="M43549 45179
L43531 45142
L43493 45123
L43437 45123
L43399 45142
L43381 45179
L43381 45385
" />
</g>
<g style="fill:#FFFFFF; fill-opacity:0.0; 
stroke:#FFFFFF; stroke-width:0; stroke-opacity:1; 
stroke-linecap:round; stroke-linejoin:round;">
</g>
<g style="fill:#FFFFFF; fill-opacity:1.0; 
stroke:#FFFFFF; stroke-width:0; stroke-opacity:1; 
stroke-linecap:round; stroke-linejoin:round;">
<polyline style="fill-rule:evenodd;"
points="54465,44065
55134,44065
55134,44734
54465,44734
54465,44065
" /> 
</g>
<g style="fill:#FFFFFF; fill-opacity:1.0; 
stroke:#FFFFFF; stroke-width:669.291; stroke-opacity:1; 
stroke-linecap:round; stroke-linejoin:round;">
</g>
<g style="fill:#FFFFFF; fill-opacity:0.0; 
stroke:#FFFFFF; stroke-width:669.291; stroke-opacity:1; 
stroke-linecap:round; stroke-linejoin:round;">
<path d="M53800 44400
L53800 44400
" />
</g>
<g style="fill:#FFFFFF; fill-opacity:0.0; 
stroke:#FFFFFF; stroke-width:0; stroke-opacity:1; 
stroke-linecap:round; stroke-linejoin:round;">
</g>
<g style="fill:#FFFFFF; fill-opacity:1.0; 
stroke:#FFFFFF; stroke-width:0; stroke-opacity:1; 
stroke-linecap:round; stroke-linejoin:round;">
<polyline style="fill-rule:evenodd;"
points="44790,41234
44790,40565
45459,40565
45459,41234
44790,41234
" /> 
</g>
<g style="fill:#FFFFFF; fill-opacity:1.0; 
stroke:#FFFFFF; stroke-width:669.291; stroke-opacity:1; 
stroke-linecap:round; stroke-linejoin:round;">
</g>
<g style="fill:#FFFFFF; fill-opacity:0.0; 
stroke:#FFFFFF; stroke-width:669.291; stroke-opacity:1; 
stroke-linecap:round; stroke-linejoin:round;">
<path d="M45125 41900
L45125 41900
" />
<path d="M45125 42900
L45125 42900
" />
</g>
<g style="fill:#FFFFFF; fill-opacity:0.0; 
stroke:#FFFFFF; stroke-width:0; stroke-opacity:1; 
stroke-linecap:round; stroke-linejoin:round;">
</g>
<g style="fill:#FFFFFF; fill-opacity:1.0; 
stroke:#FFFFFF; stroke-width:0; stroke-opacity:1; 
stroke-linecap:round; stroke-linejoin:round;">
<polyline style="fill-rule:evenodd;"
points="48390,36784
48390,36115
49059,36115
49059,36784
48390,36784
" /> 
</g>
<g style="fill:#FFFFFF; fill-opacity:1.0; 
stroke:#FFFFFF; stroke-width:669.291; stroke-opacity:1; 
stroke-linecap:round; stroke-linejoin:round;">
</g>
<g style="fill:#FFFFFF; fill-opacity:0.0; 
stroke:#FFFFFF; stroke-width:669.291; stroke-opacity:1; 
stroke-linecap:round; stroke-linejoin:round;">
<path d="M48725 37450
L48725 37450
" />
<path d="M48725 38450
L48725 38450
" />
</g>
<g style="fill:#FFFFFF; fill-opacity:0.0; 
stroke:#FFFFFF; stroke-width:0; stroke-opacity:1; 
stroke-linecap:round; stroke-linejoin:round;">
</g>
<g style="fill:#FFFFFF; fill-opacity:1.0; 
stroke:#FFFFFF; stroke-width:0; stroke-opacity:1; 
stroke-linecap:round; stroke-linejoin:round;">
<polyline style="fill-rule:evenodd;"
points="46365,29609
46365,28940
47034,28940
47034,29609
46365,29609
" /> 
</g>
<g style="fill:#FFFFFF; fill-opacity:1.0; 
stroke:#FFFFFF; stroke-width:669.291; stroke-opacity:1; 
stroke-linecap:round; stroke-linejoin:round;">
</g>
<g style="fill:#FFFFFF; fill-opacity:0.0; 
stroke:#FFFFFF; stroke-width:669.291; stroke-opacity:1; 
stroke-linecap:round; stroke-linejoin:round;">
<path d="M46700 30275
L46700 30275
" />
<path d="M46700 31275
L46700 31275
" />
</g>
<g style="fill:#FFFFFF; fill-opacity:0.0; 
stroke:#FFFFFF; stroke-width:0; stroke-opacity:1; 
stroke-linecap:round; stroke-linejoin:round;">
</g>
<g style="fill:#FFFFFF; fill-opacity:1.0; 
stroke:#FFFFFF; stroke-width:0; stroke-opacity:1; 
stroke-linecap:round; stroke-linejoin:round;">
<polyline style="fill-rule:evenodd;"
points="44915,36734
44915,36065
45584,36065
45584,36734
44915,36734
" /> 
</g>
<g style="fill:#FFFFFF; fill-opacity:1.0; 
stroke:#FFFFFF; stroke-width:669.291; stroke-opacity:1; 
stroke-linecap:round; stroke-linejoin:round;">
</g>
<g style="fill:#FFFFFF; fill-opacity:0.0; 
stroke:#FFFFFF; stroke-width:669.291; stroke-opacity:1; 
stroke-linecap:round; stroke-linejoin:round;">
<path d="M45250 37400
L45250 37400
" />
<path d="M45250 38400
L45250 38400
" />
</g>
<g style="fill:#FFFFFF; fill-opacity:0.0; 
stroke:#FFFFFF; stroke-width:0; stroke-opacity:1; 
stroke-linecap:round; stroke-linejoin:round;">
</g>
<g style="fill:#FFFFFF; fill-opacity:1.0; 
stroke:#FFFFFF; stroke-width:0; stroke-opacity:1; 
stroke-linecap:round; stroke-linejoin:round;">
<polyline style="fill-rule:evenodd;"
points="55665,38834
55665,38165
56334,38165
56334,38834
55665,38834
" /> 
</g>
<g style="fill:#FFFFFF; fill-opacity:1.0; 
stroke:#FFFFFF; stroke-width:669.291; stroke-opacity:1; 
stroke-linecap:round; stroke-linejoin:round;">
</g>
<g style="fill:#FFFFFF; fill-opacity:0.0; 
stroke:#FFFFFF; stroke-width:669.291; stroke-opacity:1; 
stroke-linecap:round; stroke-linejoin:round;">
<path d="M56000 39500
L56000 39500
" />
<path d="M56000 40500
L56000 40500
" />
</g>
<g style="fill:#FFFFFF; fill-opacity:0.0; 
stroke:#FFFFFF; stroke-width:0; stroke-opacity:1; 
stroke-linecap:round; stroke-linejoin:round;">
</g>
<g style="fill:#FFFFFF; fill-opacity:1.0; 
stroke:#FFFFFF; stroke-width:0; stroke-opacity:1; 
stroke-linecap:round; stroke-linejoin:round;">
<polyline style="fill-rule:evenodd;"
points="50440,29659
50440,28990
51109,28990
51109,29659
50440,29659
" /> 
</g>
<g style="fill:#FFFFFF; fill-opacity:1.0; 
stroke:#FFFFFF; stroke-width:669.291; stroke-opacity:1; 
stroke-linecap:round; stroke-linejoin:round;">
</g>
<g style="fill:#FFFFFF; fill-opacity:0.0; 
stroke:#FFFFFF; stroke-width:669.291; stroke-opacity:1; 
stroke-linecap:round; stroke-linejoin:round;">
<path d="M50775 30325
L50775 30325
" />
<path d="M50775 31325
L50775 31325
" />
</g>
<g style="fill:#FFFFFF; fill-opacity:0.0; 
stroke:#FFFFFF; stroke-width:0; stroke-opacity:1; 
stroke-linecap:round; stroke-linejoin:round;">
</g>
<g style="fill:#FFFFFF; fill-opacity:1.0; 
stroke:#FFFFFF; stroke-width:0; stroke-opacity:1; 
stroke-linecap:round; stroke-linejoin:round;">
<polyline style="fill-rule:evenodd;"
points="46665,36759
46665,36090
47334,36090
47334,36759
46665,36759
" /> 
</g>
<g style="fill:#FFFFFF; fill-opacity:1.0; 
stroke:#FFFFFF; stroke-width:669.291; stroke-opacity:1; 
stroke-linecap:round; stroke-linejoin:round;">
</g>
<g style="fill:#FFFFFF; fill-opacity:0.0; 
stroke:#FFFFFF; stroke-width:669.291; stroke-opacity:1; 
stroke-linecap:round; stroke-linejoin:round;">
<path d="M47000 37425
L47000 37425
" />
<path d="M47000 38425
L47000 38425
" />
</g>
<g style="fill:#FFFFFF; fill-opacity:0.0; 
stroke:#FFFFFF; stroke-width:0; stroke-opacity:1; 
stroke-linecap:round; stroke-linejoin:round;">
</g>
<g style="fill:#FFFFFF; fill-opacity:1.0; 
stroke:#FFFFFF; stroke-width:0; stroke-opacity:1; 
stroke-linecap:round; stroke-linejoin:round;">
<polyline style="fill-rule:evenodd;"
points="46615,32984
46615,32315
47284,32315
47284,32984
46615,32984
" /> 
</g>
<g style="fill:#FFFFFF; fill-opacity:1.0; 
stroke:#FFFFFF; stroke-width:669.291; stroke-opacity:1; 
stroke-linecap:round; stroke-linejoin:round;">
</g>
<g style="fill:#FFFFFF; fill-opacity:0.0; 
stroke:#FFFFFF; stroke-width:669.291; stroke-opacity:1; 
stroke-linecap:round; stroke-linejoin:round;">
<path d="M46950 33650
L46950 33650
" />
<path d="M46950 34650
L46950 34650
" />
</g>
<g style="fill:#FFFFFF; fill-opacity:0.0; 
stroke:#FFFFFF; stroke-width:0; stroke-opacity:1; 
stroke-linecap:round; stroke-linejoin:round;">
</g>
<g style="fill:#FFFFFF; fill-opacity:1.0; 
stroke:#FFFFFF; stroke-width:0; stroke-opacity:1; 
stroke-linecap:round; stroke-linejoin:round;">
<polyline style="fill-rule:evenodd;"
points="48134,44709
47465,44709
47465,44040
48134,44040
48134,44709
" /> 
</g>
<g style="fill:#FFFFFF; fill-opacity:1.0; 
stroke:#FFFFFF; stroke-width:669.291; stroke-opacity:1; 
stroke-linecap:round; stroke-linejoin:round;">
</g>
<g style="fill:#FFFFFF; fill-opacity:0.0; 
stroke:#FFFFFF; stroke-width:669.291; stroke-opacity:1; 
stroke-linecap:round; stroke-linejoin:round;">
<path d="M48800 44375
L48800 44375
" />
<path d="M49800 44375
L49800 44375
" />
</g>
<g style="fill:#FFFFFF; fill-opacity:0.0; 
stroke:#FFFFFF; stroke-width:0; stroke-opacity:1; 
stroke-linecap:round; stroke-linejoin:round;">
</g>
<g style="fill:#FFFFFF; fill-opacity:1.0; 
stroke:#FFFFFF; stroke-width:0; stroke-opacity:1; 
stroke-linecap:round; stroke-linejoin:round;">
<polyline style="fill-rule:evenodd;"
points="52634,29884
51965,29884
51965,29215
52634,29215
52634,29884
" /> 
</g>
<g style="fill:#FFFFFF; fill-opacity:1.0; 
stroke:#FFFFFF; stroke-width:669.291; stroke-opacity:1; 
stroke-linecap:round; stroke-linejoin:round;">
</g>
<g style="fill:#FFFFFF; fill-opacity:0.0; 
stroke:#FFFFFF; stroke-width:669.291; stroke-opacity:1; 
stroke-linecap:round; stroke-linejoin:round;">
<path d="M53300 29550
L53300 29550
" />
</g>
<g style="fill:#FFFFFF; fill-opacity:0.0; 
stroke:#FFFFFF; stroke-width:0; stroke-opacity:1; 
stroke-linecap:round; stroke-linejoin:round;">
</g>
<g style="fill:#FFFFFF; fill-opacity:1.0; 
stroke:#FFFFFF; stroke-width:0; stroke-opacity:1; 
stroke-linecap:round; stroke-linejoin:round;">
<polyline style="fill-rule:evenodd;"
points="45369,39522
45369,39877
44896,39877
44896,39522
45369,39522
" /> 
<polyline style="fill-rule:evenodd;"
points="44503,39522
44503,39877
44030,39877
44030,39522
44503,39522
" /> 
<polyline style="fill-rule:evenodd;"
points="46093,43764
46093,43135
46881,43135
46881,43764
46093,43764
" /> 
<polyline style="fill-rule:evenodd;"
points="47668,43764
47668,43135
48456,43135
48456,43764
47668,43764
" /> 
<polyline style="fill-rule:evenodd;"
points="48843,43764
48843,43135
49631,43135
49631,43764
48843,43764
" /> 
<polyline style="fill-rule:evenodd;"
points="50418,43764
50418,43135
51206,43135
51206,43764
50418,43764
" /> 
<polyline style="fill-rule:evenodd;"
points="47110,44227
47110,44522
46637,44522
46637,44227
47110,44227
" /> 
<polyline style="fill-rule:evenodd;"
points="46362,44227
46362,44522
45889,44522
45889,44227
46362,44227
" /> 
<polyline style="fill-rule:evenodd;"
points="50414,44522
50414,44227
50887,44227
50887,44522
50414,44522
" /> 
<polyline style="fill-rule:evenodd;"
points="51162,44522
51162,44227
51635,44227
51635,44522
51162,44522
" /> 
<circle cx="56500" cy="28650" r="295.276" /> 
</g>
<g style="fill:#FFFFFF; fill-opacity:1.0; 
stroke:#FFFFFF; stroke-width:39.3701; stroke-opacity:1; 
stroke-linecap:round; stroke-linejoin:round;">
</g>
<g style="fill:#FFFFFF; fill-opacity:1.0; 
stroke:#FFFFFF; stroke-width:0; stroke-opacity:1; 
stroke-linecap:round; stroke-linejoin:round;">
<circle cx="50175" cy="35600" r="295.276" /> 
</g>
<g style="fill:#FFFFFF; fill-opacity:1.0; 
stroke:#FFFFFF; stroke-width:39.3701; stroke-opacity:1; 
stroke-linecap:round; stroke-linejoin:round;">
</g>
<g style="fill:#FFFFFF; fill-opacity:1.0; 
stroke:#FFFFFF; stroke-width:0; stroke-opacity:1; 
stroke-linecap:round; stroke-linejoin:round;">
<circle cx="53250" cy="31425" r="295.276" /> 
</g>
<g style="fill:#FFFFFF; fill-opacity:1.0; 
stroke:#FFFFFF; stroke-width:39.3701; stroke-opacity:1; 
stroke-linecap:round; stroke-linejoin:round;">
</g>
<g style="fill:#FFFFFF; fill-opacity:1.0; 
stroke:#FFFFFF; stroke-width:0; stroke-opacity:1; 
stroke-linecap:round; stroke-linejoin:round;">
<circle cx="52825" cy="32275" r="295.276" /> 
</g>
<g style="fill:#FFFFFF; fill-opacity:1.0; 
stroke:#FFFFFF; stroke-width:39.3701; stroke-opacity:1; 
stroke-linecap:round; stroke-linejoin:round;">
</g>
<g style="fill:#FFFFFF; fill-opacity:1.0; 
stroke:#FFFFFF; stroke-width:0; stroke-opacity:1; 
stroke-linecap:round; stroke-linejoin:round;">
<circle cx="55725" cy="32275" r="295.276" /> 
</g>
<g style="fill:#FFFFFF; fill-opacity:1.0; 
stroke:#FFFFFF; stroke-width:39.3701; stroke-opacity:1; 
stroke-linecap:round; stroke-linejoin:round;">
</g>
<g style="fill:#FFFFFF; fill-opacity:1.0; 
stroke:#FFFFFF; stroke-width:200; stroke-opacity:1; 
stroke-linecap:round; stroke-linejoin:round;">
</g>
<g style="fill:#FFFFFF; fill-opacity:0.0; 
stroke:#FFFFFF; stroke-width:200; stroke-opacity:1; 
stroke-linecap:round; stroke-linejoin:round;">
<path d="M49237 43450
L48062 43450
" />
<path d="M48800 44375
L48800 43887
" />
<path d="M48800 43887
L49237 43450
" />
<path d="M45750 39825
L45625 39700
" />
<path d="M45625 39700
L45133 39700
" />
<path d="M45750 40809
L45750 39825
" />
<path d="M45125 40900
L45659 40900
" />
<path d="M45659 40900
L45750 40809
" />
</g>
<g style="fill:#FFFFFF; fill-opacity:0.0; 
stroke:#FFFFFF; stroke-width:500; stroke-opacity:1; 
stroke-linecap:round; stroke-linejoin:round;">
<path d="M45300 43925
L45300 44375
" />
<path d="M56500 28650
L50775 28650
" />
<path d="M50775 28650
L50775 29325
" />
<path d="M48725 36450
L47890 36450
" />
<path d="M47890 36450
L47750 36309
" />
<path d="M47750 36309
L47750 36050
" />
<path d="M43600 35450
L43500 35550
" />
<path d="M47750 36050
L47150 35450
" />
<path d="M47150 35450
L43600 35450
" />
<path d="M43500 44375
L43500 39700
" />
</g>
<g style="fill:#FFFFFF; fill-opacity:0.0; 
stroke:#FFFFFF; stroke-width:200; stroke-opacity:1; 
stroke-linecap:round; stroke-linejoin:round;">
<path d="M43830 39700
L43500 39700
" />
</g>
<g style="fill:#FFFFFF; fill-opacity:0.0; 
stroke:#FFFFFF; stroke-width:500; stroke-opacity:1; 
stroke-linecap:round; stroke-linejoin:round;">
<path d="M43500 39700
L43500 35550
" />
</g>
<g style="fill:#FFFFFF; fill-opacity:0.0; 
stroke:#FFFFFF; stroke-width:200; stroke-opacity:1; 
stroke-linecap:round; stroke-linejoin:round;">
<path d="M44266 39700
L43830 39700
" />
</g>
<g style="fill:#FFFFFF; fill-opacity:0.0; 
stroke:#FFFFFF; stroke-width:500; stroke-opacity:1; 
stroke-linecap:round; stroke-linejoin:round;">
<path d="M43500 35550
L43500 32650
" />
<path d="M43500 32650
L43500 29300
" />
<path d="M46950 32650
L46115 32650
" />
<path d="M46115 32650
L43500 32650
" />
<path d="M45300 44375
L43500 44375
" />
<path d="M43500 29300
L43525 29275
" />
<path d="M46487 43450
L45775 43450
" />
<path d="M45775 43450
L45300 43925
" />
</g>
<g style="fill:#FFFFFF; fill-opacity:0.0; 
stroke:#FFFFFF; stroke-width:200; stroke-opacity:1; 
stroke-linecap:round; stroke-linejoin:round;">
<path d="M46125 44375
L45300 44375
" />
</g>
<g style="fill:#FFFFFF; fill-opacity:0.0; 
stroke:#FFFFFF; stroke-width:500; stroke-opacity:1; 
stroke-linecap:round; stroke-linejoin:round;">
<path d="M50775 29325
L46750 29325
" />
<path d="M46750 29325
L46700 29275
" />
<path d="M46700 29275
L43525 29275
" />
<path d="M50592 35600
L50175 35600
" />
<path d="M57000 35650
L56950 35600
" />
<path d="M56950 35600
L50592 35600
" />
<path d="M57000 44750
L57000 35650
" />
<path d="M57000 35650
L57000 31425
" />
<path d="M52125 43868
L52125 44375
" />
<path d="M52125 44375
L52125 45125
" />
</g>
<g style="fill:#FFFFFF; fill-opacity:0.0; 
stroke:#FFFFFF; stroke-width:200; stroke-opacity:1; 
stroke-linecap:round; stroke-linejoin:round;">
<path d="M51925 44375
L52125 44375
" />
<path d="M53450 31425
L53250 31425
" />
<path d="M57000 31425
L53450 31425
" />
</g>
<g style="fill:#FFFFFF; fill-opacity:0.0; 
stroke:#FFFFFF; stroke-width:500; stroke-opacity:1; 
stroke-linecap:round; stroke-linejoin:round;">
<path d="M56625 45125
L57000 44750
" />
<path d="M52125 45125
L56625 45125
" />
<path d="M50812 43450
L51706 43450
" />
<path d="M51706 43450
L52125 43868
" />
</g>
<g style="fill:#FFFFFF; fill-opacity:0.0; 
stroke:#FFFFFF; stroke-width:200; stroke-opacity:1; 
stroke-linecap:round; stroke-linejoin:round;">
<path d="M51399 44375
L51925 44375
" />
<path d="M46874 44375
L47800 44375
" />
<path d="M50650 44375
L49800 44375
" />
</g>
<g style="fill:#FFFFFF; fill-opacity:0.0; 
stroke:#FFFFFF; stroke-width:100; stroke-opacity:1; 
stroke-linecap:round; stroke-linejoin:round;">
<path d="M55725 32275
L52825 32275
" />
</g>
<g style="fill:#FFFFFF; fill-opacity:1.0; 
stroke:#FFFFFF; stroke-width:100; stroke-opacity:1; 
stroke-linecap:round; stroke-linejoin:round;">
<polyline style="fill-rule:evenodd;"
points="48850,44325
48857,44325
48857,44425
48850,44425
48850,44894
48940,44942
49101,44875
49270,44721
49296,44665
49386,44799
49576,44926
49800,44971
50023,44926
50213,44799
50263,44725
50267,44725
50317,44758
50414,44777
50887,44777
50984,44758
51025,44731
51065,44758
51162,44777
51625,44777
51625,45125
51663,45316
51732,45420
45657,45420
45657,44725
45742,44725
45792,44758
45889,44777
46362,44777
46459,44758
46500,44731
46540,44758
46637,44777
47110,44777
47207,44758
47218,44750
47229,44807
47285,44889
47367,44945
47465,44964
48134,44964
48232,44945
48314,44889
48370,44807
48378,44766
48498,44875
48659,44942
48750,44894
48750,44425
48742,44425
48742,44325
48750,44325
48750,44317
48850,44317
48850,44325
" /> 
<polyline style="fill-rule:evenodd;"
points="57120,30948
57000,30925
56808,30963
56646,31071
56644,31075
53671,31075
53559,30963
53358,30879
53142,30879
52941,30962
52788,31115
52704,31316
52704,31532
52785,31729
52717,31729
52516,31812
52363,31965
52279,32166
52279,32382
52362,32583
52515,32736
52716,32820
52932,32820
53133,32737
53286,32584
53290,32575
55258,32575
55262,32583
55415,32736
55616,32820
55832,32820
56033,32737
56186,32584
56270,32383
56270,32167
56187,31966
56034,31813
55942,31775
56500,31775
56500,35100
50392,35100
50283,35054
50067,35054
49866,35137
49713,35290
49629,35491
49629,35707
49712,35908
49865,36061
50066,36145
50282,36145
50392,36100
56500,36100
56500,37975
56432,37929
56334,37910
55665,37910
55567,37929
55485,37985
55429,38067
55410,38165
55410,38834
55429,38932
55485,39014
55567,39070
55592,39075
55575,39086
55448,39276
55403,39500
55448,39723
55575,39913
55709,40003
55653,40029
55499,40198
55432,40359
55480,40450
55950,40450
55950,40442
56050,40442
56050,40450
56057,40450
56057,40550
56050,40550
56050,41020
56140,41067
56346,40970
56500,40802
56500,44542
56417,44625
55384,44625
55384,44512
55322,44450
54850,44450
54850,44457
54750,44457
54750,44450
54742,44450
54742,44350
54750,44350
54750,43877
54850,43877
54850,44350
55322,44350
55384,44287
55384,44015
55346,43923
55276,43853
55184,43815
54912,43815
54850,43877
54750,43877
54687,43815
54415,43815
54323,43853
54253,43923
54224,43992
54213,43975
54023,43848
53800,43803
53576,43848
53386,43975
53259,44164
53215,44388
53215,44411
53257,44625
52625,44625
52625,43868
52586,43677
52478,43515
52478,43515
52059,43096
51897,42988
51706,42949
51706,42950
51379,42950
51303,42899
51206,42880
50418,42880
50321,42899
50238,42954
50183,43037
50163,43135
50163,43764
50183,43862
50238,43945
50312,43994
50267,44025
50263,44025
50213,43950
50023,43823
49881,43795
49881,43562
49818,43500
49287,43500
49287,43507
49187,43507
49187,43500
48656,43500
48650,43506
48643,43500
48112,43500
48112,43507
48012,43507
48012,43500
47481,43500
47418,43562
47418,43794
47367,43804
47285,43860
47229,43942
47218,43999
47207,43991
47110,43972
47020,43972
47061,43945
47116,43862
47136,43764
47136,43135
47126,43085
47418,43085
47418,43337
47481,43400
48012,43400
48012,42947
48112,42947
48112,43400
48643,43400
48650,43393
48656,43400
49187,43400
49187,42947
49287,42947
49287,43400
49818,43400
49881,43337
49881,43085
49843,42993
49772,42923
49681,42885
49350,42885
49287,42947
49187,42947
49125,42885
48794,42885
48702,42923
48650,42975
48597,42923
48505,42885
48174,42885
48112,42947
48012,42947
47949,42885
47618,42885
47527,42923
47456,42993
47418,43085
47126,43085
47116,43037
47061,42954
46978,42899
46881,42880
46093,42880
45996,42899
45920,42950
45775,42950
45775,42949
45657,42973
45644,42950
45175,42950
45175,42957
45075,42957
45075,42950
44605,42950
44557,43040
44624,43201
44778,43370
44984,43467
45074,43420
45074,43442
44946,43571
44838,43733
44809,43875
44000,43875
44000,40125
44030,40132
44503,40132
44600,40112
44683,40057
44700,40032
44716,40057
44799,40112
44896,40132
45369,40132
45400,40125
45400,40310
44790,40310
44692,40329
44610,40385
44554,40467
44535,40565
44535,41234
44554,41332
44610,41414
44692,41470
44717,41475
44700,41486
44573,41676
44528,41900
44573,42123
44700,42313
44834,42403
44778,42429
44624,42598
44557,42759
44605,42850
45075,42850
45075,42842
45175,42842
45175,42850
45644,42850
45692,42759
45625,42598
45471,42429
45415,42403
45549,42313
45676,42123
45721,41900
45676,41676
45549,41486
45532,41475
45557,41470
45639,41414
45695,41332
45713,41239
45793,41223
45907,41147
45997,41057
46012,41033
46073,40943
46100,40809
46100,40640
55432,40640
55499,40801
55653,40970
55859,41067
55950,41020
55950,40550
55480,40550
55432,40640
46100,40640
46100,39825
46073,39691
45997,39577
45872,39452
45831,39425
45758,39376
45625,39350
45554,39350
45549,39342
45466,39287
45369,39267
44896,39267
44799,39287
44716,39342
44700,39367
44683,39342
44600,39287
44503,39267
44030,39267
44000,39274
44000,38540
44682,38540
44749,38701
44903,38870
45109,38967
45200,38920
45200,38450
45300,38450
45300,38920
45390,38967
45596,38870
45750,38701
45807,38565
46432,38565
46499,38726
46653,38895
46859,38992
46950,38945
46950,38475
47050,38475
47050,38945
47140,38992
47346,38895
47500,38726
47557,38590
48157,38590
48224,38751
48378,38920
48584,39017
48675,38970
48675,38500
48775,38500
48775,38970
48865,39017
49071,38920
49225,38751
49292,38590
49244,38500
48775,38500
48675,38500
48205,38500
48157,38590
47557,38590
47567,38565
47519,38475
47050,38475
46950,38475
46480,38475
46432,38565
45807,38565
45817,38540
45769,38450
45300,38450
45200,38450
44730,38450
44682,38540
44000,38540
44000,35950
44691,35950
44679,35967
44660,36065
44660,36734
44679,36832
44735,36914
44817,36970
44842,36975
44825,36986
44698,37176
44653,37400
44698,37623
44825,37813
44959,37903
44903,37929
44749,38098
44682,38259
44730,38350
45200,38350
45200,38342
45300,38342
45300,38350
45769,38350
45817,38259
45750,38098
45596,37929
45540,37903
45674,37813
45801,37623
45846,37400
45801,37176
45674,36986
45657,36975
45682,36970
45764,36914
45820,36832
45839,36734
45839,36065
45820,35967
45808,35950
46458,35950
46429,35992
46410,36090
46410,36759
46429,36857
46485,36939
46567,36995
46592,37000
46575,37011
46448,37201
46403,37425
46448,37648
46575,37838
46709,37928
46653,37954
46499,38123
46432,38284
46480,38375
46950,38375
46950,38367
47050,38367
47050,38375
47519,38375
47567,38284
47500,38123
47346,37954
47290,37928
47424,37838
47551,37648
47596,37425
47551,37201
47424,37011
47407,37000
47432,36995
47514,36939
47570,36857
47575,36829
47699,36911
47890,36950
48200,36950
48210,36964
48292,37020
48317,37025
48300,37036
48173,37226
48128,37450
48173,37673
48300,37863
48434,37953
48378,37979
48224,38148
48157,38309
48205,38400
48675,38400
48675,38392
48775,38392
48775,38400
49244,38400
49292,38309
49225,38148
49071,37979
49015,37953
49149,37863
49276,37673
49321,37450
49276,37226
49149,37036
49132,37025
49157,37020
49239,36964
49295,36882
49314,36784
49314,36115
49295,36017
49239,35935
49157,35879
49059,35860
48390,35860
48292,35879
48225,35925
48211,35858
48103,35696
48103,35696
47503,35096
47388,35019
47450,34951
47517,34790
47469,34700
47000,34700
47000,34707
46900,34707
46900,34700
46430,34700
46382,34790
46448,34950
44000,34950
44000,33150
46425,33150
46435,33164
46517,33220
46542,33225
46525,33236
46398,33426
46353,33650
46398,33873
46525,34063
46659,34153
46603,34179
46449,34348
46382,34509
46430,34600
46900,34600
46900,34592
47000,34592
47000,34600
47469,34600
47517,34509
47450,34348
47296,34179
47240,34153
47374,34063
47501,33873
47546,33650
47501,33426
47374,33236
47357,33225
47382,33220
47464,33164
47520,33082
47539,32984
47539,32315
47520,32217
47464,32135
47382,32079
47284,32060
46615,32060
46517,32079
46435,32135
46425,32150
44000,32150
44000,31415
46132,31415
46199,31576
46353,31745
46559,31842
46650,31795
46650,31325
46750,31325
46750,31795
46840,31842
47046,31745
47200,31576
47246,31465
50207,31465
50274,31626
50428,31795
50634,31892
50725,31845
50725,31375
50825,31375
50825,31845
50915,31892
51121,31795
51275,31626
51342,31465
51294,31375
50825,31375
50725,31375
50255,31375
50207,31465
47246,31465
47267,31415
47219,31325
46750,31325
46650,31325
46180,31325
46132,31415
44000,31415
44000,29775
46175,29775
46185,29789
46267,29845
46292,29850
46275,29861
46148,30051
46103,30275
46148,30498
46275,30688
46409,30778
46353,30804
46199,30973
46132,31134
46180,31225
46650,31225
46650,31217
46750,31217
46750,31225
47219,31225
47267,31134
47200,30973
47046,30804
46990,30778
47124,30688
47251,30498
47296,30275
47251,30051
47124,29861
47107,29850
47132,29845
47162,29825
50250,29825
50260,29839
50342,29895
50367,29900
50350,29911
50223,30101
50178,30325
50223,30548
50350,30738
50484,30828
50428,30854
50274,31023
50207,31184
50255,31275
50725,31275
50725,31267
50825,31267
50825,31275
51294,31275
51342,31184
51275,31023
51121,30854
51065,30828
51199,30738
51326,30548
51371,30325
51326,30101
51199,29911
51182,29900
51207,29895
51289,29839
51345,29757
51363,29662
51715,29662
51715,29934
51753,30026
51823,30096
51915,30134
52187,30134
52250,30072
52250,29600
51777,29600
51715,29662
51363,29662
51364,29659
51364,29150
51721,29150
51715,29165
51715,29437
51777,29500
52250,29500
52250,29492
52350,29492
52350,29500
52357,29500
52357,29600
52350,29600
52350,30072
52412,30134
52684,30134
52776,30096
52846,30026
52875,29957
52886,29974
53076,30101
53300,30146
53523,30101
53713,29974
53840,29785
53884,29561
53884,29538
53840,29314
53730,29150
56282,29150
56391,29195
56607,29195
56808,29112
56961,28959
57045,28758
57045,28542
57019,28479
57120,28479
57120,30948
" /> 
</g>
<g style="fill:#000000; fill-opacity:1.0; 
stroke:#000000; stroke-width:100; stroke-opacity:1; 
stroke-linecap:round; stroke-linejoin:round;">
</g>
<g style="fill:#000000; fill-opacity:1.0; 
stroke:#000000; stroke-width:0; stroke-opacity:1; 
stroke-linecap:round; stroke-linejoin:round;">
<circle cx="56500" cy="28650" r="196.85" /> 
</g>
<g style="fill:#000000; fill-opacity:1.0; 
stroke:#000000; stroke-width:39.3701; stroke-opacity:1; 
stroke-linecap:round; stroke-linejoin:round;">
</g>
<g style="fill:#000000; fill-opacity:1.0; 
stroke:#000000; stroke-width:0; stroke-opacity:1; 
stroke-linecap:round; stroke-linejoin:round;">
<circle cx="50175" cy="35600" r="196.85" /> 
</g>
<g style="fill:#000000; fill-opacity:1.0; 
stroke:#000000; stroke-width:39.3701; stroke-opacity:1; 
stroke-linecap:round; stroke-linejoin:round;">
</g>
<g style="fill:#000000; fill-opacity:1.0; 
stroke:#000000; stroke-width:0; stroke-opacity:1; 
stroke-linecap:round; stroke-linejoin:round;">
<circle cx="53250" cy="31425" r="196.85" /> 
</g>
<g style="fill:#000000; fill-opacity:1.0; 
stroke:#000000; stroke-width:39.3701; stroke-opacity:1; 
stroke-linecap:round; stroke-linejoin:round;">
</g>
<g style="fill:#000000; fill-opacity:1.0; 
stroke:#000000; stroke-width:0; stroke-opacity:1; 
stroke-linecap:round; stroke-linejoin:round;">
<circle cx="52825" cy="32275" r="196.85" /> 
</g>
<g style="fill:#000000; fill-opacity:1.0; 
stroke:#000000; stroke-width:39.3701; stroke-opacity:1; 
stroke-linecap:round; stroke-linejoin:round;">
</g>
<g style="fill:#000000; fill-opacity:1.0; 
stroke:#000000; stroke-width:0; stroke-opacity:1; 
stroke-linecap:round; stroke-linejoin:round;">
<circle cx="55725" cy="32275" r="196.85" /> 
</g>
<g style="fill:#000000; fill-opacity:1.0; 
stroke:#000000; stroke-width:39.3701; stroke-opacity:1; 
stroke-linecap:round; stroke-linejoin:round;">
</g>
<g style="fill:#000000; fill-opacity:1.0; 
stroke:#000000; stroke-width:0; stroke-opacity:1; 
stroke-linecap:round; stroke-linejoin:round;">
<circle cx="54800" cy="44400" r="196.85" /> 
</g>
<g style="fill:#000000; fill-opacity:1.0; 
stroke:#000000; stroke-width:39.3701; stroke-opacity:1; 
stroke-linecap:round; stroke-linejoin:round;">
</g>
<g style="fill:#000000; fill-opacity:1.0; 
stroke:#000000; stroke-width:0; stroke-opacity:1; 
stroke-linecap:round; stroke-linejoin:round;">
<circle cx="53800" cy="44400" r="196.85" /> 
</g>
<g style="fill:#000000; fill-opacity:1.0; 
stroke:#000000; stroke-width:39.3701; stroke-opacity:1; 
stroke-linecap:round; stroke-linejoin:round;">
</g>
<g style="fill:#000000; fill-opacity:1.0; 
stroke:#000000; stroke-width:0; stroke-opacity:1; 
stroke-linecap:round; stroke-linejoin:round;">
<circle cx="45125" cy="40900" r="196.85" /> 
</g>
<g style="fill:#000000; fill-opacity:1.0; 
stroke:#000000; stroke-width:39.3701; stroke-opacity:1; 
stroke-linecap:round; stroke-linejoin:round;">
</g>
<g style="fill:#000000; fill-opacity:1.0; 
stroke:#000000; stroke-width:0; stroke-opacity:1; 
stroke-linecap:round; stroke-linejoin:round;">
<circle cx="45125" cy="41900" r="196.85" /> 
</g>
<g style="fill:#000000; fill-opacity:1.0; 
stroke:#000000; stroke-width:39.3701; stroke-opacity:1; 
stroke-linecap:round; stroke-linejoin:round;">
</g>
<g style="fill:#000000; fill-opacity:1.0; 
stroke:#000000; stroke-width:0; stroke-opacity:1; 
stroke-linecap:round; stroke-linejoin:round;">
<circle cx="45125" cy="42900" r="196.85" /> 
</g>
<g style="fill:#000000; fill-opacity:1.0; 
stroke:#000000; stroke-width:39.3701; stroke-opacity:1; 
stroke-linecap:round; stroke-linejoin:round;">
</g>
<g style="fill:#000000; fill-opacity:1.0; 
stroke:#000000; stroke-width:0; stroke-opacity:1; 
stroke-linecap:round; stroke-linejoin:round;">
<circle cx="48725" cy="36450" r="196.85" /> 
</g>
<g style="fill:#000000; fill-opacity:1.0; 
stroke:#000000; stroke-width:39.3701; stroke-opacity:1; 
stroke-linecap:round; stroke-linejoin:round;">
</g>
<g style="fill:#000000; fill-opacity:1.0; 
stroke:#000000; stroke-width:0; stroke-opacity:1; 
stroke-linecap:round; stroke-linejoin:round;">
<circle cx="48725" cy="37450" r="196.85" /> 
</g>
<g style="fill:#000000; fill-opacity:1.0; 
stroke:#000000; stroke-width:39.3701; stroke-opacity:1; 
stroke-linecap:round; stroke-linejoin:round;">
</g>
<g style="fill:#000000; fill-opacity:1.0; 
stroke:#000000; stroke-width:0; stroke-opacity:1; 
stroke-linecap:round; stroke-linejoin:round;">
<circle cx="48725" cy="38450" r="196.85" /> 
</g>
<g style="fill:#000000; fill-opacity:1.0; 
stroke:#000000; stroke-width:39.3701; stroke-opacity:1; 
stroke-linecap:round; stroke-linejoin:round;">
</g>
<g style="fill:#000000; fill-opacity:1.0; 
stroke:#000000; stroke-width:0; stroke-opacity:1; 
stroke-linecap:round; stroke-linejoin:round;">
<circle cx="46700" cy="29275" r="196.85" /> 
</g>
<g style="fill:#000000; fill-opacity:1.0; 
stroke:#000000; stroke-width:39.3701; stroke-opacity:1; 
stroke-linecap:round; stroke-linejoin:round;">
</g>
<g style="fill:#000000; fill-opacity:1.0; 
stroke:#000000; stroke-width:0; stroke-opacity:1; 
stroke-linecap:round; stroke-linejoin:round;">
<circle cx="46700" cy="30275" r="196.85" /> 
</g>
<g style="fill:#000000; fill-opacity:1.0; 
stroke:#000000; stroke-width:39.3701; stroke-opacity:1; 
stroke-linecap:round; stroke-linejoin:round;">
</g>
<g style="fill:#000000; fill-opacity:1.0; 
stroke:#000000; stroke-width:0; stroke-opacity:1; 
stroke-linecap:round; stroke-linejoin:round;">
<circle cx="46700" cy="31275" r="196.85" /> 
</g>
<g style="fill:#000000; fill-opacity:1.0; 
stroke:#000000; stroke-width:39.3701; stroke-opacity:1; 
stroke-linecap:round; stroke-linejoin:round;">
</g>
<g style="fill:#000000; fill-opacity:1.0; 
stroke:#000000; stroke-width:0; stroke-opacity:1; 
stroke-linecap:round; stroke-linejoin:round;">
<circle cx="45250" cy="36400" r="196.85" /> 
</g>
<g style="fill:#000000; fill-opacity:1.0; 
stroke:#000000; stroke-width:39.3701; stroke-opacity:1; 
stroke-linecap:round; stroke-linejoin:round;">
</g>
<g style="fill:#000000; fill-opacity:1.0; 
stroke:#000000; stroke-width:0; stroke-opacity:1; 
stroke-linecap:round; stroke-linejoin:round;">
<circle cx="45250" cy="37400" r="196.85" /> 
</g>
<g style="fill:#000000; fill-opacity:1.0; 
stroke:#000000; stroke-width:39.3701; stroke-opacity:1; 
stroke-linecap:round; stroke-linejoin:round;">
</g>
<g style="fill:#000000; fill-opacity:1.0; 
stroke:#000000; stroke-width:0; stroke-opacity:1; 
stroke-linecap:round; stroke-linejoin:round;">
<circle cx="45250" cy="38400" r="196.85" /> 
</g>
<g style="fill:#000000; fill-opacity:1.0; 
stroke:#000000; stroke-width:39.3701; stroke-opacity:1; 
stroke-linecap:round; stroke-linejoin:round;">
</g>
<g style="fill:#000000; fill-opacity:1.0; 
stroke:#000000; stroke-width:0; stroke-opacity:1; 
stroke-linecap:round; stroke-linejoin:round;">
<circle cx="56000" cy="38500" r="196.85" /> 
</g>
<g style="fill:#000000; fill-opacity:1.0; 
stroke:#000000; stroke-width:39.3701; stroke-opacity:1; 
stroke-linecap:round; stroke-linejoin:round;">
</g>
<g style="fill:#000000; fill-opacity:1.0; 
stroke:#000000; stroke-width:0; stroke-opacity:1; 
stroke-linecap:round; stroke-linejoin:round;">
<circle cx="56000" cy="39500" r="196.85" /> 
</g>
<g style="fill:#000000; fill-opacity:1.0; 
stroke:#000000; stroke-width:39.3701; stroke-opacity:1; 
stroke-linecap:round; stroke-linejoin:round;">
</g>
<g style="fill:#000000; fill-opacity:1.0; 
stroke:#000000; stroke-width:0; stroke-opacity:1; 
stroke-linecap:round; stroke-linejoin:round;">
<circle cx="56000" cy="40500" r="196.85" /> 
</g>
<g style="fill:#000000; fill-opacity:1.0; 
stroke:#000000; stroke-width:39.3701; stroke-opacity:1; 
stroke-linecap:round; stroke-linejoin:round;">
</g>
<g style="fill:#000000; fill-opacity:1.0; 
stroke:#000000; stroke-width:0; stroke-opacity:1; 
stroke-linecap:round; stroke-linejoin:round;">
<circle cx="50775" cy="29325" r="196.85" /> 
</g>
<g style="fill:#000000; fill-opacity:1.0; 
stroke:#000000; stroke-width:39.3701; stroke-opacity:1; 
stroke-linecap:round; stroke-linejoin:round;">
</g>
<g style="fill:#000000; fill-opacity:1.0; 
stroke:#000000; stroke-width:0; stroke-opacity:1; 
stroke-linecap:round; stroke-linejoin:round;">
<circle cx="50775" cy="30325" r="196.85" /> 
</g>
<g style="fill:#000000; fill-opacity:1.0; 
stroke:#000000; stroke-width:39.3701; stroke-opacity:1; 
stroke-linecap:round; stroke-linejoin:round;">
</g>
<g style="fill:#000000; fill-opacity:1.0; 
stroke:#000000; stroke-width:0; stroke-opacity:1; 
stroke-linecap:round; stroke-linejoin:round;">
<circle cx="50775" cy="31325" r="196.85" /> 
</g>
<g style="fill:#000000; fill-opacity:1.0; 
stroke:#000000; stroke-width:39.3701; stroke-opacity:1; 
stroke-linecap:round; stroke-linejoin:round;">
</g>
<g style="fill:#000000; fill-opacity:1.0; 
stroke:#000000; stroke-width:0; stroke-opacity:1; 
stroke-linecap:round; stroke-linejoin:round;">
<circle cx="47000" cy="36425" r="196.85" /> 
</g>
<g style="fill:#000000; fill-opacity:1.0; 
stroke:#000000; stroke-width:39.3701; stroke-opacity:1; 
stroke-linecap:round; stroke-linejoin:round;">
</g>
<g style="fill:#000000; fill-opacity:1.0; 
stroke:#000000; stroke-width:0; stroke-opacity:1; 
stroke-linecap:round; stroke-linejoin:round;">
<circle cx="47000" cy="37425" r="196.85" /> 
</g>
<g style="fill:#000000; fill-opacity:1.0; 
stroke:#000000; stroke-width:39.3701; stroke-opacity:1; 
stroke-linecap:round; stroke-linejoin:round;">
</g>
<g style="fill:#000000; fill-opacity:1.0; 
stroke:#000000; stroke-width:0; stroke-opacity:1; 
stroke-linecap:round; stroke-linejoin:round;">
<circle cx="47000" cy="38425" r="196.85" /> 
</g>
<g style="fill:#000000; fill-opacity:1.0; 
stroke:#000000; stroke-width:39.3701; stroke-opacity:1; 
stroke-linecap:round; stroke-linejoin:round;">
</g>
<g style="fill:#000000; fill-opacity:1.0; 
stroke:#000000; stroke-width:0; stroke-opacity:1; 
stroke-linecap:round; stroke-linejoin:round;">
<circle cx="46950" cy="32650" r="196.85" /> 
</g>
<g style="fill:#000000; fill-opacity:1.0; 
stroke:#000000; stroke-width:39.3701; stroke-opacity:1; 
stroke-linecap:round; stroke-linejoin:round;">
</g>
<g style="fill:#000000; fill-opacity:1.0; 
stroke:#000000; stroke-width:0; stroke-opacity:1; 
stroke-linecap:round; stroke-linejoin:round;">
<circle cx="46950" cy="33650" r="196.85" /> 
</g>
<g style="fill:#000000; fill-opacity:1.0; 
stroke:#000000; stroke-width:39.3701; stroke-opacity:1; 
stroke-linecap:round; stroke-linejoin:round;">
</g>
<g style="fill:#000000; fill-opacity:1.0; 
stroke:#000000; stroke-width:0; stroke-opacity:1; 
stroke-linecap:round; stroke-linejoin:round;">
<circle cx="46950" cy="34650" r="196.85" /> 
</g>
<g style="fill:#000000; fill-opacity:1.0; 
stroke:#000000; stroke-width:39.3701; stroke-opacity:1; 
stroke-linecap:round; stroke-linejoin:round;">
</g>
<g style="fill:#000000; fill-opacity:1.0; 
stroke:#000000; stroke-width:0; stroke-opacity:1; 
stroke-linecap:round; stroke-linejoin:round;">
<circle cx="47800" cy="44375" r="196.85" /> 
</g>
<g style="fill:#000000; fill-opacity:1.0; 
stroke:#000000; stroke-width:39.3701; stroke-opacity:1; 
stroke-linecap:round; stroke-linejoin:round;">
</g>
<g style="fill:#000000; fill-opacity:1.0; 
stroke:#000000; stroke-width:0; stroke-opacity:1; 
stroke-linecap:round; stroke-linejoin:round;">
<circle cx="48800" cy="44375" r="196.85" /> 
</g>
<g style="fill:#000000; fill-opacity:1.0; 
stroke:#000000; stroke-width:39.3701; stroke-opacity:1; 
stroke-linecap:round; stroke-linejoin:round;">
</g>
<g style="fill:#000000; fill-opacity:1.0; 
stroke:#000000; stroke-width:0; stroke-opacity:1; 
stroke-linecap:round; stroke-linejoin:round;">
<circle cx="49800" cy="44375" r="196.85" /> 
</g>
<g style="fill:#000000; fill-opacity:1.0; 
stroke:#000000; stroke-width:39.3701; stroke-opacity:1; 
stroke-linecap:round; stroke-linejoin:round;">
</g>
<g style="fill:#000000; fill-opacity:1.0; 
stroke:#000000; stroke-width:0; stroke-opacity:1; 
stroke-linecap:round; stroke-linejoin:round;">
<circle cx="52300" cy="29550" r="196.85" /> 
</g>
<g style="fill:#000000; fill-opacity:1.0; 
stroke:#000000; stroke-width:39.3701; stroke-opacity:1; 
stroke-linecap:round; stroke-linejoin:round;">
</g>
<g style="fill:#000000; fill-opacity:1.0; 
stroke:#000000; stroke-width:0; stroke-opacity:1; 
stroke-linecap:round; stroke-linejoin:round;">
<circle cx="53300" cy="29550" r="196.85" /> 
</g>
<g style="fill:#000000; fill-opacity:1.0; 
stroke:#000000; stroke-width:39.3701; stroke-opacity:1; 
stroke-linecap:round; stroke-linejoin:round;">
</g>
<g style="fill:#FFFFFF; fill-opacity:1.0; 
stroke:#FFFFFF; stroke-width:39.3701; stroke-opacity:1; 
stroke-linecap:round; stroke-linejoin:round;">
</g> 
</svg>
